<svg width="28" height="44" viewBox="0 0 28 44" fill="none" xmlns="http://www.w3.org/2000/svg">
<g id="2642602_384542-PC4DUV-45-_1_ 1">
<g id="g10">
<g id="g12">
<path id="path22" d="M13.5512 26.4714V30.5232H15.5251V26.4714H13.5512Z" fill="#676C71"/>
<path id="path24" d="M13.5512 26.4715V27.8997C14.2785 27.8695 15.0057 27.8395 15.5251 27.8147V26.4715H13.5512Z" fill="#45464A"/>
<path id="path26" d="M7.42169 25.0838C7.42169 26.0223 8.18248 26.7831 9.12093 26.7831H19.9555C20.894 26.7831 21.6548 26.0223 21.6548 25.0838V25.0539C21.6548 24.1155 20.894 23.3547 19.9555 23.3547H9.12093C8.18248 23.3547 7.42169 24.1155 7.42169 25.0539V25.0838Z" fill="#29283D"/>
<path id="path28" d="M21.4469 38.3151H22.2781V36.4714C22.2781 36.0654 22.1846 35.7111 21.9075 35.4467C21.6341 35.186 21.2688 35.0636 20.7696 34.9841C20.4484 34.9327 20.2116 34.9905 20.1567 34.9905H15.4213V35.51H20.1805C20.4229 35.51 20.9228 35.589 21.2651 35.9168C21.4011 36.0471 21.4469 36.2587 21.4469 36.4714V38.3151Z" fill="#29283D"/>
<path id="path30" d="M17.3953 40.3928H18.3303V35.5099H17.3953V40.3928Z" fill="#29283D"/>
<path id="path32" d="M17.4291 40.0732C17.4291 40.1328 17.433 40.1917 17.44 40.2493C17.5268 40.9445 18.1197 41.4824 18.8385 41.4824C19.5572 41.4824 20.1501 40.9445 20.2369 40.2493C20.2439 40.1917 20.2478 40.1328 20.2478 40.0732C20.2478 39.295 19.6168 38.6638 18.8385 38.6638C18.0603 38.6638 17.4291 39.295 17.4291 40.0732Z" fill="#6B6D6F"/>
<path id="path34" d="M17.4291 40.0929C17.4291 40.1526 17.433 40.185 17.44 40.2889H20.2369C20.2439 40.185 20.2478 40.1526 20.2478 40.0929C20.2478 39.3148 19.6168 38.6835 18.8385 38.6835C18.0603 38.6835 17.4291 39.3148 17.4291 40.0929Z" fill="#29283D"/>
<path id="path36" d="M21.4469 40.3928H22.2781V36.0294H21.4469V40.3928Z" fill="#29283D"/>
<path id="path38" d="M21.3897 40.0732C21.3897 40.1328 21.3935 40.1917 21.4005 40.2493C21.4873 40.9445 22.0802 41.4824 22.7991 41.4824C23.5178 41.4824 24.1107 40.9445 24.1974 40.2493C24.2044 40.1917 24.2083 40.1328 24.2083 40.0732C24.2083 39.295 23.5773 38.6638 22.7991 38.6638C22.0207 38.6638 21.3897 39.295 21.3897 40.0732Z" fill="#6B6D6F"/>
<path id="path40" d="M21.3897 40.0929C21.3897 40.1526 21.3935 40.185 21.4005 40.2889H24.1974C24.2044 40.185 24.2083 40.1526 24.2083 40.0929C24.2083 39.3148 23.5773 38.6835 22.7991 38.6835C22.0207 38.6835 21.3897 39.3148 21.3897 40.0929Z" fill="#29283D"/>
<path id="path42" d="M10.6424 40.3928H11.5774V35.5099H10.6424V40.3928Z" fill="#29283D"/>
<path id="path44" d="M10.622 40.0732C10.622 40.1328 10.6259 40.1917 10.6329 40.2493C10.7197 40.9445 11.3127 41.4824 12.0314 41.4824C12.7502 41.4824 13.343 40.9445 13.4298 40.2493C13.4368 40.1917 13.4407 40.1328 13.4407 40.0732C13.4407 39.295 12.8096 38.6638 12.0314 38.6638C11.2532 38.6638 10.622 39.295 10.622 40.0732Z" fill="#6B6D6F"/>
<path id="path46" d="M10.622 40.0929C10.622 40.1526 10.6259 40.185 10.6329 40.2889H13.4298C13.4368 40.185 13.4407 40.1526 13.4407 40.0929C13.4407 39.3148 12.8096 38.6835 12.0314 38.6835C11.2532 38.6835 10.622 39.3148 10.622 40.0929Z" fill="#29283D"/>
<path id="path48" d="M7.83723 38.3151H6.90221V36.4714C6.90221 36.0654 7.01909 35.7111 7.29606 35.4467C7.56961 35.186 7.94663 35.0636 8.44572 34.9841C8.76696 34.9327 9.01546 34.9905 9.07021 34.9905H13.759V35.51H9.04642C8.80415 35.51 8.33279 35.589 7.99047 35.9168C7.85448 36.0471 7.83723 36.2587 7.83723 36.4714V38.3151Z" fill="#29283D"/>
<path id="path50" d="M7.83716 40.3928H6.90214V36.0294H7.83716V40.3928Z" fill="#29283D"/>
<path id="path52" d="M9.78955 40.0732C9.78955 40.1328 9.78571 40.1917 9.77875 40.2493C9.692 40.9445 9.09899 41.4824 8.38027 41.4824C7.66155 41.4824 7.06864 40.9445 6.98179 40.2493C6.97483 40.1917 6.97109 40.1328 6.97109 40.0732C6.97109 39.295 7.60202 38.6638 8.38027 38.6638C9.15852 38.6638 9.78955 39.295 9.78955 40.0732Z" fill="#6B6D6F"/>
<path id="path54" d="M9.78955 40.0929C9.78955 40.1526 9.78571 40.185 9.77875 40.2889H6.98179C6.97483 40.185 6.97109 40.1526 6.97109 40.0929C6.97109 39.3148 7.60202 38.6835 8.38027 38.6835C9.15852 38.6835 9.78955 39.3148 9.78955 40.0929Z" fill="#29283D"/>
<path id="path56" d="M13.1356 29.7959V36.0294H15.9407V29.7959H13.1356Z" fill="#29283D"/>
<path id="path58" d="M14.5903 29.7959V36.0294H15.4214V29.7959H14.5903Z" fill="#525086"/>
<path id="path60" d="M12.4086 27.3026H16.5642V25.952H12.4086V27.3026Z" fill="#29283D"/>
<path id="path62" d="M16.6246 29.0687C16.6246 29.2512 16.7494 29.3804 16.9031 29.3804H21.7301C21.8839 29.3804 22.0085 29.2512 22.0085 29.0687C22.0085 28.886 21.8839 28.757 21.7301 28.757H16.9031C16.7494 28.757 16.6246 28.886 16.6246 29.0687Z" fill="#29283D"/>
<path id="path64" d="M17.1746 29.2802C17.2242 29.2802 17.2742 29.2632 17.3149 29.2284C17.4061 29.1509 17.417 29.0143 17.3394 28.9233L15.2045 26.4171C15.1269 26.3259 14.9902 26.3149 14.8992 26.3926C14.8082 26.4701 14.7971 26.6068 14.8747 26.6979L17.0096 29.2041C17.0524 29.2543 17.1133 29.2802 17.1746 29.2802Z" fill="#29283D"/>
<path id="path68" d="M1.3145 21.86C1.81214 21.3354 2.5292 21.1495 3.52489 21.0193C4.65502 20.8718 6.40871 20.7814 8.73712 20.7508C10.189 20.7315 13.5925 20.5451 14.0508 18.6742C14.2035 18.0505 14.1403 17.285 14.177 16.6424C14.2104 16.057 14.2395 15.4712 14.2655 14.8854C14.3134 13.8075 14.3597 12.7299 14.4208 11.6528C14.5328 9.67961 14.6309 7.70579 14.7431 5.73268C14.7652 5.34309 14.8079 4.94934 14.8079 4.55892C14.8079 3.43482 15.6684 1.97089 17.1435 1.77433C19.9281 1.40302 25.8687 0.753283 26.4255 1.77433C26.4255 1.77433 25.0838 18.6463 24.7382 19.9821C24.3927 21.318 19.7446 22.4827 19.2066 22.7175C18.8519 22.8725 16.8676 22.9312 15.2873 22.924C14.3531 24.0796 13.851 25.2634 11.8526 25.4436C11.3916 25.4852 3.07442 24.9007 2.77687 24.9208C1.75375 24.9883 0.871927 24.2334 0.807203 23.2347C0.774893 22.735 0.959818 22.2338 1.3145 21.86Z" fill="#A0E4FA"/>
<path id="path70" d="M19.4252 25.212C21.947 24.9845 23.9128 24.2208 25.2814 22.9336C26.6404 21.6555 26.8953 20.3156 26.9327 20.0601C26.9416 19.9982 26.9475 19.9361 26.9502 19.8739L27.6864 3.20879C27.7316 2.18464 26.938 1.31746 25.9136 1.27226C24.8891 1.22697 24.0223 2.0208 23.977 3.04506C23.9092 4.57932 23.8427 6.1139 23.7766 7.64838C23.6582 10.3958 23.5729 13.1489 23.4097 15.8937C23.375 16.4775 23.3538 17.0573 23.346 17.6417C23.3336 18.5831 23.4142 19.8044 22.5266 20.395C21.8024 20.8771 21.097 21.2097 20.2306 21.3586C19.4854 21.4865 18.7008 21.5614 17.9447 21.57C15.6159 21.5963 13.8622 21.6851 12.7321 21.8338C11.7365 21.9649 11.0196 22.1538 10.523 22.69C10.169 23.0721 9.9853 23.585 10.0187 24.097C10.0857 25.1201 10.7366 25.6033 11.7598 25.5364C12.0573 25.5164 14.3471 25.6721 17.9866 25.2829C18.4817 25.2299 18.9642 25.2535 19.4252 25.212Z" fill="#229BB5"/>
<path id="path72" d="M15.7897 6.33427C16.857 6.23817 17.9439 6.29178 19.0144 6.29209C19.5519 6.2922 20.0894 6.29241 20.6268 6.29251C21.1602 6.29261 21.7084 6.25875 22.2392 6.31682C22.3288 6.32659 22.3288 6.45406 22.2392 6.46383C21.7084 6.5219 21.1602 6.48803 20.6268 6.48814C20.0894 6.48824 19.5519 6.48845 19.0144 6.48855C17.9439 6.48876 16.857 6.54237 15.7897 6.44637C15.7212 6.44024 15.7212 6.3404 15.7897 6.33427Z" fill="#B55522"/>
<path id="path74" d="M15.7897 11.0993C16.857 11.0033 17.9439 11.0569 19.0144 11.0572C19.5519 11.0573 20.0894 11.0574 20.6268 11.0577C21.1602 11.0577 21.7084 11.0239 22.2392 11.082C22.3288 11.0917 22.3288 11.2191 22.2392 11.229C21.7084 11.287 21.1602 11.2532 20.6268 11.2533C20.0894 11.2534 19.5519 11.2536 19.0144 11.2536C17.9439 11.2538 16.857 11.3076 15.7897 11.2115C15.7212 11.2054 15.7212 11.1054 15.7897 11.0993Z" fill="#B55522"/>
<path id="path76" d="M15.66 13.9282C16.7263 13.8084 17.8331 13.8906 18.9048 13.8911L20.531 13.8921C21.1056 13.8924 21.6955 13.8607 22.2658 13.9368C22.3199 13.9441 22.3199 14.0186 22.2658 14.0259C21.7332 14.0969 21.1837 14.0702 20.647 14.0705L19.021 14.0715C18.479 14.0717 17.9368 14.0725 17.3948 14.0722C16.8177 14.0717 16.2344 14.099 15.66 14.0345C15.5952 14.0272 15.5952 13.9355 15.66 13.9282Z" fill="#B55522"/>
<path id="path78" d="M15.66 8.60614C16.7263 8.48646 17.8331 8.56864 18.9048 8.56916L20.531 8.56999C21.1056 8.57041 21.6955 8.53872 22.2658 8.61487C22.3199 8.62214 22.3199 8.69653 22.2658 8.7038C21.7332 8.77497 21.1837 8.74827 20.647 8.74858L19.021 8.74941C18.479 8.74962 17.9368 8.75055 17.3948 8.75014C16.8177 8.74962 16.2344 8.77705 15.66 8.71253C15.5952 8.70515 15.5952 8.61342 15.66 8.60614Z" fill="#B55522"/>
<path id="path90" d="M10.5037 12.0721C10.5037 12.0721 7.88571 11.6981 7.63637 9.08016C7.63637 9.08016 7.26246 11.8853 4.89374 11.8228C5.01841 12.0098 7.44968 12.1344 7.57414 14.5653C7.57414 14.5653 7.5117 11.8851 10.5037 12.0721Z" fill="white"/>
<path id="path92" d="M6.88745 16.5158C6.88745 16.5158 5.60834 16.3331 5.48648 15.0538C5.48648 15.0538 5.30373 16.4246 4.14638 16.394C4.20726 16.4854 5.39516 16.5462 5.45604 17.7341C5.45604 17.7341 5.42549 16.4244 6.88745 16.5158Z" fill="white"/>
<path id="path94" d="M11.5554 17.9418C11.5554 17.9418 10.5738 17.8016 10.4802 16.8199C10.4802 16.8199 10.3401 17.8719 9.45183 17.8484C9.49848 17.9185 10.4102 17.9653 10.457 18.8768C10.457 18.8768 10.4335 17.8717 11.5554 17.9418Z" fill="white"/>
<path id="path152" d="M15.474 43.7882L15.4818 43.7612C15.4507 43.7547 15.4274 43.7271 15.4274 43.694C15.4274 43.6563 15.4582 43.6255 15.496 43.6255C15.5339 43.6255 15.5646 43.6563 15.5646 43.694C15.5646 43.7271 15.5413 43.7547 15.5103 43.7612L15.5016 43.7912C15.6077 43.8059 15.6921 43.8473 15.6921 43.8473L15.6772 43.8929C15.6131 43.8716 15.5574 43.8586 15.5068 43.8533C15.4574 43.848 15.4202 43.8456 15.3898 43.8456C15.3573 43.8456 15.3332 43.8483 15.3058 43.8529L15.2979 43.8034C15.2979 43.8034 15.374 43.78 15.474 43.7882Z" fill="#CEC4AF"/>
</g>
</g>
</g>
</svg>
