<svg width="82" height="52" viewBox="0 0 82 52" fill="none" xmlns="http://www.w3.org/2000/svg">
<g id="Group 920">
<g id="g130">
<path id="path132" d="M81.9642 7.77285C81.7788 12.0774 80.7801 17.3467 77.6048 21.586C77.4879 21.7416 77.3709 21.8958 77.2531 22.0484C76.8971 22.5099 76.534 22.9584 76.1666 23.3936C75.756 23.8785 75.0387 23.9562 74.5315 23.5743L60.436 12.9616C60.2751 12.8402 60.1555 12.6827 60.0826 12.508C60.0334 12.3903 60.0043 12.2649 59.9982 12.1378C59.9859 11.9115 60.0439 11.6801 60.1775 11.4776C60.5081 10.9743 60.8544 10.473 61.2166 9.97472C61.33 9.81854 61.4452 9.66255 61.5612 9.50699C64.7365 5.2678 69.5065 2.83713 73.5776 1.45774C75.7279 0.729389 77.683 0.293913 79.1063 0.04035C79.3428 -0.00151443 79.5731 -0.0102367 79.7929 0.0115337C80.126 0.044054 80.4346 0.146288 80.7054 0.306957C81.2908 0.653679 81.6979 1.27256 81.7814 2.05423C81.9352 3.49532 82.0636 5.49941 81.9642 7.77285Z" fill="#EE9849"/>
</g>
<g id="g134">
<path id="path136" d="M61.2076 9.98854C60.7965 10.5546 60.4057 11.1247 60.0353 11.6965C59.7932 12.069 59.8824 12.5654 60.2366 12.8322L74.6887 23.7134C75.1024 24.0248 75.6861 23.9599 76.0225 23.566C76.437 23.0813 76.8448 22.5799 77.2441 22.0624L61.2076 9.98854Z" fill="#588FE0"/>
</g>
<g id="g138">
<path id="path140" d="M73.7488 6.70213C73.5932 6.70213 73.4367 6.7132 73.2802 6.73548C72.4124 6.85926 71.6446 7.31434 71.1179 8.01706C70.5913 8.71978 70.3698 9.58587 70.493 10.4558C70.6161 11.3258 71.0701 12.0956 71.7712 12.6233C72.4723 13.151 73.3358 13.3734 74.2045 13.2497C75.0715 13.126 75.8401 12.6709 76.3659 11.9682C76.8917 11.2655 77.114 10.3994 76.9909 9.52938C76.867 8.65943 76.4129 7.88968 75.7127 7.36191C75.1381 6.92964 74.4541 6.70213 73.7488 6.70213ZM73.7334 14.2793C72.8134 14.2793 71.9234 13.983 71.1744 13.4196C70.2621 12.7323 69.6704 11.7294 69.5097 10.5961C69.349 9.4627 69.638 8.33438 70.3237 7.41891C71.0094 6.50353 72.0097 5.9107 73.14 5.74946C74.2712 5.58831 75.3955 5.87813 76.3086 6.56559C77.2218 7.25305 77.8134 8.25578 77.9742 9.38924C78.1349 10.5226 77.8459 11.6509 77.1602 12.5663C76.4745 13.4817 75.4742 14.0746 74.3439 14.2358C74.1395 14.2649 73.9352 14.2793 73.7334 14.2793Z" fill="#B74B42"/>
</g>
<g id="g142">
<path id="path144" d="M81.0278 1.29881C80.9884 0.92734 80.8756 0.592346 80.7051 0.305922C80.434 0.145308 80.1253 0.0430794 79.7921 0.0105534C79.7948 0.029314 79.7974 0.0480747 79.7991 0.0668373C79.953 1.50772 80.0816 3.51208 79.9828 5.78514C79.7965 10.0898 78.7978 15.3591 75.6226 19.5983C75.5063 19.7542 75.3882 19.9082 75.2702 20.061C75.1915 20.1628 75.1128 20.2636 75.0332 20.3641L76.4123 21.4043C76.4411 21.3672 76.4709 21.3306 76.4997 21.2933C76.6178 21.1404 76.7349 20.9861 76.8512 20.8306C80.0274 16.5913 81.0251 11.322 81.2114 7.01736C81.3102 4.74404 81.1817 2.73995 81.0278 1.29881Z" fill="#FFC08D"/>
</g>
<g id="g146">
<path id="path148" d="M81.7816 2.05491C81.6339 0.671984 80.4726 -0.202224 79.1065 0.0410275C77.6833 0.294591 75.7282 0.729894 73.5779 1.45833L81.9654 7.77344C82.0638 5.50018 81.9355 3.49591 81.7816 2.05491Z" fill="#588FE0"/>
</g>
<g id="g150">
<path id="path152" d="M62.379 15.7923C61.0049 14.8772 58.8415 15.719 57.5473 17.6725C56.2523 19.626 57.6923 22.8668 57.6923 22.8668C57.6923 22.8668 61.2297 22.9402 62.5239 20.9867C63.8182 19.0331 63.753 16.7075 62.379 15.7923Z" fill="#B74B42"/>
</g>
<g id="g154">
<path id="path156" d="M70.1042 21.4799C68.73 20.5647 66.5665 21.4065 65.2722 23.36C63.9778 25.3136 65.418 28.5543 65.418 28.5543C65.418 28.5543 68.9556 28.6277 70.2492 26.6742C71.5435 24.7206 71.4784 22.3951 70.1042 21.4799Z" fill="#B74B42"/>
</g>
<g id="g158">
<path id="path160" d="M60.9192 17.9802C59.9704 17.3485 58.4776 17.9295 57.5846 19.2779C56.6909 20.6262 57.6843 22.863 57.6843 22.863C57.6843 22.863 60.126 22.9136 61.0197 21.5653C61.9127 20.217 61.8674 18.6118 60.9192 17.9802Z" fill="#EE9849"/>
</g>
<g id="g166">
<path id="path168" d="M71.8237 12.1257L76.2562 11.3404C75.7644 12.2343 74.8147 12.8398 73.7241 12.8398C72.9962 12.8398 72.3315 12.5703 71.8237 12.1257Z" fill="#FFE6D2"/>
</g>
<g id="g170">
<path id="path172" d="M76.6133 9.84418L70.9997 10.9102C70.8923 10.6071 70.834 10.2807 70.834 9.94075C70.834 8.34039 72.1279 7.04305 73.7245 7.04305C75.289 7.04305 76.5625 8.28842 76.6133 9.84418Z" fill="#FFE6D2"/>
</g>
<g id="g328">
<path id="path330" d="M60.2236 51.6328H1.52953L0.208984 46.5677C1.42512 49.1865 11.3135 46.321 13.5296 44.7273C17.5816 41.7944 17.6118 38.9063 21.8058 36.946C27.4851 34.2901 33.1644 38.4502 37.7314 37.3126C51.7388 33.8338 63.3503 22.454 63.7086 22.0949C59.7761 31.2226 50.1937 36.0259 57.5593 39.0188C65.201 42.1237 60.2236 51.6328 60.2236 51.6328Z" fill="#CAE0FF"/>
</g>
<g id="g350">
<path id="path352" d="M51.8813 51.6328H23.3889C24.6052 50.6303 26.2696 48.8946 27.1498 46.4031C28.6425 42.1984 33.7389 43.9341 38.2396 43.2083C42.7468 42.4829 51.8391 33.2826 52.1497 34.3425C52.3163 34.91 50.2838 42.3856 53.2692 43.2308C56.2168 44.0614 57.3436 48.73 51.8813 51.6328Z" fill="#AFCDFB"/>
</g>
</g>
</svg>
