<svg width="24" height="24" viewBox="0 0 24 24" fill="none" xmlns="http://www.w3.org/2000/svg">
<g id="primary icon">
<rect width="24" height="24" fill="white" style="mix-blend-mode:multiply"/>
<g id="Vector">
<path d="M20.25 21V12H14.25V21H11.25V9H5.25V21H3V1.5H1.5V21C1.5 21.3978 1.65804 21.7794 1.93934 22.0607C2.22064 22.342 2.60218 22.5 3 22.5H22.5V21H20.25ZM9.75 21H6.75V10.5H9.75V21ZM18.75 21H15.75V13.5H18.75V21Z" fill="#525252"/>
<path d="M17.0892 10.5C16.7711 10.5002 16.4614 10.3986 16.2052 10.2101L8.40307 4.49025L6.18143 7.5L4.97805 6.60488L7.21395 3.60488C7.44648 3.29175 7.79194 3.08163 8.17693 3.01917C8.56192 2.9567 8.9561 3.04682 9.2757 3.27037L17.0917 9.00037L19.7951 5.3544L21 6.24795L18.2966 9.89377C18.1568 10.0822 17.9747 10.2351 17.765 10.3404C17.5553 10.4457 17.3238 10.5004 17.0892 10.5Z" fill="#525252"/>
</g>
</g>
</svg>
