<svg width="24" height="24" viewBox="0 0 24 24" fill="none" xmlns="http://www.w3.org/2000/svg">
<g id="primary icon">
<rect width="24" height="24" fill="white" style="mix-blend-mode:multiply"/>
<path id="Vector" d="M20.25 16.5V12.75C20.2495 12.3523 20.0914 11.9711 19.8102 11.6898C19.5289 11.4086 19.1477 11.2505 18.75 11.25H12.75V7.5H15C15.3977 7.49954 15.779 7.34136 16.0602 7.06016C16.3414 6.77895 16.4995 6.39768 16.5 6V3C16.4995 2.60232 16.3414 2.22105 16.0602 1.93984C15.779 1.65864 15.3977 1.50046 15 1.5H9C8.60232 1.50046 8.22105 1.65864 7.93984 1.93984C7.65864 2.22105 7.50046 2.60232 7.5 3V6C7.50046 6.39768 7.65864 6.77895 7.93984 7.06016C8.22105 7.34136 8.60232 7.49954 9 7.5H11.25V11.25H5.25C4.85232 11.2505 4.47105 11.4086 4.18984 11.6898C3.90864 11.9711 3.75046 12.3523 3.75 12.75V16.5H1.5V22.5H7.5V16.5H5.25V12.75H11.25V16.5H9V22.5H15V16.5H12.75V12.75H18.75V16.5H16.5V22.5H22.5V16.5H20.25ZM9 3H15V6H9V3ZM6 21H3V18H6V21ZM13.5 21H10.5V18H13.5V21ZM21 21H18V18H21V21Z" fill="#525252"/>
</g>
</svg>
