<svg width="24" height="24" viewBox="0 0 24 24" fill="none" xmlns="http://www.w3.org/2000/svg">
<g id="primary icon">
<rect width="24" height="24" fill="white" style="mix-blend-mode:multiply"/>
<g id="Vector">
<path d="M20.25 7.5H15.75C15.1535 7.50066 14.5815 7.73792 14.1597 8.15973C13.7379 8.58155 13.5007 9.15346 13.5 9.75V14.25C13.5005 14.6477 13.6586 15.029 13.9398 15.3102C14.221 15.5914 14.6023 15.7495 15 15.75V21C15.0005 21.3977 15.1586 21.7789 15.4398 22.0602C15.721 22.3414 16.1023 22.4995 16.5 22.5H19.5C19.8977 22.4995 20.2789 22.3414 20.5602 22.0602C20.8414 21.7789 20.9995 21.3977 21 21V15.75C21.3977 15.7495 21.7789 15.5914 22.0602 15.3102C22.3414 15.029 22.4995 14.6477 22.5 14.25V9.75C22.4993 9.15346 22.2621 8.58155 21.8403 8.15973C21.4185 7.73792 20.8465 7.50066 20.25 7.5ZM21 14.25H19.5V21H16.5V14.25H15V9.75C15.0002 9.55114 15.0793 9.36048 15.2199 9.21987C15.3605 9.07926 15.5511 9.00018 15.75 9H20.25C20.4489 9.00018 20.6395 9.07926 20.7801 9.21987C20.9207 9.36048 20.9998 9.55114 21 9.75V14.25Z" fill="#525252"/>
<path d="M15 3.75C15 3.15666 15.1759 2.57664 15.5056 2.08329C15.8352 1.58994 16.3038 1.20543 16.8519 0.978363C17.4001 0.7513 18.0033 0.69189 18.5853 0.807646C19.1672 0.923401 19.7018 1.20912 20.1213 1.62868C20.5409 2.04824 20.8266 2.58279 20.9424 3.16473C21.0581 3.74667 20.9987 4.34987 20.7716 4.89805C20.5446 5.44623 20.1601 5.91477 19.6667 6.24441C19.1734 6.57405 18.5933 6.75 18 6.75C17.2046 6.74917 16.442 6.43283 15.8796 5.8704C15.3172 5.30797 15.0008 4.54539 15 3.75ZM16.5 3.75C16.5 4.04667 16.588 4.33668 16.7528 4.58336C16.9176 4.83003 17.1519 5.02229 17.426 5.13582C17.7001 5.24935 18.0017 5.27906 18.2926 5.22118C18.5836 5.1633 18.8509 5.02044 19.0607 4.81066C19.2704 4.60088 19.4133 4.33361 19.4712 4.04264C19.5291 3.75167 19.4994 3.45007 19.3858 3.17598C19.2723 2.90189 19.08 2.66762 18.8334 2.5028C18.5867 2.33797 18.2967 2.25 18 2.25C17.6023 2.25046 17.2211 2.40864 16.9398 2.68985C16.6586 2.97105 16.5005 3.35232 16.5 3.75Z" fill="#525252"/>
<path d="M10.5 12V9.75C10.4993 9.15346 10.2621 8.58155 9.84027 8.15973C9.41845 7.73792 8.84654 7.50066 8.25 7.5H3.75C3.15346 7.50066 2.58155 7.73792 2.15973 8.15973C1.73792 8.58155 1.50066 9.15346 1.5 9.75V12H0V13.5H12V12H10.5ZM3 9.75C3.00018 9.55114 3.07925 9.36048 3.21987 9.21987C3.36048 9.07926 3.55114 9.00018 3.75 9H8.25C8.44886 9.00018 8.63952 9.07926 8.78013 9.21987C8.92075 9.36048 8.99982 9.55114 9 9.75V12H3V9.75Z" fill="#525252"/>
<path d="M3 3.75C3 3.15666 3.17595 2.57664 3.50559 2.08329C3.83524 1.58994 4.30377 1.20543 4.85195 0.978363C5.40013 0.7513 6.00333 0.69189 6.58527 0.807646C7.16721 0.923401 7.70176 1.20912 8.12132 1.62868C8.54088 2.04824 8.8266 2.58279 8.94236 3.16473C9.05811 3.74667 8.9987 4.34987 8.77164 4.89805C8.54458 5.44623 8.16006 5.91477 7.66671 6.24441C7.17336 6.57405 6.59334 6.75 6 6.75C5.20461 6.74917 4.44203 6.43283 3.8796 5.8704C3.31717 5.30797 3.00083 4.54539 3 3.75ZM4.5 3.75C4.5 4.04667 4.58797 4.33668 4.7528 4.58336C4.91762 4.83003 5.15189 5.02229 5.42597 5.13582C5.70006 5.24935 6.00166 5.27906 6.29264 5.22118C6.58361 5.1633 6.85088 5.02044 7.06066 4.81066C7.27044 4.60088 7.4133 4.33361 7.47118 4.04264C7.52906 3.75167 7.49935 3.45007 7.38582 3.17598C7.27229 2.90189 7.08003 2.66762 6.83335 2.5028C6.58668 2.33797 6.29667 2.25 6 2.25C5.60232 2.25046 5.22105 2.40864 4.93984 2.68985C4.65864 2.97105 4.50046 3.35232 4.5 3.75Z" fill="#525252"/>
</g>
</g>
</svg>
