<svg width="24" height="24" viewBox="0 0 24 24" fill="none" xmlns="http://www.w3.org/2000/svg">
<g id="primary icon">
<rect width="24" height="24" fill="white" style="mix-blend-mode:multiply"/>
<path id="Vector" d="M12.4592 1.6604C12.3261 1.55651 12.1621 1.50009 11.9932 1.50009C11.8243 1.50009 11.6603 1.55651 11.5272 1.6604L0.75 10.0646L1.68203 11.2434L3 10.2157V19.5C3.00081 19.8976 3.15911 20.2787 3.44024 20.5598C3.72137 20.8409 4.10242 20.9992 4.5 21H19.5C19.8976 20.9993 20.2787 20.841 20.5599 20.5599C20.841 20.2788 20.9993 19.8976 21 19.5V10.2226L22.318 11.2501L23.25 10.0712L12.4592 1.6604ZM13.5 19.5H10.5V13.5001H13.5V19.5ZM15 19.5V13.5001C14.9995 13.1024 14.8414 12.7211 14.5602 12.4399C14.279 12.1587 13.8977 12.0005 13.5 12.0001H10.5C10.1023 12.0004 9.721 12.1586 9.43978 12.4398C9.15856 12.721 9.0004 13.1023 9 13.5001V19.5H4.5V9.04617L12 3.20367L19.5 9.05405V19.5H15Z" fill="white"/>
</g>
</svg>
