<svg width="57" height="34" viewBox="0 0 57 34" fill="none" xmlns="http://www.w3.org/2000/svg">
<g id="9174355_6274 1">
<g id="g10">
<g id="g12">
<path id="path30" d="M54.9135 24.9714C54.9135 24.9714 53.3483 25.1384 52.4537 26.3217L52.6447 26.4302C52.6447 26.4302 53.8439 25.3343 54.8139 25.1389C55.7839 24.9433 54.9135 24.9714 54.9135 24.9714Z" fill="#82B378"/>
<path id="path36" d="M54.2244 21.7318C54.2244 21.7318 52.6412 23.7344 53.5437 26.1724L53.9511 26.0811C53.9511 26.0811 53.5557 23.396 54.384 22.0455C55.2123 20.6949 54.2244 21.7318 54.2244 21.7318Z" fill="#82B378"/>
<path id="path38" d="M51.4755 4.44915L56.9612 28.0736C57.0728 28.5543 56.6309 29.0005 56.0434 29.0005H53.1502L51.4755 4.44915Z" fill="#ED7D2B"/>
<g id="g48">
<path id="path50" d="M15.8333 13.248C15.8333 13.248 17.0303 14.588 16.5197 16.313L16.2319 16.2632C16.2319 16.2632 16.3783 14.3831 15.7375 13.4715C15.0966 12.5598 15.8333 13.248 15.8333 13.248Z" fill="#C7DCFB"/>
</g>
<g id="g60">
<path id="path62" d="M21.563 8.36663C21.563 8.36663 22.3182 10.4904 20.7362 12.4438L20.4056 12.2725C20.4056 12.2725 21.6188 9.98707 21.321 8.60838C21.0233 7.2297 21.563 8.36663 21.563 8.36663Z" fill="#DFEBFD"/>
</g>
<path id="path64" d="M51.4093 4.35356L55.0454 27.5492C55.1659 28.3183 54.4471 29.0005 53.516 29.0005H48.182L51.1893 4.2698L51.4093 4.35356Z" fill="#78ACEA"/>
<path id="path66" d="M51.4101 4.35356L53.0378 27.4012C53.0991 28.2688 52.2711 29.0005 51.2278 29.0005H43.2726L51.4101 4.35356Z" fill="#699DEE"/>
<path id="path68" d="M51.4708 4.54171L50.6794 27.4012C50.7406 28.2688 49.9127 29.0005 48.8694 29.0005H40.9141L51.4708 4.54171Z" fill="#5288D8"/>
<g id="g70">
<path id="path72" d="M13.3824 29.0005H44.7493C45.5324 29.0005 46.2038 28.5343 46.3445 27.8925L51.1173 6.14921C51.3342 5.16204 50.4239 4.25261 49.2191 4.25261H18.2216C17.4387 4.25261 16.7673 4.71881 16.6264 5.36055L11.7872 27.4064C11.6049 28.236 12.3695 29.0005 13.3824 29.0005Z" fill="white"/>
</g>
<g id="g74">
<path id="path76" d="M50.4968 8.97333H15.8118L16.7012 4.86807C16.7783 4.51195 17.1506 4.25291 17.5852 4.25291H51.1815C51.365 4.25291 51.5036 4.39147 51.4708 4.54196L50.4968 8.97333Z" fill="#F99746"/>
</g>
<path id="path78" d="M49.6855 3.01636C50.515 3.01636 51.1895 3.57797 51.1895 4.2687H50.9005C50.9005 3.7107 50.3556 3.25683 49.6855 3.25683C49.0156 3.25683 48.4705 3.7107 48.4705 4.2687C48.4705 4.38082 48.4921 4.48855 48.533 4.58907C48.6521 4.88676 48.933 5.12285 49.2882 5.22517C49.3922 5.25532 49.502 5.27414 49.6165 5.27929V5.52002C49.4828 5.51512 49.3544 5.49553 49.2322 5.46332C48.7443 5.33471 48.3634 5.00377 48.2316 4.58907C48.1991 4.48675 48.1818 4.37953 48.1818 4.2687C48.1818 3.57797 48.8563 3.01636 49.6855 3.01636Z" fill="#78ACEA"/>
<path id="path80" d="M49.2208 5.39146C49.2208 5.41646 49.2251 5.44094 49.2325 5.46388C49.2706 5.57857 49.3965 5.6626 49.5463 5.6626C49.726 5.6626 49.8721 5.5412 49.8721 5.39146C49.8721 5.24171 49.726 5.12006 49.5463 5.12006C49.4414 5.12006 49.3483 5.16181 49.2885 5.22573C49.2458 5.27161 49.2208 5.32908 49.2208 5.39146Z" fill="#78ACEA"/>
<path id="path82" d="M44.2951 3.01636C45.1243 3.01636 45.7988 3.57797 45.7988 4.2687H45.5102C45.5102 3.7107 44.965 3.25683 44.2951 3.25683C43.625 3.25683 43.0801 3.7107 43.0801 4.2687C43.0801 4.38082 43.1021 4.48855 43.1426 4.58907C43.2621 4.88676 43.5427 5.12285 43.8979 5.22517C44.0015 5.25532 44.1117 5.27414 44.2262 5.27929V5.52002C44.0928 5.51512 43.9641 5.49553 43.8419 5.46332C43.354 5.33471 42.9728 5.00377 42.841 4.58907C42.8085 4.48675 42.7912 4.37953 42.7912 4.2687C42.7912 3.57797 43.466 3.01636 44.2951 3.01636Z" fill="#78ACEA"/>
<path id="path84" d="M43.8295 5.39146C43.8295 5.41646 43.8335 5.44094 43.8409 5.46388C43.879 5.57857 44.0049 5.6626 44.155 5.6626C44.3347 5.6626 44.4805 5.5412 44.4805 5.39146C44.4805 5.24171 44.3347 5.12006 44.155 5.12006C44.0498 5.12006 43.9563 5.16181 43.8969 5.22573C43.8546 5.27161 43.8295 5.32908 43.8295 5.39146Z" fill="#78ACEA"/>
<path id="path86" d="M38.9026 3.01636C39.7318 3.01636 40.4062 3.57797 40.4062 4.2687H40.1179C40.1179 3.7107 39.573 3.25683 38.9026 3.25683C38.2327 3.25683 37.6876 3.7107 37.6876 4.2687C37.6876 4.38082 37.7095 4.48855 37.7504 4.58907C37.8695 4.88676 38.1504 5.12285 38.5053 5.22517C38.6093 5.25532 38.7194 5.27414 38.8339 5.27929V5.52002C38.7005 5.51512 38.5718 5.49553 38.4496 5.46332C37.9614 5.33445 37.5808 5.00377 37.449 4.58907C37.4165 4.48675 37.3992 4.37953 37.3992 4.2687C37.3992 3.57797 38.0737 3.01636 38.9026 3.01636Z" fill="#78ACEA"/>
<path id="path88" d="M38.4386 5.39146C38.4386 5.41646 38.4429 5.44094 38.4503 5.46388C38.4884 5.57857 38.6143 5.6626 38.764 5.6626C38.9438 5.6626 39.0898 5.5412 39.0898 5.39146C39.0898 5.24171 38.9438 5.12006 38.764 5.12006C38.6592 5.12006 38.566 5.16181 38.506 5.22573C38.4636 5.27161 38.4386 5.32908 38.4386 5.39146Z" fill="#78ACEA"/>
<g id="g90">
<path id="path92" d="M33.5121 3.01831C34.3413 3.01831 35.0156 3.58003 35.0156 4.27079H34.727C34.727 3.71269 34.1821 3.25875 33.5121 3.25875C32.8421 3.25875 32.2969 3.71269 32.2969 4.27079C32.2969 4.38272 32.319 4.4905 32.3594 4.59103C32.4788 4.88848 32.7594 5.12478 33.1146 5.22712C33.2185 5.25717 33.3286 5.27583 33.443 5.28127V5.52197C33.3099 5.51679 33.1808 5.49762 33.0586 5.46523C32.5703 5.3362 32.1899 5.00559 32.058 4.59103C32.0257 4.48869 32.0082 4.38116 32.0082 4.27079C32.0082 3.58003 32.6829 3.01831 33.5121 3.01831Z" fill="#78ACEA"/>
</g>
<path id="path94" d="M33.047 5.39146C33.047 5.41646 33.0513 5.44094 33.0587 5.46388C33.0968 5.57857 33.223 5.6626 33.3728 5.6626C33.5525 5.6626 33.6982 5.5412 33.6982 5.39146C33.6982 5.24171 33.5525 5.12006 33.3728 5.12006C33.2679 5.12006 33.1744 5.16181 33.1147 5.22573C33.072 5.27161 33.047 5.32908 33.047 5.39146Z" fill="#78ACEA"/>
<g id="g96">
<path id="path98" d="M28.1212 3.01837C28.9502 3.01837 29.625 3.57992 29.625 4.27074H29.3366C29.3366 3.71263 28.7909 3.25858 28.1212 3.25858C27.4513 3.25858 26.9062 3.71263 26.9062 4.27074C26.9062 4.38282 26.9282 4.4906 26.9688 4.59122C27.0882 4.88847 27.369 5.12468 27.7241 5.22701C27.8277 5.25711 27.9382 5.27603 28.0521 5.28119V5.52197C27.9189 5.51681 27.7902 5.49761 27.6681 5.46522C27.1801 5.33651 26.7988 5.00571 26.6674 4.59122C26.6347 4.4886 26.6175 4.38139 26.6175 4.27074C26.6175 3.57992 27.2919 3.01837 28.1212 3.01837Z" fill="#78ACEA"/>
</g>
<g id="g100">
<path id="path102" d="M27.6555 5.39138C27.6555 5.41642 27.6599 5.44062 27.6673 5.46369C27.7051 5.57848 27.8308 5.6626 27.9811 5.6626C28.1607 5.6626 28.3066 5.54106 28.3066 5.39138C28.3066 5.24143 28.1607 5.11989 27.9811 5.11989C27.8757 5.11989 27.7825 5.16153 27.7234 5.22568C27.6805 5.27153 27.6555 5.32893 27.6555 5.39138Z" fill="#78ACEA"/>
</g>
<g id="g104">
<path id="path106" d="M22.7286 3.01646C23.558 3.01646 24.2324 3.57795 24.2324 4.26889H23.9439C23.9439 3.71054 23.3988 3.25683 22.7286 3.25683C22.0587 3.25683 21.5137 3.71054 21.5137 4.26889C21.5137 4.38074 21.5359 4.48851 21.5763 4.58906C21.6958 4.88661 21.9765 5.12289 22.3314 5.22523C22.4351 5.25524 22.5453 5.27406 22.6599 5.27937V5.52002C22.526 5.51502 22.3978 5.4956 22.2756 5.46324C21.7879 5.33467 21.4065 5.00381 21.2749 4.58906C21.2425 4.48694 21.2251 4.37949 21.2251 4.26889C21.2251 3.57795 21.8995 3.01646 22.7286 3.01646Z" fill="#78ACEA"/>
</g>
<g id="g108">
<path id="path110" d="M22.2639 5.39138C22.2639 5.41641 22.2683 5.44081 22.2758 5.46367C22.3136 5.57827 22.44 5.6626 22.5898 5.6626C22.7693 5.6626 22.915 5.54089 22.915 5.39138C22.915 5.24157 22.7693 5.11987 22.5898 5.11987C22.4849 5.11987 22.3915 5.16157 22.3318 5.22551C22.2891 5.27154 22.2639 5.32899 22.2639 5.39138Z" fill="#78ACEA"/>
</g>
<g id="g112">
<path id="path114" d="M17.3382 3.01637C18.1673 3.01637 18.8418 3.57802 18.8418 4.26878H18.5534C18.5534 3.71072 18.0081 3.25676 17.3382 3.25676C16.6682 3.25676 16.123 3.71072 16.123 4.26878C16.123 4.38087 16.1447 4.48856 16.1854 4.58917C16.3047 4.88661 16.5854 5.12286 16.9411 5.22522C17.0449 5.25526 17.1544 5.27406 17.2689 5.27939V5.52002C17.1355 5.51503 17.0071 5.49562 16.8849 5.46325C16.3971 5.33468 16.0159 5.00369 15.8842 4.58917C15.8518 4.48682 15.8346 4.3794 15.8346 4.26878C15.8346 3.57802 16.5091 3.01637 17.3382 3.01637Z" fill="#78ACEA"/>
</g>
<g id="g116">
<path id="path118" d="M16.8724 5.39136C16.8724 5.41635 16.8764 5.44078 16.8837 5.46373C16.922 5.57845 17.0481 5.6626 17.1979 5.6626C17.3776 5.6626 17.5234 5.54111 17.5234 5.39136C17.5234 5.2416 17.3776 5.12008 17.1979 5.12008C17.0929 5.12008 17 5.16159 16.9402 5.22572C16.8974 5.27161 16.8724 5.32898 16.8724 5.39136Z" fill="#78ACEA"/>
</g>
<g id="g120">
<path id="path122" d="M30.4386 16.686H32.192C32.3947 16.686 32.5925 16.5481 32.6316 16.3791L32.9698 14.9185C33.0088 14.7496 32.8752 14.6115 32.6722 14.6115H30.9189C30.7162 14.6115 30.5184 14.7496 30.4796 14.9185L30.1411 16.3791C30.102 16.5481 30.236 16.686 30.4386 16.686Z" fill="#AFCDFB"/>
</g>
<g id="g124">
<path id="path126" d="M26.0147 16.686H27.7683C27.9709 16.686 28.1685 16.5482 28.2074 16.3791L28.546 14.9185C28.5849 14.7496 28.4509 14.6115 28.2483 14.6115H26.4951C26.2922 14.6115 26.0945 14.7496 26.0553 14.9185L25.717 16.3791C25.6782 16.5482 25.8118 16.686 26.0147 16.686Z" fill="#AFCDFB"/>
</g>
<g id="g128">
<path id="path130" d="M21.5898 16.686H23.3433C23.5462 16.686 23.7437 16.5481 23.7829 16.3791L24.1211 14.9185C24.1603 14.7496 24.0265 14.6115 23.8236 14.6115H22.0705C21.8677 14.6115 21.6701 14.7496 21.6306 14.9185L21.2924 16.3791C21.2536 16.5481 21.3874 16.686 21.5898 16.686Z" fill="#78ACEA"/>
</g>
<path id="path132" d="M43.712 16.6841H45.4653C45.668 16.6841 45.866 16.5462 45.905 16.3771L46.2432 14.9165C46.2824 14.7477 46.1485 14.6096 45.9458 14.6096H44.1925C43.9898 14.6096 43.7918 14.7477 43.7528 14.9165L43.4146 16.3771C43.3753 16.5462 43.5093 16.6841 43.712 16.6841Z" fill="#AFCDFB"/>
<path id="path134" d="M45.6341 12.2996H46.3878C46.4748 12.2996 46.5598 12.2403 46.5765 12.1676L46.722 11.54C46.7387 11.4673 46.6811 11.408 46.5942 11.408H45.8408C45.7535 11.408 45.6685 11.4673 45.6518 11.54L45.5063 12.1676C45.4896 12.2403 45.5472 12.2996 45.6341 12.2996Z" fill="#F99746"/>
<path id="path136" d="M39.2882 16.6841H41.0416C41.2442 16.6841 41.4423 16.5462 41.4812 16.3771L41.8194 14.9165C41.8584 14.7477 41.7247 14.6096 41.5221 14.6096H39.7687C39.5661 14.6096 39.368 14.7477 39.3291 14.9165L38.9909 16.3771C38.9516 16.5462 39.0856 16.6841 39.2882 16.6841Z" fill="#AFCDFB"/>
<path id="path138" d="M34.8634 16.6841H36.6168C36.8194 16.6841 37.0171 16.5462 37.0564 16.3771L37.3946 14.9165C37.4336 14.7477 37.2999 14.6096 37.0973 14.6096H35.3439C35.1409 14.6096 34.9432 14.7477 34.9043 14.9165L34.5661 16.3771C34.5268 16.5462 34.6608 16.6841 34.8634 16.6841Z" fill="#AFCDFB"/>
<g id="g140">
<path id="path142" d="M17.166 16.686H18.9193C19.1222 16.686 19.3202 16.5481 19.359 16.3791L19.6973 14.9185C19.7365 14.7497 19.6027 14.6115 19.3998 14.6115H17.6466C17.4437 14.6115 17.2457 14.7497 17.2069 14.9185L16.8686 16.3791C16.8294 16.5481 16.9632 16.686 17.166 16.686Z" fill="#78ACEA"/>
</g>
<g id="g144">
<path id="path146" d="M31.174 13.5122H32.9274C33.1301 13.5122 33.328 13.3741 33.3668 13.2052L33.7051 11.7447C33.7442 11.5758 33.6106 11.4377 33.4079 11.4377H31.6545C31.4518 11.4377 31.2539 11.5758 31.2147 11.7447L30.8768 13.2052C30.8373 13.3741 30.9713 13.5122 31.174 13.5122Z" fill="#AFCDFB"/>
</g>
<g id="g148">
<path id="path150" d="M26.7492 13.5122H28.5026C28.705 13.5122 28.9029 13.3741 28.9422 13.2052L29.2803 11.7446C29.3194 11.5758 29.1857 11.4377 28.983 11.4377H27.2296C27.0265 11.4377 26.829 11.5758 26.7899 11.7446L26.4515 13.2052C26.4125 13.3741 26.5465 13.5122 26.7492 13.5122Z" fill="#AFCDFB"/>
</g>
<g id="g152">
<path id="path154" d="M22.3254 13.5122H24.0788C24.2815 13.5122 24.4789 13.3741 24.518 13.2053L24.8566 11.7446C24.8953 11.5758 24.7616 11.4377 24.559 11.4377H22.8056C22.6029 11.4377 22.4051 11.5758 22.366 11.7446L22.0278 13.2053C21.9887 13.3741 22.1228 13.5122 22.3254 13.5122Z" fill="#78ACEA"/>
</g>
<g id="g156">
<path id="path158" d="M17.9004 13.5122H19.6537C19.8567 13.5122 20.0541 13.374 20.0933 13.2052L20.4318 11.7447C20.4706 11.5758 20.3367 11.4377 20.1341 11.4377H18.3808C18.1782 11.4377 17.9804 11.5758 17.9412 11.7447L17.6031 13.2052C17.5639 13.374 17.6974 13.5122 17.9004 13.5122Z" fill="#78ACEA"/>
</g>
<g id="g160">
<path id="path162" d="M29.6602 20.0474H31.4136C31.6163 20.0474 31.8141 19.9092 31.8531 19.7404L32.1914 18.2798C32.2307 18.111 32.0967 17.9728 31.894 17.9728H30.1406C29.9379 17.9728 29.7401 18.111 29.7011 18.2798L29.3628 19.7404C29.3238 19.9092 29.4574 20.0474 29.6602 20.0474Z" fill="#AFCDFB"/>
</g>
<g id="g164">
<path id="path166" d="M25.2355 20.0474H26.9888C27.1917 20.0474 27.3896 19.9092 27.4286 19.7404L27.7666 18.2798C27.8059 18.111 27.6719 17.9728 27.4694 17.9728H25.716C25.5135 17.9728 25.3153 18.111 25.2763 18.2798L24.9383 19.7404C24.8989 19.9092 25.033 20.0474 25.2355 20.0474Z" fill="#AFCDFB"/>
</g>
<g id="g168">
<path id="path170" d="M20.8116 20.0475H22.5648C22.7675 20.0475 22.9653 19.9094 23.0046 19.7405L23.3429 18.2799C23.3818 18.1111 23.2482 17.973 23.0454 17.973H21.2919C21.0892 17.973 20.8914 18.1111 20.8524 18.2799L20.5142 19.7405C20.4749 19.9094 20.6089 20.0475 20.8116 20.0475Z" fill="#78ACEA"/>
</g>
<path id="path172" d="M42.9337 20.0475H44.6871C44.8897 20.0475 45.0875 19.9093 45.1267 19.7405L45.4649 18.2799C45.5039 18.1111 45.3702 17.973 45.1673 17.973H43.4139C43.2113 17.973 43.0136 18.1111 42.9746 18.2799L42.6361 19.7405C42.5971 19.9093 42.7311 20.0475 42.9337 20.0475Z" fill="#AFCDFB"/>
<path id="path174" d="M38.5089 20.0474H40.2623C40.465 20.0474 40.6627 19.9092 40.702 19.7404L41.0401 18.2798C41.0791 18.111 40.9451 17.9728 40.7425 17.9728H38.9891C38.7865 17.9728 38.5888 18.111 38.5495 18.2798L38.2113 19.7404C38.1723 19.9092 38.306 20.0474 38.5089 20.0474Z" fill="#AFCDFB"/>
<path id="path176" d="M34.0848 20.0475H35.8382C36.0411 20.0475 36.2388 19.9093 36.2778 19.7405L36.6163 18.2799C36.6553 18.1111 36.5213 17.973 36.3187 17.973H34.5653C34.3626 17.973 34.1649 18.1111 34.1256 18.2799L33.7875 19.7405C33.7485 19.9093 33.8821 20.0475 34.0848 20.0475Z" fill="#AFCDFB"/>
<g id="g178">
<path id="path180" d="M16.3868 20.0474H18.1403C18.3427 20.0474 18.5406 19.9092 18.5799 19.7404L18.9181 18.2798C18.9569 18.111 18.8232 17.9728 18.6208 17.9728H16.8669C16.6645 17.9728 16.4665 18.111 16.4277 18.2798L16.0891 19.7404C16.0502 19.9092 16.1844 20.0474 16.3868 20.0474Z" fill="#78ACEA"/>
</g>
<g id="g182">
<path id="path184" d="M28.8819 23.4106H30.6353C30.838 23.4106 31.0357 23.2725 31.0749 23.1037L31.4132 21.6431C31.4521 21.4743 31.3185 21.3361 31.1158 21.3361H29.3621C29.1594 21.3361 28.9617 21.4743 28.9228 21.6431L28.5842 23.1037C28.5453 23.2725 28.6792 23.4106 28.8819 23.4106Z" fill="#AFCDFB"/>
</g>
<g id="g186">
<path id="path188" d="M24.4583 23.4106H26.2116C26.4143 23.4106 26.612 23.2725 26.6512 23.1037L26.9894 21.6431C27.0282 21.4743 26.8948 21.3361 26.6918 21.3361H24.9385C24.7358 21.3361 24.5381 21.4743 24.499 21.6431L24.1604 23.1037C24.1216 23.2725 24.2556 23.4106 24.4583 23.4106Z" fill="#AFCDFB"/>
</g>
<g id="g190">
<path id="path192" d="M20.0333 23.4106H21.7868C21.9893 23.4106 22.1869 23.2725 22.2259 23.1037L22.5645 21.6431C22.6036 21.4743 22.4694 21.3361 22.2669 21.3361H20.5134C20.3109 21.3361 20.1129 21.4743 20.0739 21.6431L19.7357 23.1037C19.6966 23.2725 19.8304 23.4106 20.0333 23.4106Z" fill="#78ACEA"/>
</g>
<path id="path194" d="M42.1553 23.4106H43.9087C44.1117 23.4106 44.3094 23.2725 44.3483 23.1037L44.6865 21.6431C44.7258 21.4743 44.5918 21.3361 44.3892 21.3361H42.6358C42.4332 21.3361 42.2355 21.4743 42.1962 21.6431L41.858 23.1037C41.819 23.2725 41.9527 23.4106 42.1553 23.4106Z" fill="#AFCDFB"/>
<path id="path196" d="M37.7315 23.4106H39.4849C39.6875 23.4106 39.8855 23.2725 39.9245 23.1037L40.2627 21.6431C40.302 21.4743 40.168 21.3361 39.9654 21.3361H38.212C38.0093 21.3361 37.8113 21.4743 37.7723 21.6431L37.4342 23.1037C37.3949 23.2725 37.5288 23.4106 37.7315 23.4106Z" fill="#FE1024"/>
<path id="path198" d="M33.3058 23.4106H35.0592C35.2618 23.4106 35.4598 23.2725 35.4988 23.1037L35.837 21.6431C35.876 21.4743 35.7423 21.3361 35.5397 21.3361H33.7863C33.5836 21.3361 33.3856 21.4743 33.3466 21.6431L33.0085 23.1037C32.9692 23.2725 33.1031 23.4106 33.3058 23.4106Z" fill="#AFCDFB"/>
<g id="g200">
<path id="path202" d="M15.6086 23.4106H17.3619C17.5646 23.4106 17.7628 23.2725 17.8016 23.1037L18.1396 21.6431C18.1789 21.4743 18.0449 21.3361 17.8426 21.3361H16.0889C15.8866 21.3361 15.6884 21.4743 15.6495 21.6431L15.3111 23.1037C15.2722 23.2725 15.4058 23.4106 15.6086 23.4106Z" fill="#78ACEA"/>
</g>
<g id="g204">
<path id="path206" d="M28.1478 26.5825H29.9011C30.1035 26.5825 30.3016 26.4444 30.3406 26.2756L30.6788 24.815C30.7178 24.6459 30.5838 24.5077 30.3814 24.5077H28.6278C28.4254 24.5077 28.2277 24.6459 28.1883 24.815L27.8501 26.2756C27.8111 26.4444 27.9448 26.5825 28.1478 26.5825Z" fill="#AFCDFB"/>
</g>
<g id="g208">
<path id="path210" d="M23.7224 26.5824H25.4758C25.6789 26.5824 25.8765 26.4443 25.9154 26.2755L26.2539 24.8149C26.2928 24.6458 26.1589 24.5077 25.9562 24.5077H24.2028C24.0004 24.5077 23.8025 24.6458 23.7632 24.8149L23.4251 26.2755C23.3861 26.4443 23.5197 26.5824 23.7224 26.5824Z" fill="#AFCDFB"/>
</g>
<g id="g212">
<path id="path214" d="M19.2983 26.5824H21.0514C21.2544 26.5824 21.4523 26.4443 21.4914 26.2755L21.8293 24.8149C21.8688 24.6458 21.7346 24.5076 21.5321 24.5076H19.7789C19.5759 24.5076 19.378 24.6458 19.3389 24.8149L19.001 26.2755C18.9619 26.4443 19.0957 26.5824 19.2983 26.5824Z" fill="#78ACEA"/>
</g>
<path id="path216" d="M41.4209 26.5825H43.1743C43.377 26.5825 43.575 26.4444 43.614 26.2756L43.9521 24.815C43.9914 24.6459 43.8575 24.5077 43.6548 24.5077H41.9014C41.6988 24.5077 41.5008 24.6459 41.4618 24.815L41.1236 26.2756C41.0843 26.4444 41.2183 26.5825 41.4209 26.5825Z" fill="#AFCDFB"/>
<path id="path218" d="M36.9962 26.5824H38.7496C38.9522 26.5824 39.1503 26.4443 39.1892 26.2755L39.5274 24.8149C39.5664 24.6458 39.4327 24.5076 39.2301 24.5076H37.4767C37.2738 24.5076 37.076 24.6458 37.0371 24.8149L36.6989 26.2755C36.6596 26.4443 36.7936 26.5824 36.9962 26.5824Z" fill="#AFCDFB"/>
<g id="g220">
<path id="path222" d="M32.5713 26.5825H34.3248C34.5273 26.5825 34.7252 26.4444 34.7645 26.2756L35.1026 24.815C35.1416 24.6459 35.0079 24.5077 34.805 24.5077H33.0515C32.8487 24.5077 32.6512 24.6459 32.6122 24.815L32.2737 26.2756C32.2347 26.4444 32.3688 26.5825 32.5713 26.5825Z" fill="#AFCDFB"/>
</g>
<path id="path224" d="M40.3201 11.7231H44.9652C45.0338 11.7231 45.0898 11.6765 45.0898 11.6195C45.0898 11.5626 45.0338 11.5159 44.9652 11.5159H40.3201C40.2518 11.5159 40.1958 11.5626 40.1958 11.6195C40.1958 11.6765 40.2518 11.7231 40.3201 11.7231Z" fill="#AFCDFB"/>
<path id="path226" d="M40.1785 12.1919H44.8239C44.8922 12.1919 44.9482 12.1452 44.9482 12.088C44.9482 12.0311 44.8922 11.9844 44.8239 11.9844H40.1785C40.1102 11.9844 40.0542 12.0311 40.0542 12.088C40.0542 12.1452 40.1102 12.1919 40.1785 12.1919Z" fill="#AFCDFB"/>
<path id="path228" d="M45.3015 8.23291H46.8955C47.0261 8.23291 47.1328 8.14373 47.1328 8.03497C47.1328 7.92646 47.0261 7.83728 46.8955 7.83728H45.3015C45.1709 7.83728 45.0642 7.92646 45.0642 8.03497C45.0642 8.14373 45.1709 8.23291 45.3015 8.23291Z" fill="white"/>
<path id="path230" d="M40.9281 8.23291H42.5221C42.6527 8.23291 42.7598 8.14373 42.7598 8.03497C42.7598 7.92646 42.6527 7.83728 42.5221 7.83728H40.9281C40.7976 7.83728 40.6908 7.92646 40.6908 8.03497C40.6908 8.14373 40.7976 8.23291 40.9281 8.23291Z" fill="white"/>
<path id="path232" d="M36.5531 8.23291H38.1471C38.2777 8.23291 38.3848 8.14373 38.3848 8.03497C38.3848 7.92646 38.2777 7.83728 38.1471 7.83728H36.5531C36.4226 7.83728 36.3158 7.92646 36.3158 8.03497C36.3158 8.14373 36.4226 8.23291 36.5531 8.23291Z" fill="white"/>
<g id="g234">
<path id="path236" d="M32.1805 8.23486H33.7744C33.9052 8.23486 34.0117 8.14588 34.0117 8.03717C34.0117 7.92847 33.9052 7.83949 33.7744 7.83949H32.1805C32.05 7.83949 31.9429 7.92847 31.9429 8.03717C31.9429 8.14588 32.05 8.23486 32.1805 8.23486Z" fill="white"/>
</g>
<g id="g238">
<path id="path240" d="M27.8057 8.23486H29.3996C29.5302 8.23486 29.6367 8.14582 29.6367 8.03705C29.6367 7.92828 29.5302 7.83923 29.3996 7.83923H27.8057C27.6751 7.83923 27.5682 7.92828 27.5682 8.03705C27.5682 8.14582 27.6751 8.23486 27.8057 8.23486Z" fill="white"/>
</g>
<g id="g242">
<path id="path244" d="M23.4319 8.23486H25.026C25.1567 8.23486 25.2637 8.14587 25.2637 8.03711C25.2637 7.92835 25.1567 7.83936 25.026 7.83936H23.4319C23.3012 7.83936 23.1946 7.92835 23.1946 8.03711C23.1946 8.14587 23.3012 8.23486 23.4319 8.23486Z" fill="white"/>
</g>
<g id="g246">
<path id="path248" d="M19.0587 8.23486H20.6531C20.7836 8.23486 20.8906 8.14586 20.8906 8.0371C20.8906 7.92832 20.7836 7.83935 20.6531 7.83935H19.0587C18.9282 7.83935 18.8216 7.92832 18.8216 8.0371C18.8216 8.14586 18.9282 8.23486 19.0587 8.23486Z" fill="white"/>
</g>
<g id="g250">
<path id="path252" d="M29.1397 13.5415C29.4912 13.5415 29.7479 13.4485 29.8874 13.2678C30.1553 12.9214 29.9488 12.4358 29.2728 11.8247C28.7794 11.3783 28.2031 11.0247 28.1974 11.0211C28.175 11.0072 28.143 11.0113 28.1261 11.0301C28.1096 11.0489 28.1146 11.0755 28.137 11.0894C28.1599 11.1033 30.3808 12.4732 29.802 13.2219C29.6187 13.459 29.2261 13.4747 28.9286 13.4462C28.3783 13.3931 27.6608 13.1462 27.009 12.7856C26.3347 12.4123 25.8592 11.992 25.7054 11.6317C25.6043 11.3956 25.6355 11.2283 25.7985 11.1345C26.0085 11.0133 26.4475 11.0131 26.9725 11.1343C27.4757 11.25 27.9818 11.4585 28.2937 11.6783C28.3151 11.6935 28.347 11.6912 28.3653 11.6734C28.3836 11.6556 28.3811 11.6288 28.3597 11.6136C28.0373 11.3863 27.5161 11.1714 26.9999 11.0525C26.4376 10.9229 25.9786 10.9275 25.7405 11.0647C25.5993 11.1461 25.4624 11.3154 25.6095 11.6603C25.7707 12.0374 26.2603 12.4732 26.9528 12.8562C27.6169 13.2237 28.3513 13.4758 28.9167 13.5302C28.9946 13.5376 29.0691 13.5415 29.1397 13.5415Z" fill="#FE1024"/>
</g>
</g>
</g>
</g>
</svg>
