<svg width="51" height="34" viewBox="0 0 51 34" fill="none" xmlns="http://www.w3.org/2000/svg">
<g id="3226130_43075 (1) 1" clip-path="url(#clip0_1_2916)">
<g id="g10">
<g id="g12">
<path id="path64" d="M23.903 14.3086C24.5344 13.4943 25.3276 11.4872 23.8101 9.71921C23.3822 9.22045 23.0074 8.84397 22.7062 8.54133C21.8233 7.6537 21.5858 7.4151 21.8462 6.08358C22.0133 5.22845 21.8952 4.60998 21.4948 4.24557C20.9567 3.75614 20.1886 3.97753 20.1028 4.0044L20.3588 4.84022C20.4541 4.81206 20.7684 4.75961 20.9172 4.89717C21.0673 5.03586 21.0964 5.40639 20.9973 5.914C20.647 7.70519 21.1617 8.22261 22.096 9.16172C22.4023 9.46951 22.7494 9.81832 23.1565 10.2926C24.5802 11.9516 23.2773 13.6966 23.2211 13.7701L23.903 14.3086Z" fill="#EBB044"/>
<path id="path66" d="M14.4817 13.4492L15.3457 13.4024C15.3432 13.3519 15.2714 12.1595 14.4984 11.4748C14.1015 11.1234 13.6055 10.9685 13.0227 11.0146C12.5796 11.0497 12.2551 10.9792 12.1089 10.8162C11.9556 10.6454 12.0005 10.3777 12.001 10.3749L11.1522 10.2037C11.1381 10.2734 11.026 10.8978 11.4562 11.3909C11.7949 11.779 12.3439 11.9459 13.0904 11.8868C13.4359 11.8596 13.7101 11.9399 13.928 12.1328C14.4217 12.5703 14.481 13.4405 14.4817 13.4492Z" fill="#EBB044"/>
<path id="path68" d="M27.5088 5.87336L27.055 5.12844C27.0126 5.15483 26.0107 5.78841 25.7852 6.80218C25.6695 7.3225 25.7721 7.83703 26.0908 8.33241C26.3328 8.70921 26.4267 9.031 26.3551 9.23871C26.2798 9.45655 26.0258 9.54472 26.0233 9.54552L26.2801 10.3809C26.3475 10.3603 26.9435 10.1612 27.1665 9.54359C27.3417 9.05738 27.2242 8.49008 26.8162 7.85553C26.6274 7.56175 26.566 7.27971 26.6296 6.99429C26.7737 6.34671 27.5015 5.87787 27.5088 5.87336Z" fill="#D34E4E"/>
<path id="path70" d="M27.4463 0.961871L27.5742 0.0966074C27.5247 0.0892065 26.355 -0.0789213 25.5363 0.549354C25.1161 0.871778 24.8666 1.33192 24.7943 1.91837C24.7394 2.36419 24.606 2.6715 24.4187 2.78364C24.2225 2.90109 23.9718 2.80294 23.9694 2.80197L23.6333 3.6082C23.6979 3.63619 24.2806 3.87238 24.8448 3.54529C25.2888 3.28786 25.5606 2.77736 25.6531 2.02632C25.6959 1.67864 25.8288 1.42315 26.0594 1.24617C26.5824 0.84491 27.4377 0.960744 27.4463 0.961871Z" fill="#EBB044"/>
<path id="path72" d="M35.5326 13.5356L34.786 13.9782C34.8113 14.0216 35.4163 15.0478 36.414 15.2976C36.926 15.4259 37.437 15.3332 37.9339 15.022C38.3117 14.7852 38.6321 14.6973 38.836 14.7743C39.0497 14.855 39.1313 15.1137 39.1321 15.1163L39.9639 14.8746C39.9449 14.8063 39.7609 14.1994 39.1549 13.9608C38.6779 13.7732 38.1142 13.8797 37.4779 14.2784C37.1833 14.4629 36.9031 14.5188 36.6222 14.4483C35.9848 14.2888 35.5369 13.5431 35.5326 13.5356Z" fill="#EBB044"/>
<path id="path74" d="M20.8242 13.6484L21.6572 13.411L21.0334 11.1735L20.2004 11.4109L20.8242 13.6484Z" fill="#D34E4E"/>
<path id="path76" d="M17.2442 11.459L17.7441 10.7446L15.8669 9.402L15.3671 10.1162L17.2442 11.459Z" fill="#EBB044"/>
<path id="path78" d="M20.4474 28.623L20.9473 27.9087L19.0701 26.5661L18.5702 27.2803L20.4474 28.623Z" fill="#EBB044"/>
<path id="path80" d="M0.811127 17.75L1.84863 15.6663L1.05288 15.2781L0.0153713 17.3619L0.811127 17.75Z" fill="#D34E4E"/>
<path id="path82" d="M43.0389 11.7598L44.8711 10.355L44.3481 9.6579L42.516 11.0626L43.0389 11.7598Z" fill="#D34E4E"/>
<path id="path84" d="M30.0837 10.332L31.4854 8.48904L30.7991 7.95568L29.3974 9.79884L30.0837 10.332Z" fill="#474EBB"/>
<path id="path86" d="M13.9678 18.8477L14.3838 18.0805L12.3675 16.9627L11.9515 17.7298L13.9678 18.8477Z" fill="#D34E4E"/>
<path id="path88" d="M14.6195 6.52344L15.4844 6.48853C15.4814 6.41049 15.3832 4.57072 13.1326 4.0068C12.2956 3.797 12.3136 3.62372 12.3531 3.24402C12.3867 2.92128 12.4373 2.43346 11.9603 2.06019L11.4306 2.75202C11.5105 2.81461 11.5234 2.85305 11.4924 3.15247C11.4263 3.78654 11.4773 4.49333 12.9243 4.85598C14.5513 5.26367 14.6191 6.51089 14.6195 6.52344Z" fill="#D34E4E"/>
<path id="path90" d="M1.30421 7.93945L2.07594 7.5435C1.86236 7.11473 1.75175 6.57077 1.85297 6.44592C1.88273 6.40891 2.06846 6.34278 2.56119 6.4797C2.90782 6.57607 3.40644 6.66779 3.73286 6.35405C4.10496 5.99671 3.97939 5.42136 3.83393 4.75544C3.65026 3.91495 3.42188 2.86885 4.07551 2.12843C4.42517 1.73248 4.80045 1.53652 5.22299 1.52912C6.1362 1.51335 6.97047 2.38344 6.97875 2.39229L7.60645 1.79008C7.5622 1.74293 6.50989 0.635213 5.21376 0.654198C4.54358 0.664174 3.94326 0.964232 3.42984 1.54585C2.4813 2.62027 2.7867 4.01873 2.98867 4.94401C3.04437 5.1987 3.11759 5.53367 3.11472 5.69617C3.05743 5.6944 2.95605 5.68201 2.79053 5.63599C2.03154 5.42506 1.49026 5.51146 1.18247 5.89277C0.6509 6.55097 1.19058 7.71308 1.30421 7.93945Z" fill="#474EBB"/>
<path id="path92" d="M37.0675 9.93945C37.0888 9.90164 37.5846 9.00146 37.176 8.13523C36.8716 7.48974 36.1759 7.07159 35.1082 6.89268C34.6649 6.81851 34.3748 6.69381 34.269 6.53212C34.1443 6.34163 34.2298 5.98526 34.3204 5.60813C34.4763 4.95717 34.7124 3.97349 33.6682 3.40555C33.0704 3.08023 32.1179 2.90743 30.9745 3.93037C30.3521 4.48721 29.9571 5.15587 29.9407 5.18402L30.6852 5.63017C30.6979 5.60861 31.9729 3.47698 33.2582 4.17589C33.6764 4.40355 33.653 4.67738 33.4793 5.40203C33.3551 5.91962 33.2144 6.50622 33.5472 7.01479C33.7961 7.39513 34.2604 7.6376 34.9667 7.75585C35.7249 7.88295 36.2179 8.14279 36.3927 8.50737C36.609 8.95866 36.3166 9.50408 36.3137 9.50955L37.0675 9.93945Z" fill="#474EBB"/>
<path id="path108" d="M24.4566 13.4793L32.3644 10.7957L31.0401 33.3047L16.5489 16.163L24.4566 13.4793Z" fill="#CBE140"/>
<path id="path136" d="M50.0765 26.9648L50.1758 26.6049C50.0933 26.7137 50.0082 26.8139 49.9207 26.9063L50.0765 26.9648Z" fill="#D39E3D"/>
<path id="path140" d="M32.1797 14.663L26.8276 12.6741L22.3432 14.1961L31.9313 18.1543L32.1797 14.663Z" fill="#6A73FA"/>
<path id="path142" d="M31.7969 20.1256L19.5037 15.1597L16.5434 16.1737L31.6291 22.5176L31.7969 20.1256Z" fill="#6A73FA"/>
<path id="path144" d="M31.546 24.7053L19.759 19.9602L24.8945 26.0349L31.2826 28.8378L31.546 24.7053Z" fill="#474EBB"/>
<path id="path146" d="M41.6759 20.5645L43.97 20.7266L44.0303 19.8537L41.7364 19.6919L41.6759 20.5645Z" fill="#D34E4E"/>
<path id="path148" d="M31.8924 18.8105L21.4091 14.5141L22.3194 14.2208L31.9346 18.1552L31.8924 18.8105Z" fill="#3B455A"/>
<path id="path150" d="M31.6289 22.5181L16.5431 16.1742L17.5876 17.3917L31.5678 23.3908L31.6289 22.5181Z" fill="#3B455A"/>
<path id="path152" d="M31.2822 28.8381L24.8941 26.0352C24.8941 26.0352 25.8973 27.2756 25.9093 27.2361C25.9212 27.1966 31.2192 29.5938 31.2192 29.5938L31.2822 28.8381Z" fill="#3B455A"/>
<path id="path154" d="M31.0938 32.4863L31.1895 30.8427L31.185 30.8359L31.0879 32.4854L31.0938 32.4863ZM31.3447 28.1222L31.3482 28.119L31.6504 22.925L31.5457 24.7055L31.5453 24.7107L31.3447 28.1222ZM20.403 20.7227L17.5817 17.3854L16.5428 16.1745L20.403 20.7227Z" fill="#E5E5E5"/>
<path id="path156" d="M31.19 30.8418L31.3486 28.1181L31.3451 28.1213L31.1855 30.835L31.19 30.8418Z" fill="#80AFB6"/>
<path id="path158" d="M31.0887 32.4844L31.1858 30.8349L31.3454 28.1212L31.5461 24.7097L31.283 28.837L31.22 29.5927C31.22 29.5927 26.3539 27.3911 25.9382 27.2424L30.2837 32.3624L31.0887 32.4844ZM31.5464 24.7045L31.6511 22.924L31.6543 22.8694C31.6377 22.8714 31.6209 22.8733 31.6043 22.8751L31.5682 23.3901L30.5286 22.9441C30.4525 22.9455 30.3766 22.9462 30.3007 22.9462C25.064 22.9455 20.3733 19.5802 18.0618 17.5942L17.588 17.391L17.5825 17.3844L20.4037 20.7217L20.4093 20.7283L19.7593 19.9594L31.5464 24.7045Z" fill="#CBE140"/>
<path id="path160" d="M31.0484 33.2656L31.0938 32.4866L31.0879 32.4856L30.2829 32.3637L31.0484 33.2656Z" fill="#D7AC94"/>
<path id="path162" d="M31.2826 28.8378L31.5457 24.7105L31.546 24.7053L19.759 19.9602L20.4089 20.7291L24.9229 26.0475L31.2826 28.8378Z" fill="#6A73FA"/>
<path id="path164" d="M31.5674 23.3906L31.6035 22.8756C31.2424 22.9155 30.8846 22.9379 30.5278 22.9446L31.5674 23.3906ZM18.061 17.5947C17.0937 16.7636 16.5427 16.1741 16.5427 16.1741L17.5817 17.3849L17.5872 17.3915L18.061 17.5947Z" fill="#353E51"/>
<path id="path166" d="M31.2192 29.5938L31.2822 28.8381L24.9225 26.0477L25.9375 27.2435C26.3532 27.3921 31.2192 29.5938 31.2192 29.5938Z" fill="#353E51"/>
<path id="path168" d="M36.4766 27.851L36.4519 26.2904L35.0518 25.9871L34.4517 27.0992L34.8518 27.5035L35.4518 26.6949L35.6762 27.4021L35.6896 28.5879L36.4766 27.851Z" fill="#474EBB"/>
</g>
</g>
</g>
<defs>
<clipPath id="clip0_1_2916">
<rect width="51" height="34" fill="white" transform="matrix(-1 0 0 1 51 0)"/>
</clipPath>
</defs>
</svg>
