<svg width="32" height="32" viewBox="0 0 32 32" fill="none" xmlns="http://www.w3.org/2000/svg">
<g id="12084803_20943958 1" clip-path="url(#clip0_1_2972)">
<g id="g8">
<g id="g10">
<g id="g14">
<g id="Clip path group">
<mask id="mask0_1_2972" style="mask-type:luminance" maskUnits="userSpaceOnUse" x="0" y="0" width="31" height="32">
<g id="clipPath20">
<path id="path18" d="M16.0204 31.2198C14.1384 31.2198 12.7007 30.9567 12.1274 30.8402C10.0479 30.4179 6.02818 29.6014 3.12204 26.1839C-1.27471 21.0134 -0.590072 12.8675 2.82034 7.49018C3.03775 7.14743 3.57985 6.26073 4.47711 5.21424C4.48612 5.30834 4.49794 5.40221 4.51243 5.49474C4.52155 5.55309 4.57191 5.59474 4.62918 5.59474C4.63117 5.59474 4.63319 5.59474 4.6352 5.59463C4.6393 5.5944 4.64345 5.59396 4.64759 5.59329C4.71216 5.58327 4.7563 5.52269 4.74619 5.45811C4.72657 5.33272 4.71207 5.20456 4.70316 5.07728C4.70097 5.04588 4.6867 5.01826 4.66523 4.99844C6.36891 3.07739 9.23253 0.721504 13.4368 0.17198C14.1015 0.0850143 14.785 0.0411415 15.4772 0.0411415C17.6732 0.0411415 19.9626 0.482542 22.0686 1.39374C22.2342 2.71616 22.3986 4.64713 22.2692 6.48333C20.0364 4.32888 16.9976 3.00334 13.6498 3.00334C13.5105 3.00334 13.3717 3.00557 13.2335 3.01013C13.0957 3.00568 12.9572 3.00334 12.8182 3.00334C5.96179 3.00334 0.403549 8.56161 0.403549 15.418C0.403549 22.2744 5.96179 27.8327 12.8182 27.8327C12.9576 27.8327 13.0964 27.8304 13.2347 27.8258C13.3725 27.8304 13.5108 27.8326 13.6498 27.8326C17.7856 27.8326 21.4494 25.81 23.7055 22.7002C23.892 23.7541 24.2896 24.6765 24.9389 25.3783C24.9389 25.3783 29.0936 23.9955 30.9037 18.8851C30.4783 22.0611 29.2781 24.9392 27.4781 26.8342C26.8408 27.5051 26.238 27.9377 25.7615 28.2796C22.4417 30.6615 18.7605 31.2198 16.0204 31.2198ZM11.4496 0.629192C11.4084 0.629192 11.3683 0.650795 11.3466 0.689213C11.3143 0.746002 11.3342 0.818272 11.3911 0.850452C11.4444 0.880852 11.4978 0.912474 11.5496 0.944767C11.5689 0.956793 11.5905 0.962584 11.6119 0.962584C11.6139 0.962584 11.6159 0.962471 11.6179 0.962471C11.6553 0.960468 11.6912 0.940981 11.7125 0.906796C11.747 0.851341 11.7301 0.778294 11.6745 0.743774C11.62 0.709925 11.5639 0.676517 11.5078 0.644783C11.4894 0.634203 11.4693 0.629192 11.4496 0.629192ZM27.3555 10.8073C26.8888 8.35483 25.741 5.46356 23.5169 2.11308C24.2627 2.53477 24.974 3.02238 25.6363 3.57736C26.8449 4.58989 27.8359 5.77668 28.6249 7.07383C28.3188 8.31341 27.9047 9.64496 27.3555 10.8073Z" fill="white"/>
</g>
</mask>
<g mask="url(#mask0_1_2972)">
<g id="g16">
<path id="path28" d="M16.0204 31.2198C14.1384 31.2198 12.7007 30.9567 12.1274 30.8402C10.0479 30.4179 6.02818 29.6014 3.12204 26.1839C-1.27471 21.0134 -0.590072 12.8675 2.82034 7.49018C3.03775 7.14743 3.57985 6.26073 4.47711 5.21424C4.48612 5.30834 4.49794 5.40221 4.51243 5.49474C4.52155 5.55309 4.57191 5.59474 4.62918 5.59474C4.63117 5.59474 4.63319 5.59474 4.6352 5.59463C4.6393 5.5944 4.64345 5.59396 4.64759 5.59329C4.71216 5.58327 4.7563 5.52269 4.74619 5.45811C4.72657 5.33272 4.71207 5.20456 4.70316 5.07728C4.70097 5.04588 4.6867 5.01826 4.66523 4.99844C6.36891 3.07739 9.23253 0.721504 13.4368 0.17198C14.1015 0.0850143 14.785 0.0411415 15.4772 0.0411415C17.6732 0.0411415 19.9626 0.482542 22.0686 1.39374C22.2342 2.71616 22.3986 4.64713 22.2692 6.48333C20.0364 4.32888 16.9976 3.00334 13.6498 3.00334C13.5105 3.00334 13.3717 3.00557 13.2335 3.01013C13.0957 3.00568 12.9572 3.00334 12.8182 3.00334C5.96179 3.00334 0.403549 8.56161 0.403549 15.418C0.403549 22.2744 5.96179 27.8327 12.8182 27.8327C12.9576 27.8327 13.0964 27.8304 13.2347 27.8258C13.3725 27.8304 13.5108 27.8326 13.6498 27.8326C17.7856 27.8326 21.4494 25.81 23.7055 22.7002C23.892 23.7541 24.2896 24.6765 24.9389 25.3783C24.9389 25.3783 29.0936 23.9955 30.9037 18.8851C30.4783 22.0611 29.2781 24.9392 27.4781 26.8342C26.8408 27.5051 26.238 27.9377 25.7615 28.2796C22.4417 30.6615 18.7605 31.2198 16.0204 31.2198ZM11.4496 0.629192C11.4084 0.629192 11.3683 0.650795 11.3466 0.689213C11.3143 0.746002 11.3342 0.818272 11.3911 0.850452C11.4444 0.880852 11.4978 0.912474 11.5496 0.944767C11.5689 0.956793 11.5905 0.962584 11.6119 0.962584C11.6139 0.962584 11.6159 0.962471 11.6179 0.962471C11.6553 0.960468 11.6912 0.940981 11.7125 0.906796C11.747 0.851341 11.7301 0.778294 11.6745 0.743774C11.62 0.709925 11.5639 0.676517 11.5078 0.644783C11.4894 0.634203 11.4693 0.629192 11.4496 0.629192ZM27.3555 10.8073C26.8888 8.35483 25.741 5.46356 23.5169 2.11308C24.2627 2.53477 24.974 3.02238 25.6363 3.57736C26.8449 4.58989 27.8359 5.77668 28.6249 7.07383C28.3188 8.31341 27.9047 9.64496 27.3555 10.8073Z" fill="url(#paint0_linear_1_2972)"/>
</g>
</g>
</g>
</g>
<path id="path30" d="M29.6356 3.43748C29.5744 3.27079 29.3299 3.29695 29.3061 3.47289C29.0764 5.1738 28.3342 9.61532 26.591 12.1614C23.7526 16.3068 22.3576 22.588 24.9389 25.378C24.9389 25.378 36.2969 21.5987 29.6356 3.43748Z" fill="#BDD0FB"/>
<path id="path32" d="M25.4461 23.4025C25.4408 23.4025 25.4353 23.4011 25.4305 23.3981C25.4167 23.3897 25.4123 23.3719 25.4201 23.3579L25.4203 23.3576C25.7912 22.6974 26.1261 22.0185 26.4269 21.3246C26.7297 20.6315 26.9919 19.9212 27.2353 19.2054C27.4783 18.4891 27.6925 17.7632 27.8901 17.0331C28.0874 16.3025 28.2544 15.5642 28.4174 14.8253C28.7368 13.3454 28.9771 11.8491 29.1761 10.3477C29.274 9.59675 29.3567 8.84367 29.4262 8.08926C29.4615 7.71211 29.4932 7.33463 29.5204 6.95681L29.5567 6.38991L29.572 6.10629L29.578 5.96465C29.5792 5.91822 29.5813 5.86833 29.5808 5.82758L29.5807 5.8209C29.5803 5.80453 29.5935 5.79106 29.6098 5.79072C29.6099 5.79072 29.6102 5.79072 29.6103 5.79072C29.626 5.79072 29.6389 5.80308 29.6399 5.81856C29.6432 5.87268 29.6417 5.91755 29.6422 5.96588L29.6405 6.10852L29.6339 6.39325C29.6282 6.58299 29.6196 6.77263 29.6111 6.96226C29.5925 7.34142 29.5692 7.72024 29.5423 8.09895C29.4875 8.85615 29.4121 9.61178 29.3253 10.3661C29.2396 11.1206 29.1328 11.8728 29.0101 12.6223C28.8868 13.3717 28.7527 14.1197 28.5943 14.8628C28.2802 16.3495 27.8849 17.8205 27.3873 19.2576C27.131 19.9735 26.8559 20.6829 26.5401 21.375C26.2196 22.0644 25.8695 22.7406 25.4716 23.3882C25.4661 23.3974 25.4562 23.4025 25.4461 23.4025Z" fill="#D9E4FD"/>
<path id="path34" d="M22.2213 0.275761C22.1198 0.139576 21.9026 0.230215 21.9289 0.398136C22.1822 2.02065 22.7132 6.29614 21.8092 9.10657C20.3372 13.6825 20.7713 19.8232 23.8997 21.6777C23.8997 21.6777 33.2845 15.1134 22.2213 0.275761Z" fill="#91B3FA"/>
<path id="path36" d="M24.1436 8.78152C24.0758 8.67451 24.0065 8.56862 23.9355 8.46395C23.8595 7.88747 23.7747 7.31212 23.6836 6.73787C23.5687 6.02243 23.4392 5.30922 23.2973 4.59845C23.2268 4.24302 23.1531 3.88814 23.075 3.53426L22.9537 3.00444L22.8904 2.7402L22.8573 2.60858C22.8458 2.56571 22.8341 2.51928 22.8226 2.48231L22.8206 2.47608C22.8158 2.46082 22.8242 2.44456 22.8395 2.43977C22.8424 2.43888 22.8453 2.43844 22.8481 2.43844C22.86 2.43844 22.871 2.4459 22.8752 2.45748C22.8932 2.50625 22.904 2.54779 22.9177 2.592L22.955 2.72317L23.0267 2.98607C23.0733 3.16167 23.1172 3.33795 23.1611 3.5141C23.2476 3.86687 23.3297 4.22064 23.4085 4.57518C23.5648 5.28461 23.7019 5.99804 23.8282 6.7136C23.9504 7.40008 24.0541 8.08991 24.1436 8.78152Z" fill="#C0D4FC"/>
<g id="g38">
<g id="Clip path group_2">
<mask id="mask1_1_2972" style="mask-type:luminance" maskUnits="userSpaceOnUse" x="0" y="3" width="14" height="25">
<g id="clipPath44">
<path id="path42" d="M12.8182 27.8331C5.9618 27.8331 0.403564 22.2748 0.403564 15.4184C0.403564 8.56201 5.9618 3.00374 12.8182 3.00374C12.9572 3.00374 13.0957 3.00608 13.2336 3.01054C6.56989 3.23023 1.23511 8.70131 1.23511 15.4184C1.23511 22.1359 6.57044 27.6073 13.2347 27.8262C13.0964 27.8308 12.9576 27.8331 12.8182 27.8331ZM1.92272 10.2913C1.89946 10.2913 1.8766 10.3023 1.86238 10.3228C1.8395 10.3561 1.84794 10.4017 1.88115 10.4245C1.93179 10.4593 1.98457 10.4935 2.03811 10.5258C2.04993 10.533 2.06298 10.5364 2.07587 10.5364C2.0771 10.5364 2.07834 10.5364 2.07958 10.5363C2.10299 10.5351 2.12539 10.5227 2.13845 10.5011C2.15934 10.4667 2.14829 10.4217 2.11376 10.4008C2.06269 10.3699 2.01231 10.3374 1.96404 10.3041C1.95139 10.2954 1.93699 10.2913 1.92272 10.2913Z" fill="white"/>
</g>
</mask>
<g mask="url(#mask1_1_2972)">
<g id="g40">
<path id="path52" d="M12.8182 27.8331C5.9618 27.8331 0.403564 22.2748 0.403564 15.4184C0.403564 8.56201 5.9618 3.00374 12.8182 3.00374C12.9572 3.00374 13.0957 3.00608 13.2336 3.01054C6.56989 3.23023 1.23511 8.70131 1.23511 15.4184C1.23511 22.1359 6.57044 27.6073 13.2347 27.8262C13.0964 27.8308 12.9576 27.8331 12.8182 27.8331ZM1.92272 10.2913C1.89946 10.2913 1.8766 10.3023 1.86238 10.3228C1.8395 10.3561 1.84794 10.4017 1.88115 10.4245C1.93179 10.4593 1.98457 10.4935 2.03811 10.5258C2.04993 10.533 2.06298 10.5364 2.07587 10.5364C2.0771 10.5364 2.07834 10.5364 2.07958 10.5363C2.10299 10.5351 2.12539 10.5227 2.13845 10.5011C2.15934 10.4667 2.14829 10.4217 2.11376 10.4008C2.06269 10.3699 2.01231 10.3374 1.96404 10.3041C1.95139 10.2954 1.93699 10.2913 1.92272 10.2913Z" fill="url(#paint1_linear_1_2972)"/>
</g>
</g>
</g>
</g>
<path id="path54" d="M26.0645 15.4176C26.0645 22.274 20.5062 27.8321 13.6498 27.8321C6.79337 27.8321 1.23511 22.274 1.23511 15.4176C1.23511 8.56115 6.79337 3.00287 13.6498 3.00287C20.5062 3.00287 26.0645 8.56115 26.0645 15.4176Z" fill="white"/>
<g id="g56">
<g id="Clip path group_3">
<mask id="mask2_1_2972" style="mask-type:luminance" maskUnits="userSpaceOnUse" x="3" y="4" width="22" height="23">
<g id="clipPath62">
<path id="path60" d="M13.6497 26.0138C7.8074 26.0138 3.05432 21.2607 3.05432 15.4184C3.05432 13.8258 3.40745 12.3143 4.03957 10.9578C4.11123 10.9494 4.18259 10.9385 4.25303 10.9254C4.29267 10.9179 4.31884 10.8799 4.31142 10.8401C4.30482 10.8048 4.27374 10.7807 4.23917 10.7807C4.23487 10.7807 4.2305 10.781 4.22614 10.7818C4.18916 10.7887 4.1519 10.7949 4.11447 10.8005C5.83325 7.26536 9.46121 4.82329 13.649 4.82285C13.6493 4.82285 13.6494 4.82285 13.6497 4.82285C13.6569 4.82285 13.6634 4.82285 13.6706 4.82296C13.6795 4.87886 13.7277 4.92195 13.7863 4.92262C13.7866 4.92262 13.7868 4.92262 13.7871 4.92262C13.7893 4.92262 13.7915 4.92251 13.7936 4.9224C13.8487 4.91961 13.894 4.87908 13.9037 4.82585C19.6294 4.96126 24.2451 9.66078 24.2451 15.4184C24.2451 21.2607 19.4921 26.0138 13.6497 26.0138ZM10.204 9.33786C8.08912 10.5411 6.65958 12.816 6.65958 15.4184C6.65958 19.2727 9.79538 22.4085 13.6497 22.4085C17.5041 22.4085 20.6399 19.2727 20.6399 15.4184C20.6399 11.5639 17.5041 8.42822 13.6497 8.42822C12.9647 8.42822 12.3021 8.52732 11.6761 8.71183C11.6773 8.689 11.6719 8.66551 11.6592 8.64446C11.637 8.60761 11.598 8.58723 11.5579 8.58723C11.537 8.58723 11.5159 8.5928 11.4968 8.60427C11.3894 8.66907 11.2783 8.72998 11.1662 8.78533C11.1189 8.80871 11.0941 8.85949 11.1015 8.90893C10.9782 8.95748 10.8562 9.00948 10.7363 9.0646C10.7144 9.03175 10.6772 9.01204 10.6379 9.01204C10.6254 9.01204 10.6128 9.01404 10.6005 9.01816C10.4815 9.0578 10.3596 9.09277 10.2381 9.12206C10.1746 9.13742 10.1356 9.20134 10.1509 9.26481C10.1586 9.29655 10.1783 9.32215 10.204 9.33786ZM4.95081 10.5548C4.94065 10.5548 4.93031 10.5569 4.92043 10.5614C4.81034 10.6118 4.69581 10.656 4.57997 10.6929C4.54151 10.7052 4.52028 10.7462 4.53249 10.7847C4.54239 10.8157 4.57115 10.8355 4.60213 10.8355C4.60336 10.8355 4.60458 10.8355 4.60582 10.8355C4.61194 10.8352 4.61814 10.8341 4.62429 10.8321C4.74571 10.7935 4.86581 10.7471 4.98124 10.6944C5.01793 10.6775 5.03408 10.6341 5.01726 10.5975C5.00499 10.5705 4.97856 10.5548 4.95081 10.5548ZM5.5863 10.1643C5.57036 10.1643 5.55431 10.1695 5.54086 10.1802C5.44594 10.2558 5.34541 10.3262 5.24207 10.3897C5.20771 10.4107 5.19693 10.4557 5.21809 10.4902C5.23184 10.5126 5.25585 10.525 5.28041 10.525C5.28165 10.525 5.28289 10.525 5.28412 10.5249C5.29592 10.5243 5.30778 10.5209 5.31859 10.5143C5.42692 10.4477 5.53229 10.3738 5.63186 10.2946C5.66344 10.2695 5.66867 10.2236 5.64356 10.1919C5.62912 10.1738 5.60782 10.1643 5.5863 10.1643ZM6.11041 9.63305C6.08855 9.63305 6.06692 9.64285 6.05251 9.66156C5.97848 9.75732 5.89766 9.84986 5.81234 9.93637C5.78402 9.96511 5.78436 10.0114 5.8131 10.0397C5.82733 10.0537 5.84584 10.0608 5.86439 10.0608C5.86565 10.0608 5.86691 10.0608 5.86815 10.0606C5.88576 10.0598 5.90311 10.0525 5.91645 10.039C6.00586 9.94829 6.09055 9.8513 6.16817 9.75075C6.19284 9.7189 6.18697 9.67303 6.15502 9.64831C6.14174 9.63806 6.12601 9.63305 6.11041 9.63305ZM9.64628 9.22416C9.64238 9.22416 9.63848 9.22428 9.63447 9.22472C9.51076 9.23719 9.38449 9.24443 9.25788 9.24666C9.19285 9.24755 9.14052 9.30167 9.14163 9.36703C9.14274 9.43162 9.19552 9.48328 9.26 9.48328C9.26066 9.48328 9.26133 9.48328 9.262 9.48328C9.3169 9.48228 9.37146 9.4805 9.4258 9.47771C9.50341 9.47371 9.58158 9.46792 9.65808 9.46012C9.72311 9.45366 9.77055 9.39565 9.76409 9.33062C9.75796 9.2696 9.70652 9.22416 9.64628 9.22416ZM6.49188 8.99133C6.46375 8.99133 6.43695 9.0077 6.42489 9.03498C6.37612 9.14588 6.31989 9.25501 6.25772 9.35946C6.2371 9.3942 6.24849 9.43908 6.2832 9.45968C6.29489 9.46669 6.30773 9.46992 6.32041 9.46992C6.32168 9.46992 6.32294 9.46992 6.3242 9.46981C6.34777 9.46858 6.37036 9.456 6.38336 9.43429C6.4485 9.32472 6.50747 9.21013 6.5587 9.09388C6.57495 9.05691 6.55814 9.01382 6.52117 8.99756C6.51159 8.99333 6.50168 8.99133 6.49188 8.99133ZM8.24958 9.15301C8.1948 9.15301 8.14547 9.19176 8.134 9.24766C8.12086 9.31158 8.16217 9.37416 8.22609 9.3873C8.35515 9.4138 8.48699 9.43507 8.61805 9.45066C8.62284 9.45121 8.62751 9.45144 8.63219 9.45144C8.6342 9.45144 8.6362 9.45144 8.6382 9.45132C8.69477 9.44843 8.74265 9.40523 8.74956 9.3471C8.75724 9.28229 8.71092 9.22339 8.646 9.2157C8.52151 9.20089 8.39623 9.18063 8.27364 9.15557C8.26562 9.1539 8.2576 9.15301 8.24958 9.15301ZM7.28505 8.84044C7.24006 8.84044 7.19697 8.86639 7.17726 8.91015C7.15031 8.96961 7.17681 9.03977 7.23639 9.0666C7.35643 9.12083 7.48047 9.17072 7.60474 9.2147C7.61777 9.21926 7.63113 9.22149 7.64427 9.22149C7.64628 9.22149 7.64817 9.22138 7.65017 9.22127C7.69661 9.21893 7.73925 9.18909 7.75573 9.14254C7.77745 9.08097 7.74527 9.01337 7.68358 8.99155C7.56555 8.94979 7.44785 8.90258 7.33382 8.85102C7.3179 8.8439 7.30142 8.84044 7.28505 8.84044ZM6.57083 8.43724C6.53331 8.43724 6.49623 8.45517 6.47331 8.48857C6.43627 8.54235 6.44986 8.61607 6.50369 8.65304C6.55703 8.68979 6.61148 8.72564 6.66571 8.75982C6.6853 8.77207 6.70702 8.77798 6.72862 8.77798C6.73062 8.77798 6.73263 8.77786 6.73463 8.77775C6.77182 8.77586 6.80757 8.75648 6.82884 8.72263C6.86369 8.66729 6.84699 8.59424 6.79176 8.5595C6.74031 8.5271 6.68853 8.49302 6.63787 8.45817C6.61738 8.44403 6.59399 8.43724 6.57083 8.43724ZM12.3632 7.97134C12.3338 7.97134 12.3044 7.98225 12.2815 8.00419C12.191 8.0906 12.0957 8.17433 11.9983 8.25306C11.9474 8.29404 11.9395 8.36853 11.9804 8.41942C12.0038 8.44837 12.0381 8.46341 12.0726 8.46341C12.0747 8.46341 12.0767 8.46329 12.0787 8.46318C12.1027 8.46196 12.1267 8.45338 12.1468 8.43712C12.2495 8.35428 12.3497 8.2662 12.445 8.17522C12.4922 8.13002 12.4939 8.05519 12.4488 8.00797C12.4255 7.98359 12.3943 7.97134 12.3632 7.97134ZM13.0155 7.19454C12.9773 7.19454 12.9398 7.21303 12.917 7.24721C12.8476 7.35122 12.7727 7.45377 12.6947 7.55187C12.654 7.60298 12.6625 7.67748 12.7136 7.71812C12.7353 7.73538 12.7614 7.74384 12.7872 7.74384C12.7892 7.74384 12.7912 7.74384 12.7932 7.74373C12.8259 7.74206 12.8578 7.72681 12.8798 7.69919C12.962 7.59597 13.0407 7.48807 13.1138 7.37861C13.1501 7.32427 13.1354 7.25077 13.0811 7.21447C13.0609 7.201 13.0381 7.19454 13.0155 7.19454ZM13.482 6.29392C13.4346 6.29392 13.3896 6.32276 13.3716 6.36975C13.3267 6.48656 13.2761 6.60293 13.2215 6.71573C13.193 6.77452 13.2175 6.84523 13.2763 6.87374C13.2928 6.88186 13.3104 6.88565 13.3278 6.88565C13.3298 6.88565 13.3318 6.88565 13.3338 6.88554C13.3755 6.88342 13.4148 6.85915 13.4343 6.81895C13.4919 6.70025 13.5452 6.57765 13.5924 6.45472C13.6159 6.3937 13.5855 6.32521 13.5245 6.30183C13.5105 6.29648 13.4962 6.29392 13.482 6.29392ZM13.7388 5.31257C13.6811 5.31257 13.6304 5.35489 13.6218 5.41379C13.6037 5.53773 13.58 5.66233 13.5516 5.78415C13.5368 5.84773 13.5764 5.91132 13.6399 5.92624C13.6491 5.92835 13.6581 5.92936 13.667 5.92936C13.669 5.92936 13.671 5.92936 13.6729 5.92924C13.7242 5.92657 13.7698 5.89038 13.782 5.83794C13.812 5.70977 13.8368 5.5786 13.856 5.44798C13.8654 5.3834 13.8207 5.32327 13.756 5.3138C13.7502 5.31302 13.7445 5.31257 13.7388 5.31257ZM13.6497 21.3472C10.3805 21.3472 7.72088 18.6875 7.72088 15.4184C7.72088 12.1492 10.3805 9.48952 13.6497 9.48952C16.9189 9.48952 19.5785 12.1492 19.5785 15.4184C19.5785 18.6875 16.9189 21.3472 13.6497 21.3472Z" fill="white"/>
</g>
</mask>
<g mask="url(#mask2_1_2972)">
<g id="g58">
<path id="path70" d="M13.6497 26.0138C7.8074 26.0138 3.05432 21.2607 3.05432 15.4184C3.05432 13.8258 3.40745 12.3143 4.03957 10.9578C4.11123 10.9494 4.18259 10.9385 4.25303 10.9254C4.29267 10.9179 4.31884 10.8799 4.31142 10.8401C4.30482 10.8048 4.27374 10.7807 4.23917 10.7807C4.23487 10.7807 4.2305 10.781 4.22614 10.7818C4.18916 10.7887 4.1519 10.7949 4.11447 10.8005C5.83325 7.26536 9.46121 4.82329 13.649 4.82285C13.6493 4.82285 13.6494 4.82285 13.6497 4.82285C13.6569 4.82285 13.6634 4.82285 13.6706 4.82296C13.6795 4.87886 13.7277 4.92195 13.7863 4.92262C13.7866 4.92262 13.7868 4.92262 13.7871 4.92262C13.7893 4.92262 13.7915 4.92251 13.7936 4.9224C13.8487 4.91961 13.894 4.87908 13.9037 4.82585C19.6294 4.96126 24.2451 9.66078 24.2451 15.4184C24.2451 21.2607 19.4921 26.0138 13.6497 26.0138ZM10.204 9.33786C8.08912 10.5411 6.65958 12.816 6.65958 15.4184C6.65958 19.2727 9.79538 22.4085 13.6497 22.4085C17.5041 22.4085 20.6399 19.2727 20.6399 15.4184C20.6399 11.5639 17.5041 8.42822 13.6497 8.42822C12.9647 8.42822 12.3021 8.52732 11.6761 8.71183C11.6773 8.689 11.6719 8.66551 11.6592 8.64446C11.637 8.60761 11.598 8.58723 11.5579 8.58723C11.537 8.58723 11.5159 8.5928 11.4968 8.60427C11.3894 8.66907 11.2783 8.72998 11.1662 8.78533C11.1189 8.80871 11.0941 8.85949 11.1015 8.90893C10.9782 8.95748 10.8562 9.00948 10.7363 9.0646C10.7144 9.03175 10.6772 9.01204 10.6379 9.01204C10.6254 9.01204 10.6128 9.01404 10.6005 9.01816C10.4815 9.0578 10.3596 9.09277 10.2381 9.12206C10.1746 9.13742 10.1356 9.20134 10.1509 9.26481C10.1586 9.29655 10.1783 9.32215 10.204 9.33786ZM4.95081 10.5548C4.94065 10.5548 4.93031 10.5569 4.92043 10.5614C4.81034 10.6118 4.69581 10.656 4.57997 10.6929C4.54151 10.7052 4.52028 10.7462 4.53249 10.7847C4.54239 10.8157 4.57115 10.8355 4.60213 10.8355C4.60336 10.8355 4.60458 10.8355 4.60582 10.8355C4.61194 10.8352 4.61814 10.8341 4.62429 10.8321C4.74571 10.7935 4.86581 10.7471 4.98124 10.6944C5.01793 10.6775 5.03408 10.6341 5.01726 10.5975C5.00499 10.5705 4.97856 10.5548 4.95081 10.5548ZM5.5863 10.1643C5.57036 10.1643 5.55431 10.1695 5.54086 10.1802C5.44594 10.2558 5.34541 10.3262 5.24207 10.3897C5.20771 10.4107 5.19693 10.4557 5.21809 10.4902C5.23184 10.5126 5.25585 10.525 5.28041 10.525C5.28165 10.525 5.28289 10.525 5.28412 10.5249C5.29592 10.5243 5.30778 10.5209 5.31859 10.5143C5.42692 10.4477 5.53229 10.3738 5.63186 10.2946C5.66344 10.2695 5.66867 10.2236 5.64356 10.1919C5.62912 10.1738 5.60782 10.1643 5.5863 10.1643ZM6.11041 9.63305C6.08855 9.63305 6.06692 9.64285 6.05251 9.66156C5.97848 9.75732 5.89766 9.84986 5.81234 9.93637C5.78402 9.96511 5.78436 10.0114 5.8131 10.0397C5.82733 10.0537 5.84584 10.0608 5.86439 10.0608C5.86565 10.0608 5.86691 10.0608 5.86815 10.0606C5.88576 10.0598 5.90311 10.0525 5.91645 10.039C6.00586 9.94829 6.09055 9.8513 6.16817 9.75075C6.19284 9.7189 6.18697 9.67303 6.15502 9.64831C6.14174 9.63806 6.12601 9.63305 6.11041 9.63305ZM9.64628 9.22416C9.64238 9.22416 9.63848 9.22428 9.63447 9.22472C9.51076 9.23719 9.38449 9.24443 9.25788 9.24666C9.19285 9.24755 9.14052 9.30167 9.14163 9.36703C9.14274 9.43162 9.19552 9.48328 9.26 9.48328C9.26066 9.48328 9.26133 9.48328 9.262 9.48328C9.3169 9.48228 9.37146 9.4805 9.4258 9.47771C9.50341 9.47371 9.58158 9.46792 9.65808 9.46012C9.72311 9.45366 9.77055 9.39565 9.76409 9.33062C9.75796 9.2696 9.70652 9.22416 9.64628 9.22416ZM6.49188 8.99133C6.46375 8.99133 6.43695 9.0077 6.42489 9.03498C6.37612 9.14588 6.31989 9.25501 6.25772 9.35946C6.2371 9.3942 6.24849 9.43908 6.2832 9.45968C6.29489 9.46669 6.30773 9.46992 6.32041 9.46992C6.32168 9.46992 6.32294 9.46992 6.3242 9.46981C6.34777 9.46858 6.37036 9.456 6.38336 9.43429C6.4485 9.32472 6.50747 9.21013 6.5587 9.09388C6.57495 9.05691 6.55814 9.01382 6.52117 8.99756C6.51159 8.99333 6.50168 8.99133 6.49188 8.99133ZM8.24958 9.15301C8.1948 9.15301 8.14547 9.19176 8.134 9.24766C8.12086 9.31158 8.16217 9.37416 8.22609 9.3873C8.35515 9.4138 8.48699 9.43507 8.61805 9.45066C8.62284 9.45121 8.62751 9.45144 8.63219 9.45144C8.6342 9.45144 8.6362 9.45144 8.6382 9.45132C8.69477 9.44843 8.74265 9.40523 8.74956 9.3471C8.75724 9.28229 8.71092 9.22339 8.646 9.2157C8.52151 9.20089 8.39623 9.18063 8.27364 9.15557C8.26562 9.1539 8.2576 9.15301 8.24958 9.15301ZM7.28505 8.84044C7.24006 8.84044 7.19697 8.86639 7.17726 8.91015C7.15031 8.96961 7.17681 9.03977 7.23639 9.0666C7.35643 9.12083 7.48047 9.17072 7.60474 9.2147C7.61777 9.21926 7.63113 9.22149 7.64427 9.22149C7.64628 9.22149 7.64817 9.22138 7.65017 9.22127C7.69661 9.21893 7.73925 9.18909 7.75573 9.14254C7.77745 9.08097 7.74527 9.01337 7.68358 8.99155C7.56555 8.94979 7.44785 8.90258 7.33382 8.85102C7.3179 8.8439 7.30142 8.84044 7.28505 8.84044ZM6.57083 8.43724C6.53331 8.43724 6.49623 8.45517 6.47331 8.48857C6.43627 8.54235 6.44986 8.61607 6.50369 8.65304C6.55703 8.68979 6.61148 8.72564 6.66571 8.75982C6.6853 8.77207 6.70702 8.77798 6.72862 8.77798C6.73062 8.77798 6.73263 8.77786 6.73463 8.77775C6.77182 8.77586 6.80757 8.75648 6.82884 8.72263C6.86369 8.66729 6.84699 8.59424 6.79176 8.5595C6.74031 8.5271 6.68853 8.49302 6.63787 8.45817C6.61738 8.44403 6.59399 8.43724 6.57083 8.43724ZM12.3632 7.97134C12.3338 7.97134 12.3044 7.98225 12.2815 8.00419C12.191 8.0906 12.0957 8.17433 11.9983 8.25306C11.9474 8.29404 11.9395 8.36853 11.9804 8.41942C12.0038 8.44837 12.0381 8.46341 12.0726 8.46341C12.0747 8.46341 12.0767 8.46329 12.0787 8.46318C12.1027 8.46196 12.1267 8.45338 12.1468 8.43712C12.2495 8.35428 12.3497 8.2662 12.445 8.17522C12.4922 8.13002 12.4939 8.05519 12.4488 8.00797C12.4255 7.98359 12.3943 7.97134 12.3632 7.97134ZM13.0155 7.19454C12.9773 7.19454 12.9398 7.21303 12.917 7.24721C12.8476 7.35122 12.7727 7.45377 12.6947 7.55187C12.654 7.60298 12.6625 7.67748 12.7136 7.71812C12.7353 7.73538 12.7614 7.74384 12.7872 7.74384C12.7892 7.74384 12.7912 7.74384 12.7932 7.74373C12.8259 7.74206 12.8578 7.72681 12.8798 7.69919C12.962 7.59597 13.0407 7.48807 13.1138 7.37861C13.1501 7.32427 13.1354 7.25077 13.0811 7.21447C13.0609 7.201 13.0381 7.19454 13.0155 7.19454ZM13.482 6.29392C13.4346 6.29392 13.3896 6.32276 13.3716 6.36975C13.3267 6.48656 13.2761 6.60293 13.2215 6.71573C13.193 6.77452 13.2175 6.84523 13.2763 6.87374C13.2928 6.88186 13.3104 6.88565 13.3278 6.88565C13.3298 6.88565 13.3318 6.88565 13.3338 6.88554C13.3755 6.88342 13.4148 6.85915 13.4343 6.81895C13.4919 6.70025 13.5452 6.57765 13.5924 6.45472C13.6159 6.3937 13.5855 6.32521 13.5245 6.30183C13.5105 6.29648 13.4962 6.29392 13.482 6.29392ZM13.7388 5.31257C13.6811 5.31257 13.6304 5.35489 13.6218 5.41379C13.6037 5.53773 13.58 5.66233 13.5516 5.78415C13.5368 5.84773 13.5764 5.91132 13.6399 5.92624C13.6491 5.92835 13.6581 5.92936 13.667 5.92936C13.669 5.92936 13.671 5.92936 13.6729 5.92924C13.7242 5.92657 13.7698 5.89038 13.782 5.83794C13.812 5.70977 13.8368 5.5786 13.856 5.44798C13.8654 5.3834 13.8207 5.32327 13.756 5.3138C13.7502 5.31302 13.7445 5.31257 13.7388 5.31257ZM13.6497 21.3472C10.3805 21.3472 7.72088 18.6875 7.72088 15.4184C7.72088 12.1492 10.3805 9.48952 13.6497 9.48952C16.9189 9.48952 19.5785 12.1492 19.5785 15.4184C19.5785 18.6875 16.9189 21.3472 13.6497 21.3472Z" fill="url(#paint2_linear_1_2972)"/>
</g>
</g>
</g>
</g>
<path id="path72" d="M13.6498 4.82251C7.80748 4.82251 3.0544 9.57559 3.0544 15.418C3.0544 21.2604 7.80748 26.0134 13.6498 26.0134C19.4921 26.0134 24.2452 21.2604 24.2452 15.418C24.2452 9.57559 19.4921 4.82251 13.6498 4.82251ZM13.6498 26.5442C7.51485 26.5442 2.52368 21.553 2.52368 15.418C2.52368 9.28295 7.51485 4.2918 13.6498 4.2918C19.7848 4.2918 24.7759 9.28295 24.7759 15.418C24.7759 21.553 19.7848 26.5442 13.6498 26.5442Z" fill="white"/>
<g id="g74">
<g id="Clip path group_4">
<mask id="mask3_1_2972" style="mask-type:luminance" maskUnits="userSpaceOnUse" x="7" y="8" width="14" height="14">
<g id="clipPath80">
<path id="path78" d="M20.1092 15.4176C20.1092 18.985 17.2173 21.8771 13.6498 21.8771C10.0822 21.8771 7.19031 18.985 7.19031 15.4176C7.19031 11.8501 10.0822 8.95806 13.6498 8.95806C17.2173 8.95806 20.1092 11.8501 20.1092 15.4176Z" fill="white"/>
</g>
</mask>
<g mask="url(#mask3_1_2972)">
<g id="g76">
<path id="path88" d="M20.1092 15.4176C20.1092 18.985 17.2173 21.8771 13.6498 21.8771C10.0822 21.8771 7.19031 18.985 7.19031 15.4176C7.19031 11.8501 10.0822 8.95806 13.6498 8.95806C17.2173 8.95806 20.1092 11.8501 20.1092 15.4176Z" fill="url(#paint3_linear_1_2972)"/>
</g>
</g>
</g>
</g>
<path id="path90" d="M13.6498 9.48917C10.3806 9.48917 7.72097 12.1488 7.72097 15.418C7.72097 18.6871 10.3806 21.3469 13.6498 21.3469C16.919 21.3469 19.5786 18.6871 19.5786 15.418C19.5786 12.1488 16.919 9.48917 13.6498 9.48917ZM13.6498 22.4082C9.79547 22.4082 6.65967 19.2724 6.65967 15.418C6.65967 11.5636 9.79547 8.42787 13.6498 8.42787C17.5042 8.42787 20.64 11.5636 20.64 15.418C20.64 19.2724 17.5042 22.4082 13.6498 22.4082Z" fill="white"/>
<g id="g92">
<g id="Clip path group_5">
<mask id="mask4_1_2972" style="mask-type:luminance" maskUnits="userSpaceOnUse" x="11" y="12" width="6" height="6">
<g id="clipPath98">
<path id="path96" d="M16.1524 15.4185C16.1524 16.8006 15.0318 17.921 13.6497 17.921C12.2676 17.921 11.1471 16.8006 11.1471 15.4185C11.1471 14.0363 12.2676 12.9158 13.6497 12.9158C15.0318 12.9158 16.1524 14.0363 16.1524 15.4185Z" fill="white"/>
</g>
</mask>
<g mask="url(#mask4_1_2972)">
<g id="g94">
<path id="path106" d="M16.1524 15.4185C16.1524 16.8006 15.0318 17.921 13.6497 17.921C12.2676 17.921 11.1471 16.8006 11.1471 15.4185C11.1471 14.0363 12.2676 12.9158 13.6497 12.9158C15.0318 12.9158 16.1524 14.0363 16.1524 15.4185Z" fill="url(#paint4_linear_1_2972)"/>
</g>
</g>
</g>
</g>
<path id="path108" d="M13.6498 13.4461C12.5625 13.4461 11.6779 14.3307 11.6779 15.418C11.6779 16.5054 12.5625 17.39 13.6498 17.39C14.7371 17.39 15.6218 16.5054 15.6218 15.418C15.6218 14.3307 14.7371 13.4461 13.6498 13.4461ZM13.6498 18.4513C11.9773 18.4513 10.6166 17.0905 10.6166 15.418C10.6166 13.7454 11.9773 12.3847 13.6498 12.3847C15.3223 12.3847 16.6831 13.7454 16.6831 15.418C16.6831 17.0905 15.3223 18.4513 13.6498 18.4513Z" fill="white"/>
<g id="g110">
<g id="Clip path group_6">
<mask id="mask5_1_2972" style="mask-type:luminance" maskUnits="userSpaceOnUse" x="27" y="18" width="5" height="3">
<g id="clipPath116">
<path id="path114" d="M30.9396 19.15L31.4697 20.2198L29.2217 19.7023C28.4851 19.5327 27.8636 19.0417 27.528 18.3645L30.9396 19.15Z" fill="white"/>
</g>
</mask>
<g mask="url(#mask5_1_2972)">
<g id="g112">
<path id="path124" d="M30.9396 19.15L31.4697 20.2198L29.2217 19.7023C28.4851 19.5327 27.8636 19.0417 27.528 18.3645L30.9396 19.15Z" fill="url(#paint5_linear_1_2972)"/>
</g>
</g>
</g>
</g>
<g id="g126">
<g id="Clip path group_7">
<mask id="mask6_1_2972" style="mask-type:luminance" maskUnits="userSpaceOnUse" x="27" y="17" width="5" height="2">
<g id="clipPath132">
<path id="path130" d="M31.0136 18.8281L31.9583 18.0977L29.7103 17.5802C28.9737 17.4106 28.1999 17.5803 27.6021 18.0426L31.0136 18.8281Z" fill="white"/>
</g>
</mask>
<g mask="url(#mask6_1_2972)">
<g id="g128">
<path id="path140" d="M31.0136 18.8281L31.9583 18.0977L29.7103 17.5802C28.9737 17.4106 28.1999 17.5803 27.6021 18.0426L31.0136 18.8281Z" fill="url(#paint6_linear_1_2972)"/>
</g>
</g>
</g>
</g>
<g id="g142">
<g id="Clip path group_8">
<mask id="mask7_1_2972" style="mask-type:luminance" maskUnits="userSpaceOnUse" x="16" y="15" width="16" height="5">
<g id="clipPath148">
<path id="path146" d="M31.0644 18.7838L30.9756 19.1691L16.3849 15.8098L16.4736 15.4245L31.0644 18.7838Z" fill="white"/>
</g>
</mask>
<g mask="url(#mask7_1_2972)">
<g id="g144">
<path id="path156" d="M31.0644 18.7838L30.9756 19.1691L16.3849 15.8098L16.4736 15.4245L31.0644 18.7838Z" fill="url(#paint7_linear_1_2972)"/>
</g>
</g>
</g>
</g>
<g id="g158">
<g id="Clip path group_9">
<mask id="mask8_1_2972" style="mask-type:luminance" maskUnits="userSpaceOnUse" x="13" y="14" width="5" height="3">
<g id="clipPath164">
<path id="path162" d="M17.1506 15.2345C17.3716 15.2854 17.1316 16.3276 16.9106 16.2767L13.5539 15.0686C13.4298 15.024 13.4725 14.839 13.6036 14.853L17.1506 15.2345Z" fill="white"/>
</g>
</mask>
<g mask="url(#mask8_1_2972)">
<g id="g160">
<path id="path172" d="M17.1506 15.2345C17.3716 15.2854 17.1316 16.3276 16.9106 16.2767L13.5539 15.0686C13.4298 15.024 13.4725 14.839 13.6036 14.853L17.1506 15.2345Z" fill="url(#paint8_linear_1_2972)"/>
</g>
</g>
</g>
</g>
<g id="g174">
<g id="Clip path group_10">
<mask id="mask9_1_2972" style="mask-type:luminance" maskUnits="userSpaceOnUse" x="19" y="30" width="2" height="2">
<g id="clipPath180">
<path id="path178" d="M20.712 30.2679C20.712 30.2679 20.8912 30.5261 20.9002 30.8889C20.9023 30.9744 20.8332 31.0449 20.7478 31.0479L19.3685 31.096C19.3039 31.0982 19.2748 31.0162 19.3264 30.9772C19.5809 30.7848 20.082 30.4246 20.4484 30.277L20.712 30.2679Z" fill="white"/>
</g>
</mask>
<g mask="url(#mask9_1_2972)">
<g id="g176">
<path id="path188" d="M20.712 30.2679C20.712 30.2679 20.8912 30.5261 20.9002 30.8889C20.9023 30.9744 20.8332 31.0449 20.7478 31.0479L19.3685 31.096C19.3039 31.0982 19.2748 31.0162 19.3264 30.9772C19.5809 30.7848 20.082 30.4246 20.4484 30.277L20.712 30.2679Z" fill="url(#paint9_linear_1_2972)"/>
</g>
</g>
</g>
</g>
<g id="g190">
<g id="Clip path group_11">
<mask id="mask10_1_2972" style="mask-type:luminance" maskUnits="userSpaceOnUse" x="20" y="29" width="1" height="2">
<g id="clipPath196">
<path id="path194" d="M20.7464 29.8275L20.7111 30.3578C20.707 30.4171 20.656 30.4635 20.5968 30.4586C20.5607 30.4556 20.5175 30.4464 20.4696 30.4249C20.4242 30.4045 20.3961 30.3576 20.398 30.3079L20.422 29.668L20.7464 29.8275Z" fill="white"/>
</g>
</mask>
<g mask="url(#mask10_1_2972)">
<g id="g192">
<path id="path204" d="M20.7464 29.8275L20.7111 30.3578C20.707 30.4171 20.656 30.4635 20.5968 30.4586C20.5607 30.4556 20.5175 30.4464 20.4696 30.4249C20.4242 30.4045 20.3961 30.3576 20.398 30.3079L20.422 29.668L20.7464 29.8275Z" fill="url(#paint10_linear_1_2972)"/>
</g>
</g>
</g>
</g>
<g id="g206">
<g id="Clip path group_12">
<mask id="mask11_1_2972" style="mask-type:luminance" maskUnits="userSpaceOnUse" x="28" y="27" width="2" height="3">
<g id="clipPath212">
<path id="path210" d="M28.3961 27.9543C28.3961 27.9543 28.6837 27.8273 29.0416 27.8874C29.1259 27.9015 29.182 27.9828 29.1688 28.0672L28.9543 29.4305C28.9442 29.4944 28.8581 29.5074 28.8297 29.4494C28.689 29.1629 28.4304 28.6026 28.3551 28.215L28.3961 27.9543Z" fill="white"/>
</g>
</mask>
<g mask="url(#mask11_1_2972)">
<g id="g208">
<path id="path220" d="M28.3961 27.9543C28.3961 27.9543 28.6837 27.8273 29.0416 27.8874C29.1259 27.9015 29.182 27.9828 29.1688 28.0672L28.9543 29.4305C28.9442 29.4944 28.8581 29.5074 28.8297 29.4494C28.689 29.1629 28.4304 28.6026 28.3551 28.215L28.3961 27.9543Z" fill="url(#paint11_linear_1_2972)"/>
</g>
</g>
</g>
</g>
<g id="g222">
<g id="Clip path group_13">
<mask id="mask12_1_2972" style="mask-type:luminance" maskUnits="userSpaceOnUse" x="27" y="27" width="2" height="2">
<g id="clipPath228">
<path id="path226" d="M27.9702 27.8373L28.4841 27.9726C28.5416 27.9877 28.5775 28.0467 28.5615 28.104C28.5517 28.1387 28.5343 28.1795 28.5043 28.2223C28.4755 28.2631 28.4242 28.2817 28.3756 28.2704L27.7521 28.1255L27.9702 27.8373Z" fill="white"/>
</g>
</mask>
<g mask="url(#mask12_1_2972)">
<g id="g224">
<path id="path236" d="M27.9702 27.8373L28.4841 27.9726C28.5416 27.9877 28.5775 28.0467 28.5615 28.104C28.5517 28.1387 28.5343 28.1795 28.5043 28.2223C28.4755 28.2631 28.4242 28.2817 28.3756 28.2704L27.7521 28.1255L27.9702 27.8373Z" fill="url(#paint12_linear_1_2972)"/>
</g>
</g>
</g>
</g>
<g id="g238">
<g id="Clip path group_14">
<mask id="mask13_1_2972" style="mask-type:luminance" maskUnits="userSpaceOnUse" x="20" y="16" width="1" height="2">
<g id="clipPath244">
<path id="path242" d="M20.9326 17.1098C20.9326 17.1098 20.8864 17.003 20.8938 16.9399C20.9013 16.8766 20.9031 16.6794 20.7847 16.5961C20.7847 16.5961 20.7206 16.5992 20.7193 16.6712C20.644 16.5902 20.6402 16.5204 20.5622 16.5701C20.4844 16.6196 20.1913 16.7973 20.3377 16.9146C20.4841 17.0318 20.7141 17.255 20.7141 17.255L20.9326 17.1098Z" fill="white"/>
</g>
</mask>
<g mask="url(#mask13_1_2972)">
<g id="g240">
<path id="path252" d="M20.9326 17.1098C20.9326 17.1098 20.8864 17.003 20.8938 16.9399C20.9013 16.8766 20.9031 16.6794 20.7847 16.5961C20.7847 16.5961 20.7206 16.5992 20.7193 16.6712C20.644 16.5902 20.6402 16.5204 20.5622 16.5701C20.4844 16.6196 20.1913 16.7973 20.3377 16.9146C20.4841 17.0318 20.7141 17.255 20.7141 17.255L20.9326 17.1098Z" fill="url(#paint13_linear_1_2972)"/>
</g>
</g>
</g>
</g>
<g id="g254">
<g id="Clip path group_15">
<mask id="mask14_1_2972" style="mask-type:luminance" maskUnits="userSpaceOnUse" x="23" y="24" width="6" height="5">
<g id="clipPath260">
<path id="path258" d="M23.472 25.6402C23.472 25.6402 23.7332 27.7235 24.4806 27.803C25.228 27.8825 28.0906 28.2959 28.0906 28.2959L28.1701 27.8666C28.1701 27.8666 26.5162 26.8647 25.5302 26.8807C25.0372 26.1491 25.1575 24.1277 25.1575 24.1277L23.472 25.6402Z" fill="white"/>
</g>
</mask>
<g mask="url(#mask14_1_2972)">
<g id="g256">
<path id="path268" d="M23.472 25.6402C23.472 25.6402 23.7332 27.7235 24.4806 27.803C25.228 27.8825 28.0906 28.2959 28.0906 28.2959L28.1701 27.8666C28.1701 27.8666 26.5162 26.8647 25.5302 26.8807C25.0372 26.1491 25.1575 24.1277 25.1575 24.1277L23.472 25.6402Z" fill="url(#paint14_linear_1_2972)"/>
</g>
</g>
</g>
</g>
<g id="g270">
<g id="Clip path group_16">
<mask id="mask15_1_2972" style="mask-type:luminance" maskUnits="userSpaceOnUse" x="20" y="17" width="7" height="7">
<g id="clipPath276">
<path id="path274" d="M26.547 18.3668C26.459 20.6893 25.2406 20.8946 25.2406 20.8946V23.8653H23.5226C23.5226 23.8653 22.6896 21.8367 22.7112 21.1586C21.4722 20.6347 20.8451 17.639 20.7141 17.2553C20.7751 17.2089 20.8079 17.2107 20.9326 17.1101C22.6214 19.7979 23.0335 20.2111 23.0335 20.2111H23.9877C25.8212 20.0464 26.2722 18.3035 26.2722 18.3035L26.547 18.3668Z" fill="white"/>
</g>
</mask>
<g mask="url(#mask15_1_2972)">
<g id="g272">
<path id="path284" d="M26.547 18.3668C26.459 20.6893 25.2406 20.8946 25.2406 20.8946V23.8653H23.5226C23.5226 23.8653 22.6896 21.8367 22.7112 21.1586C21.4722 20.6347 20.8451 17.639 20.7141 17.2553C20.7751 17.2089 20.8079 17.2107 20.9326 17.1101C22.6214 19.7979 23.0335 20.2111 23.0335 20.2111H23.9877C25.8212 20.0464 26.2722 18.3035 26.2722 18.3035L26.547 18.3668Z" fill="url(#paint15_linear_1_2972)"/>
</g>
</g>
</g>
</g>
<g id="g286">
<g id="Clip path group_17">
<mask id="mask16_1_2972" style="mask-type:luminance" maskUnits="userSpaceOnUse" x="20" y="23" width="6" height="8">
<g id="clipPath292">
<path id="path290" d="M25.1869 23.8587C25.1869 23.8587 25.3234 25.3143 22.4562 26.4487C21.7565 27.7528 20.8388 30.1837 20.8388 30.1837H20.2345C20.2345 30.1837 20.6479 26.5123 21.3794 25.7807C22.111 25.0492 22.9091 24.226 23.5225 23.8656C24.9418 23.7171 25.1869 23.8587 25.1869 23.8587Z" fill="white"/>
</g>
</mask>
<g mask="url(#mask16_1_2972)">
<g id="g288">
<path id="path300" d="M25.1869 23.8587C25.1869 23.8587 25.3234 25.3143 22.4562 26.4487C21.7565 27.7528 20.8388 30.1837 20.8388 30.1837H20.2345C20.2345 30.1837 20.6479 26.5123 21.3794 25.7807C22.111 25.0492 22.9091 24.226 23.5225 23.8656C24.9418 23.7171 25.1869 23.8587 25.1869 23.8587Z" fill="url(#paint16_linear_1_2972)"/>
</g>
</g>
</g>
</g>
<g id="g302">
<g id="Clip path group_18">
<mask id="mask17_1_2972" style="mask-type:luminance" maskUnits="userSpaceOnUse" x="23" y="19" width="2" height="2">
<g id="clipPath308">
<path id="path306" d="M23.9644 19.1287L24.2807 20.2424C24.2807 20.2424 23.7403 20.5329 23.3408 20.4544L23.231 19.4726L23.9644 19.1287Z" fill="white"/>
</g>
</mask>
<g mask="url(#mask17_1_2972)">
<g id="g304">
<path id="path316" d="M23.9644 19.1287L24.2807 20.2424C24.2807 20.2424 23.7403 20.5329 23.3408 20.4544L23.231 19.4726L23.9644 19.1287Z" fill="url(#paint17_linear_1_2972)"/>
</g>
</g>
</g>
</g>
<g id="g318">
<g id="Clip path group_19">
<mask id="mask18_1_2972" style="mask-type:luminance" maskUnits="userSpaceOnUse" x="22" y="18" width="3" height="2">
<g id="clipPath324">
<path id="path322" d="M23.3094 18.3195C23.2978 18.3326 22.8677 19.4021 22.8677 19.4021L23.4837 19.6347L24.0419 18.6816C24.0419 18.6816 23.5034 18.1014 23.3094 18.3195Z" fill="white"/>
</g>
</mask>
<g mask="url(#mask18_1_2972)">
<g id="g320">
<path id="path332" d="M23.3094 18.3195C23.2978 18.3326 22.8677 19.4021 22.8677 19.4021L23.4837 19.6347L24.0419 18.6816C24.0419 18.6816 23.5034 18.1014 23.3094 18.3195Z" fill="url(#paint18_linear_1_2972)"/>
</g>
</g>
</g>
</g>
<g id="g334">
<g id="Clip path group_20">
<mask id="mask19_1_2972" style="mask-type:luminance" maskUnits="userSpaceOnUse" x="22" y="17" width="3" height="3">
<g id="clipPath340">
<path id="path338" d="M23.7859 18.8074L23.5314 19.3322C23.5281 19.339 23.524 19.345 23.5191 19.3507C23.4887 19.3849 23.3756 19.4951 23.2699 19.3724C23.174 19.2612 23.0848 19.161 22.9951 19.1346C22.9548 19.1227 22.9121 19.1433 22.8964 19.1822C22.8573 19.2795 22.7734 19.5 22.7297 19.7029C22.7208 19.7441 22.7453 19.7849 22.7855 19.7974C22.9068 19.8349 23.1646 19.9068 23.3856 19.9161C23.4156 19.9173 23.4436 19.9024 23.4591 19.8768C23.5344 19.7515 23.7646 19.3719 23.8453 19.276C23.9208 19.186 24.0789 19.2065 24.1447 19.22C24.1662 19.2243 24.1885 19.2198 24.2065 19.2072C24.2704 19.1628 24.3957 19.0452 24.2576 18.8719C24.2288 18.8357 24.2356 18.7832 24.2726 18.7554C24.3466 18.7001 24.4305 18.5968 24.3348 18.446C24.2374 18.2928 24.0856 18.2983 23.9904 18.3214C23.9518 18.3307 23.9132 18.3105 23.8969 18.2744C23.8876 18.2538 23.8693 18.237 23.8343 18.2361C23.7871 18.2347 23.7523 18.1914 23.7584 18.1447C23.7702 18.0548 23.7508 17.9375 23.6002 17.8713C23.3329 17.7539 23.1299 18.002 23.0904 18.1998C23.0508 18.3975 23.3477 18.5085 23.529 18.5152C23.6668 18.5204 23.7529 18.6672 23.7864 18.7374C23.7969 18.7596 23.7967 18.7853 23.7859 18.8074Z" fill="white"/>
</g>
</mask>
<g mask="url(#mask19_1_2972)">
<g id="g336">
<path id="path348" d="M23.7859 18.8074L23.5314 19.3322C23.5281 19.339 23.524 19.345 23.5191 19.3507C23.4887 19.3849 23.3756 19.4951 23.2699 19.3724C23.174 19.2612 23.0848 19.161 22.9951 19.1346C22.9548 19.1227 22.9121 19.1433 22.8964 19.1822C22.8573 19.2795 22.7734 19.5 22.7297 19.7029C22.7208 19.7441 22.7453 19.7849 22.7855 19.7974C22.9068 19.8349 23.1646 19.9068 23.3856 19.9161C23.4156 19.9173 23.4436 19.9024 23.4591 19.8768C23.5344 19.7515 23.7646 19.3719 23.8453 19.276C23.9208 19.186 24.0789 19.2065 24.1447 19.22C24.1662 19.2243 24.1885 19.2198 24.2065 19.2072C24.2704 19.1628 24.3957 19.0452 24.2576 18.8719C24.2288 18.8357 24.2356 18.7832 24.2726 18.7554C24.3466 18.7001 24.4305 18.5968 24.3348 18.446C24.2374 18.2928 24.0856 18.2983 23.9904 18.3214C23.9518 18.3307 23.9132 18.3105 23.8969 18.2744C23.8876 18.2538 23.8693 18.237 23.8343 18.2361C23.7871 18.2347 23.7523 18.1914 23.7584 18.1447C23.7702 18.0548 23.7508 17.9375 23.6002 17.8713C23.3329 17.7539 23.1299 18.002 23.0904 18.1998C23.0508 18.3975 23.3477 18.5085 23.529 18.5152C23.6668 18.5204 23.7529 18.6672 23.7864 18.7374C23.7969 18.7596 23.7967 18.7853 23.7859 18.8074Z" fill="url(#paint19_linear_1_2972)"/>
</g>
</g>
</g>
</g>
<g id="g350">
<g id="Clip path group_21">
<mask id="mask20_1_2972" style="mask-type:luminance" maskUnits="userSpaceOnUse" x="23" y="19" width="2" height="1">
<g id="clipPath356">
<path id="path354" d="M23.7506 19.4652C23.7506 19.4652 23.8345 19.1236 23.9806 19.1229C24.1266 19.1222 24.2537 19.2566 24.0883 19.435C23.8828 19.6569 23.7506 19.4652 23.7506 19.4652Z" fill="white"/>
</g>
</mask>
<g mask="url(#mask20_1_2972)">
<g id="g352">
<path id="path364" d="M23.7506 19.4652C23.7506 19.4652 23.8345 19.1236 23.9806 19.1229C24.1266 19.1222 24.2537 19.2566 24.0883 19.435C23.8828 19.6569 23.7506 19.4652 23.7506 19.4652Z" fill="url(#paint20_linear_1_2972)"/>
</g>
</g>
</g>
</g>
<g id="g366">
<g id="Clip path group_22">
<mask id="mask21_1_2972" style="mask-type:luminance" maskUnits="userSpaceOnUse" x="26" y="17" width="1" height="2">
<g id="clipPath372">
<path id="path370" d="M26.6045 17.754C26.6045 17.754 26.2333 17.5896 26.2811 17.8653C26.3288 18.1409 26.2291 18.3424 26.4407 18.3636C26.6521 18.3848 26.6763 17.9445 26.6045 17.754Z" fill="white"/>
</g>
</mask>
<g mask="url(#mask21_1_2972)">
<g id="g368">
<path id="path380" d="M26.6045 17.754C26.6045 17.754 26.2333 17.5896 26.2811 17.8653C26.3288 18.1409 26.2291 18.3424 26.4407 18.3636C26.6521 18.3848 26.6763 17.9445 26.6045 17.754Z" fill="url(#paint21_linear_1_2972)"/>
</g>
</g>
</g>
</g>
<path id="path382" d="M4.47708 5.21399C4.47324 5.17379 4.46991 5.1337 4.46709 5.09362C4.46253 5.02837 4.51166 4.9718 4.57683 4.96723L4.57913 4.96712C4.58117 4.96701 4.5832 4.96701 4.58522 4.96701C4.6158 4.96701 4.64402 4.97881 4.6652 4.99819C4.60077 5.0709 4.53821 5.14272 4.47708 5.21399Z" fill="#DEE8FD"/>
<g id="g384">
<g id="Clip path group_23">
<mask id="mask22_1_2972" style="mask-type:luminance" maskUnits="userSpaceOnUse" x="4" y="4" width="1" height="2">
<g id="clipPath390">
<path id="path388" d="M4.62924 5.59473C4.57197 5.59473 4.52161 5.55308 4.51249 5.49473C4.498 5.4022 4.48618 5.30833 4.47717 5.21423C4.53831 5.14297 4.60086 5.07115 4.66529 4.99843C4.68676 5.01825 4.70102 5.04587 4.70322 5.07727C4.71213 5.20455 4.72662 5.33271 4.74624 5.4581C4.75636 5.52268 4.71222 5.58326 4.64765 5.59328C4.64351 5.59395 4.63936 5.59439 4.63526 5.59462C4.63324 5.59473 4.63123 5.59473 4.62924 5.59473Z" fill="white"/>
</g>
</mask>
<g mask="url(#mask22_1_2972)">
<g id="g386">
<path id="path398" d="M4.62924 5.59473C4.57197 5.59473 4.52161 5.55308 4.51249 5.49473C4.498 5.4022 4.48618 5.30833 4.47717 5.21423C4.53831 5.14297 4.60086 5.07115 4.66529 4.99843C4.68676 5.01825 4.70102 5.04587 4.70322 5.07727C4.71213 5.20455 4.72662 5.33271 4.74624 5.4581C4.75636 5.52268 4.71222 5.58326 4.64765 5.59328C4.64351 5.59395 4.63936 5.59439 4.63526 5.59462C4.63324 5.59473 4.63123 5.59473 4.62924 5.59473Z" fill="url(#paint22_linear_1_2972)"/>
</g>
</g>
</g>
</g>
<path id="path400" d="M4.58432 4.56555C4.58166 4.56555 4.57897 4.56544 4.57626 4.56533C4.51106 4.56099 4.46173 4.50453 4.46609 4.43939C4.47507 4.30543 4.48985 4.17059 4.51006 4.03852C4.51902 3.97995 4.56933 3.93808 4.62704 3.93808C4.63293 3.93808 4.63888 3.93853 4.6449 3.93942C4.70949 3.94933 4.75381 4.00979 4.74395 4.07427C4.72475 4.19976 4.71071 4.32793 4.7022 4.4552C4.69816 4.51567 4.64936 4.56243 4.5903 4.56544C4.58833 4.56555 4.58633 4.56555 4.58432 4.56555ZM4.76733 3.55158C4.75608 3.55158 4.74464 3.55002 4.73331 3.54657C4.67074 3.52775 4.6352 3.46183 4.65397 3.39925C4.69241 3.27097 4.73693 3.1428 4.7863 3.0182C4.80474 2.97176 4.84931 2.94348 4.8964 2.94348C4.91087 2.94348 4.9256 2.94615 4.93988 2.95183C5.00061 2.97588 5.03036 3.04459 5.00628 3.10539C4.9594 3.22364 4.91713 3.34535 4.88061 3.46717C4.86585 3.5165 4.82186 3.54902 4.77332 3.55147C4.77133 3.55158 4.76933 3.55158 4.76733 3.55158ZM5.17253 2.60386C5.15272 2.60386 5.13263 2.59884 5.11418 2.58838C5.05738 2.55608 5.0375 2.48382 5.06977 2.42703C5.13602 2.31055 5.20809 2.19553 5.28396 2.08506C5.30692 2.05177 5.34394 2.03384 5.38159 2.03384C5.40469 2.03384 5.42802 2.04064 5.4485 2.05467C5.50232 2.09163 5.51595 2.16535 5.47894 2.21913C5.40687 2.32403 5.3384 2.43326 5.2755 2.54395C5.25474 2.58047 5.21756 2.60174 5.17853 2.60363C5.17654 2.60375 5.17453 2.60386 5.17253 2.60386ZM5.77888 1.77027C5.75036 1.77027 5.72178 1.76003 5.69909 1.7392C5.65084 1.69511 5.64749 1.62028 5.69159 1.57206C5.78179 1.47341 5.87751 1.3772 5.97606 1.28622C5.9988 1.26517 6.02759 1.25482 6.05631 1.25482C6.08816 1.25482 6.11992 1.26763 6.14323 1.29279C6.18755 1.34078 6.18459 1.41561 6.1366 1.46004C6.04291 1.54656 5.95194 1.63798 5.86621 1.73174C5.84434 1.75568 5.81492 1.7686 5.78492 1.77005C5.78291 1.77016 5.78089 1.77027 5.77888 1.77027ZM6.55457 1.09158C6.51704 1.09158 6.4803 1.07387 6.45726 1.0408C6.41999 0.987129 6.43325 0.913414 6.48687 0.876111C6.59688 0.799723 6.71147 0.72712 6.82761 0.660309C6.8462 0.649508 6.86647 0.644497 6.88651 0.644497C6.92749 0.644497 6.96724 0.665765 6.98918 0.703847C7.02181 0.760414 7.00232 0.832793 6.94564 0.865308C6.83529 0.92889 6.72639 0.997819 6.62194 1.07042C6.60312 1.08356 6.58185 1.09035 6.56058 1.09147C6.55858 1.09158 6.55657 1.09158 6.55457 1.09158ZM7.46076 0.602072C7.41388 0.602072 7.36956 0.57401 7.35096 0.52791C7.32658 0.467223 7.35586 0.398408 7.41644 0.373911C7.54071 0.323914 7.66865 0.278592 7.79671 0.239396C7.80818 0.235944 7.81976 0.234385 7.83112 0.234385C7.88189 0.234385 7.92877 0.2669 7.94447 0.3179C7.96351 0.380368 7.92844 0.446513 7.86597 0.465666C7.74426 0.502858 7.62289 0.545839 7.50485 0.593386C7.49238 0.598397 7.47946 0.601181 7.46677 0.601849C7.46477 0.60196 7.46276 0.602072 7.46076 0.602072ZM10.8698 0.5896C10.8553 0.5896 10.8408 0.587038 10.8265 0.581359C10.7082 0.534703 10.5863 0.492613 10.4643 0.456312C10.4016 0.437604 10.3659 0.371796 10.3847 0.309216C10.3999 0.257771 10.447 0.224587 10.4979 0.224587C10.5091 0.224587 10.5205 0.226145 10.5317 0.229486C10.6604 0.267791 10.7888 0.31211 10.9132 0.361216C10.974 0.385268 11.0039 0.453974 10.9799 0.514661C10.9623 0.559313 10.9207 0.587262 10.8758 0.589489C10.8738 0.5896 10.8718 0.5896 10.8698 0.5896ZM8.45347 0.327143C8.39634 0.327143 8.34601 0.285609 8.33677 0.227371C8.32652 0.162787 8.37062 0.10221 8.43509 0.0919652C8.56727 0.0710306 8.702 0.0555544 8.83585 0.045867L8.8383 0.045754C8.84042 0.0456424 8.84242 0.0456429 8.84442 0.0456429C8.90589 0.0456429 8.95778 0.0930786 8.96235 0.155436C8.96702 0.220577 8.91803 0.277256 8.85278 0.281821C8.72572 0.291063 8.59767 0.305762 8.47217 0.325695C8.46794 0.326363 8.46371 0.326809 8.45948 0.327032C8.45747 0.327143 8.45547 0.327143 8.45347 0.327143ZM9.87432 0.322132C9.86853 0.322132 9.86263 0.321685 9.85673 0.320795C9.73101 0.301753 9.60273 0.288059 9.47557 0.279707C9.41032 0.275476 9.36099 0.219242 9.36522 0.15399C9.36934 0.0916324 9.42101 0.0433049 9.4827 0.0433049C9.48537 0.0433049 9.48815 0.043417 9.49094 0.0436397C9.62478 0.0523252 9.75974 0.0669112 9.89203 0.086843C9.95661 0.0965309 10.0012 0.156884 9.99135 0.221469C9.98289 0.278036 9.93557 0.319124 9.88056 0.321908C9.87844 0.322019 9.87644 0.322132 9.87432 0.322132Z" fill="#DEE8FD"/>
<g id="g402">
<g id="Clip path group_24">
<mask id="mask23_1_2972" style="mask-type:luminance" maskUnits="userSpaceOnUse" x="11" y="0" width="1" height="1">
<g id="clipPath408">
<path id="path406" d="M11.6119 0.963013C11.5905 0.963013 11.5689 0.957222 11.5495 0.945196C11.4977 0.912904 11.4444 0.881281 11.3911 0.850882C11.3342 0.818701 11.3142 0.746432 11.3465 0.689642C11.3682 0.651226 11.4083 0.629623 11.4495 0.629623C11.4692 0.629623 11.4894 0.634634 11.5078 0.645212C11.5639 0.676948 11.62 0.710354 11.6744 0.744205C11.73 0.778724 11.7469 0.851772 11.7124 0.907226C11.6912 0.941411 11.6553 0.960897 11.6179 0.962902C11.6159 0.962902 11.6139 0.963013 11.6119 0.963013Z" fill="white"/>
</g>
</mask>
<g mask="url(#mask23_1_2972)">
<g id="g404">
<path id="path416" d="M11.6119 0.963013C11.5905 0.963013 11.5689 0.957222 11.5495 0.945196C11.4977 0.912904 11.4444 0.881281 11.3911 0.850882C11.3342 0.818701 11.3142 0.746432 11.3465 0.689642C11.3682 0.651226 11.4083 0.629623 11.4495 0.629623C11.4692 0.629623 11.4894 0.634634 11.5078 0.645212C11.5639 0.676948 11.62 0.710354 11.6744 0.744205C11.73 0.778724 11.7469 0.851772 11.7124 0.907226C11.6912 0.941411 11.6553 0.960897 11.6179 0.962902C11.6159 0.962902 11.6139 0.963013 11.6119 0.963013Z" fill="url(#paint23_linear_1_2972)"/>
</g>
</g>
</g>
</g>
<path id="path418" d="M13.6867 3.91298C13.632 3.91298 13.5829 3.8749 13.5711 3.81933C13.5584 3.75965 13.5443 3.69929 13.529 3.63983C13.5128 3.57658 13.5509 3.51211 13.6142 3.49585C13.6241 3.49329 13.634 3.49207 13.6438 3.49207C13.6966 3.49207 13.7445 3.5277 13.7582 3.58104C13.7742 3.64362 13.7891 3.7072 13.8025 3.77C13.8161 3.83392 13.7753 3.89683 13.7114 3.91042C13.7052 3.91176 13.6989 3.91253 13.6927 3.91287C13.6907 3.91298 13.6887 3.91298 13.6867 3.91298Z" fill="#DEE8FD"/>
<g id="g420">
<g id="Clip path group_25">
<mask id="mask24_1_2972" style="mask-type:luminance" maskUnits="userSpaceOnUse" x="8" y="9" width="3" height="1">
<g id="clipPath426">
<path id="path424" d="M9.26003 9.48254C9.19555 9.48254 9.14277 9.43088 9.14166 9.36629C9.14054 9.30093 9.19288 9.24681 9.25791 9.24592C9.38452 9.24369 9.51079 9.23646 9.6345 9.22398C9.63851 9.22354 9.64241 9.22343 9.64631 9.22343C9.70655 9.22343 9.75799 9.26886 9.76412 9.32988C9.77058 9.39491 9.72314 9.45293 9.65811 9.45938C9.58161 9.46718 9.50344 9.47297 9.42583 9.47698C9.37149 9.47976 9.31693 9.48154 9.26203 9.48254C9.26136 9.48254 9.26069 9.48254 9.26003 9.48254ZM8.63222 9.4507C8.62754 9.4507 8.62287 9.45048 8.61808 9.44992C8.48702 9.43433 8.35518 9.41306 8.22612 9.38656C8.1622 9.37342 8.12089 9.31084 8.13403 9.24692C8.1455 9.19102 8.19483 9.15227 8.24961 9.15227C8.25763 9.15227 8.26565 9.15316 8.27367 9.15483C8.39626 9.17989 8.52154 9.20016 8.64603 9.21497C8.71095 9.22265 8.75727 9.28155 8.74959 9.34636C8.74268 9.40449 8.6948 9.44769 8.63823 9.45059C8.63623 9.4507 8.63422 9.4507 8.63222 9.4507ZM10.2041 9.33712C10.1783 9.32142 10.1586 9.29581 10.151 9.26407C10.1356 9.2006 10.1747 9.13668 10.2381 9.12132C10.3596 9.09203 10.4816 9.05707 10.6005 9.01743C10.6128 9.01331 10.6254 9.0113 10.6379 9.0113C10.6772 9.0113 10.7144 9.03101 10.7363 9.06386C10.5545 9.1476 10.3771 9.23868 10.2041 9.33712Z" fill="white"/>
</g>
</mask>
<g mask="url(#mask24_1_2972)">
<g id="g422">
<path id="path434" d="M9.26003 9.48254C9.19555 9.48254 9.14277 9.43088 9.14166 9.36629C9.14054 9.30093 9.19288 9.24681 9.25791 9.24592C9.38452 9.24369 9.51079 9.23646 9.6345 9.22398C9.63851 9.22354 9.64241 9.22343 9.64631 9.22343C9.70655 9.22343 9.75799 9.26886 9.76412 9.32988C9.77058 9.39491 9.72314 9.45293 9.65811 9.45938C9.58161 9.46718 9.50344 9.47297 9.42583 9.47698C9.37149 9.47976 9.31693 9.48154 9.26203 9.48254C9.26136 9.48254 9.26069 9.48254 9.26003 9.48254ZM8.63222 9.4507C8.62754 9.4507 8.62287 9.45048 8.61808 9.44992C8.48702 9.43433 8.35518 9.41306 8.22612 9.38656C8.1622 9.37342 8.12089 9.31084 8.13403 9.24692C8.1455 9.19102 8.19483 9.15227 8.24961 9.15227C8.25763 9.15227 8.26565 9.15316 8.27367 9.15483C8.39626 9.17989 8.52154 9.20016 8.64603 9.21497C8.71095 9.22265 8.75727 9.28155 8.74959 9.34636C8.74268 9.40449 8.6948 9.44769 8.63823 9.45059C8.63623 9.4507 8.63422 9.4507 8.63222 9.4507ZM10.2041 9.33712C10.1783 9.32142 10.1586 9.29581 10.151 9.26407C10.1356 9.2006 10.1747 9.13668 10.2381 9.12132C10.3596 9.09203 10.4816 9.05707 10.6005 9.01743C10.6128 9.01331 10.6254 9.0113 10.6379 9.0113C10.6772 9.0113 10.7144 9.03101 10.7363 9.06386C10.5545 9.1476 10.3771 9.23868 10.2041 9.33712Z" fill="url(#paint24_linear_1_2972)"/>
</g>
</g>
</g>
</g>
<path id="path436" d="M10.2659 9.35461C10.2437 9.35461 10.2224 9.34838 10.2041 9.33713C10.3771 9.23869 10.5545 9.14761 10.7364 9.06387C10.742 9.07245 10.7467 9.08202 10.7502 9.09227C10.7708 9.15429 10.7373 9.22121 10.6753 9.24192C10.5501 9.28368 10.4217 9.32043 10.2937 9.35138C10.2864 9.35305 10.2792 9.35417 10.2718 9.3545C10.2699 9.35461 10.2679 9.35461 10.2659 9.35461Z" fill="#DEE8FD"/>
<g id="g438">
<g id="Clip path group_26">
<mask id="mask25_1_2972" style="mask-type:luminance" maskUnits="userSpaceOnUse" x="7" y="8" width="5" height="2">
<g id="clipPath444">
<path id="path442" d="M7.6443 9.22083C7.63116 9.22083 7.6178 9.2186 7.60477 9.21403C7.4805 9.17005 7.35646 9.12016 7.23642 9.06593C7.17685 9.0391 7.15034 8.96895 7.17729 8.90948C7.197 8.86572 7.24009 8.83978 7.28508 8.83978C7.30145 8.83978 7.31793 8.84323 7.33385 8.85036C7.44788 8.90191 7.56558 8.94913 7.68361 8.99088C7.7453 9.01271 7.77748 9.0803 7.75577 9.14188C7.73929 9.18842 7.69664 9.21826 7.6502 9.2206C7.6482 9.22071 7.64631 9.22083 7.6443 9.22083ZM11.1016 8.90826C11.0941 8.85882 11.1189 8.80804 11.1663 8.78466C11.2783 8.72932 11.3894 8.66841 11.4969 8.6036C11.5159 8.59213 11.5371 8.58656 11.5579 8.58656C11.598 8.58656 11.6371 8.60694 11.6592 8.6438C11.6719 8.66484 11.6774 8.68834 11.6762 8.71117C11.4808 8.76873 11.2893 8.83454 11.1016 8.90826Z" fill="white"/>
</g>
</mask>
<g mask="url(#mask25_1_2972)">
<g id="g440">
<path id="path452" d="M7.6443 9.22083C7.63116 9.22083 7.6178 9.2186 7.60477 9.21403C7.4805 9.17005 7.35646 9.12016 7.23642 9.06593C7.17685 9.0391 7.15034 8.96895 7.17729 8.90948C7.197 8.86572 7.24009 8.83978 7.28508 8.83978C7.30145 8.83978 7.31793 8.84323 7.33385 8.85036C7.44788 8.90191 7.56558 8.94913 7.68361 8.99088C7.7453 9.01271 7.77748 9.0803 7.75577 9.14188C7.73929 9.18842 7.69664 9.21826 7.6502 9.2206C7.6482 9.22071 7.64631 9.22083 7.6443 9.22083ZM11.1016 8.90826C11.0941 8.85882 11.1189 8.80804 11.1663 8.78466C11.2783 8.72932 11.3894 8.66841 11.4969 8.6036C11.5159 8.59213 11.5371 8.58656 11.5579 8.58656C11.598 8.58656 11.6371 8.60694 11.6592 8.6438C11.6719 8.66484 11.6774 8.68834 11.6762 8.71117C11.4808 8.76873 11.2893 8.83454 11.1016 8.90826Z" fill="url(#paint25_linear_1_2972)"/>
</g>
</g>
</g>
</g>
<path id="path454" d="M11.2187 9.00891C11.1751 9.00891 11.1332 8.98475 11.1126 8.94299C11.107 8.93174 11.1033 8.91994 11.1016 8.90814C11.2893 8.83442 11.4808 8.76861 11.6761 8.71104C11.674 8.7489 11.654 8.78498 11.619 8.80603C11.506 8.87428 11.389 8.93843 11.271 8.99666C11.2561 9.00401 11.2403 9.00802 11.2247 9.0088C11.2227 9.00891 11.2207 9.00891 11.2187 9.00891Z" fill="#DEE8FD"/>
<g id="g456">
<g id="Clip path group_27">
<mask id="mask26_1_2972" style="mask-type:luminance" maskUnits="userSpaceOnUse" x="11" y="4" width="3" height="5">
<g id="clipPath462">
<path id="path460" d="M12.0726 8.46306C12.0381 8.46306 12.0038 8.44803 11.9804 8.41907C11.9395 8.36819 11.9474 8.29369 11.9983 8.25271C12.0957 8.17399 12.191 8.09025 12.2815 8.00384C12.3044 7.9819 12.3338 7.97099 12.3632 7.97099C12.3943 7.97099 12.4255 7.98324 12.4488 8.00763C12.4939 8.05484 12.4922 8.12967 12.445 8.17488C12.3497 8.26585 12.2495 8.35393 12.1468 8.43678C12.1266 8.45304 12.1027 8.46161 12.0787 8.46283C12.0766 8.46295 12.0746 8.46306 12.0726 8.46306ZM12.7872 7.7435C12.7614 7.7435 12.7353 7.73503 12.7136 7.71778C12.6625 7.67713 12.654 7.60264 12.6947 7.55153C12.7727 7.45342 12.8475 7.35087 12.917 7.24687C12.9397 7.21268 12.9773 7.1942 13.0155 7.1942C13.0381 7.1942 13.0609 7.20065 13.081 7.21413C13.1354 7.25043 13.1501 7.32392 13.1138 7.37826C13.0407 7.48772 12.962 7.59562 12.8798 7.69885C12.8578 7.72646 12.8259 7.74172 12.7932 7.74339C12.7912 7.7435 12.7892 7.7435 12.7872 7.7435ZM13.3278 6.8853C13.3104 6.8853 13.2928 6.88152 13.2762 6.87339C13.2175 6.84488 13.193 6.77418 13.2215 6.71538C13.2761 6.60258 13.3267 6.48622 13.3716 6.36941C13.3896 6.32242 13.4346 6.29358 13.482 6.29358C13.4962 6.29358 13.5105 6.29614 13.5245 6.30148C13.5855 6.32487 13.6159 6.39335 13.5924 6.45437C13.5452 6.5773 13.4919 6.6999 13.4343 6.8186C13.4148 6.8588 13.3755 6.88308 13.3338 6.88519C13.3318 6.8853 13.3298 6.8853 13.3278 6.8853ZM13.667 5.92901C13.6581 5.92901 13.6491 5.92801 13.6399 5.92589C13.5763 5.91097 13.5368 5.84739 13.5516 5.7838C13.58 5.66198 13.6037 5.53738 13.6218 5.41345C13.6303 5.35454 13.6811 5.31223 13.7388 5.31223C13.7445 5.31223 13.7502 5.31267 13.756 5.31345C13.8207 5.32292 13.8654 5.38305 13.8559 5.44763C13.8368 5.57825 13.812 5.70942 13.782 5.83759C13.7698 5.89004 13.7242 5.92622 13.6729 5.9289C13.671 5.92901 13.669 5.92901 13.667 5.92901ZM13.7871 4.92227C13.7868 4.92227 13.7866 4.92227 13.7862 4.92227C13.7277 4.9216 13.6795 4.87851 13.6705 4.82261C13.7483 4.82272 13.8264 4.82372 13.9037 4.82551C13.894 4.87873 13.8487 4.91927 13.7936 4.92205C13.7915 4.92216 13.7892 4.92227 13.7871 4.92227Z" fill="white"/>
</g>
</mask>
<g mask="url(#mask26_1_2972)">
<g id="g458">
<path id="path470" d="M12.0726 8.46306C12.0381 8.46306 12.0038 8.44803 11.9804 8.41907C11.9395 8.36819 11.9474 8.29369 11.9983 8.25271C12.0957 8.17399 12.191 8.09025 12.2815 8.00384C12.3044 7.9819 12.3338 7.97099 12.3632 7.97099C12.3943 7.97099 12.4255 7.98324 12.4488 8.00763C12.4939 8.05484 12.4922 8.12967 12.445 8.17488C12.3497 8.26585 12.2495 8.35393 12.1468 8.43678C12.1266 8.45304 12.1027 8.46161 12.0787 8.46283C12.0766 8.46295 12.0746 8.46306 12.0726 8.46306ZM12.7872 7.7435C12.7614 7.7435 12.7353 7.73503 12.7136 7.71778C12.6625 7.67713 12.654 7.60264 12.6947 7.55153C12.7727 7.45342 12.8475 7.35087 12.917 7.24687C12.9397 7.21268 12.9773 7.1942 13.0155 7.1942C13.0381 7.1942 13.0609 7.20065 13.081 7.21413C13.1354 7.25043 13.1501 7.32392 13.1138 7.37826C13.0407 7.48772 12.962 7.59562 12.8798 7.69885C12.8578 7.72646 12.8259 7.74172 12.7932 7.74339C12.7912 7.7435 12.7892 7.7435 12.7872 7.7435ZM13.3278 6.8853C13.3104 6.8853 13.2928 6.88152 13.2762 6.87339C13.2175 6.84488 13.193 6.77418 13.2215 6.71538C13.2761 6.60258 13.3267 6.48622 13.3716 6.36941C13.3896 6.32242 13.4346 6.29358 13.482 6.29358C13.4962 6.29358 13.5105 6.29614 13.5245 6.30148C13.5855 6.32487 13.6159 6.39335 13.5924 6.45437C13.5452 6.5773 13.4919 6.6999 13.4343 6.8186C13.4148 6.8588 13.3755 6.88308 13.3338 6.88519C13.3318 6.8853 13.3298 6.8853 13.3278 6.8853ZM13.667 5.92901C13.6581 5.92901 13.6491 5.92801 13.6399 5.92589C13.5763 5.91097 13.5368 5.84739 13.5516 5.7838C13.58 5.66198 13.6037 5.53738 13.6218 5.41345C13.6303 5.35454 13.6811 5.31223 13.7388 5.31223C13.7445 5.31223 13.7502 5.31267 13.756 5.31345C13.8207 5.32292 13.8654 5.38305 13.8559 5.44763C13.8368 5.57825 13.812 5.70942 13.782 5.83759C13.7698 5.89004 13.7242 5.92622 13.6729 5.9289C13.671 5.92901 13.669 5.92901 13.667 5.92901ZM13.7871 4.92227C13.7868 4.92227 13.7866 4.92227 13.7862 4.92227C13.7277 4.9216 13.6795 4.87851 13.6705 4.82261C13.7483 4.82272 13.8264 4.82372 13.9037 4.82551C13.894 4.87873 13.8487 4.91927 13.7936 4.92205C13.7915 4.92216 13.7892 4.92227 13.7871 4.92227Z" fill="url(#paint26_linear_1_2972)"/>
</g>
</g>
</g>
</g>
<path id="path472" d="M13.9037 4.8255C13.8264 4.82372 13.7483 4.82272 13.6705 4.82261C13.6695 4.81615 13.6691 4.80947 13.6692 4.80278C13.6701 4.71058 13.6682 4.61716 13.6635 4.52529C13.6617 4.492 13.6597 4.45882 13.6573 4.42575C13.6526 4.36049 13.7015 4.30381 13.7668 4.29914C13.7703 4.2988 13.7739 4.29858 13.7774 4.29858C13.8386 4.29858 13.8888 4.34691 13.8932 4.40849C13.8958 4.44334 13.898 4.47819 13.8998 4.51327C13.9047 4.60992 13.9067 4.70814 13.9057 4.80512C13.9056 4.81214 13.9049 4.81893 13.9037 4.8255Z" fill="#DEE8FD"/>
<g id="g474">
<g id="Clip path group_28">
<mask id="mask27_1_2972" style="mask-type:luminance" maskUnits="userSpaceOnUse" x="6" y="8" width="1" height="1">
<g id="clipPath480">
<path id="path478" d="M6.72869 8.77763C6.70708 8.77763 6.68537 8.77173 6.66577 8.75948C6.61154 8.7253 6.55709 8.68944 6.50375 8.65269C6.44993 8.61573 6.43634 8.54201 6.47338 8.48823C6.49629 8.45482 6.53337 8.43689 6.5709 8.43689C6.59406 8.43689 6.61744 8.44369 6.63793 8.45783C6.6886 8.49268 6.74038 8.52676 6.79182 8.55916C6.84705 8.5939 6.86376 8.66695 6.8289 8.72229C6.80763 8.75614 6.77189 8.77552 6.7347 8.77741C6.73269 8.77752 6.73069 8.77763 6.72869 8.77763Z" fill="white"/>
</g>
</mask>
<g mask="url(#mask27_1_2972)">
<g id="g476">
<path id="path488" d="M6.72869 8.77763C6.70708 8.77763 6.68537 8.77173 6.66577 8.75948C6.61154 8.7253 6.55709 8.68944 6.50375 8.65269C6.44993 8.61573 6.43634 8.54201 6.47338 8.48823C6.49629 8.45482 6.53337 8.43689 6.5709 8.43689C6.59406 8.43689 6.61744 8.44369 6.63793 8.45783C6.6886 8.49268 6.74038 8.52676 6.79182 8.55916C6.84705 8.5939 6.86376 8.66695 6.8289 8.72229C6.80763 8.75614 6.77189 8.77552 6.7347 8.77741C6.73269 8.77752 6.73069 8.77763 6.72869 8.77763Z" fill="url(#paint27_linear_1_2972)"/>
</g>
</g>
</g>
</g>
<path id="path490" d="M6.82432 7.39925C6.84014 7.41673 6.8653 7.4223 6.88702 7.41306L7.50602 7.14893C7.76447 7.32776 8.05321 7.46673 8.36411 7.55614L8.55129 8.2021C8.55775 8.2247 8.57802 8.24074 8.60162 8.24197L9.40781 8.28227C9.43142 8.2835 9.45313 8.26958 9.46193 8.24775L9.7127 7.62362C10.0308 7.56572 10.3322 7.45637 10.6071 7.30427L11.1966 7.62886C11.2173 7.64022 11.2429 7.63721 11.2604 7.6214L11.859 7.07989C11.8765 7.06408 11.8821 7.03891 11.8728 7.0172L11.6087 6.39819C11.7875 6.13974 11.9265 5.85089 12.0159 5.54011L12.6619 5.35292C12.6845 5.34635 12.7005 5.3262 12.7017 5.30259L12.742 4.4964C12.7433 4.47279 12.7293 4.45108 12.7074 4.44228L12.0834 4.19152C12.0255 3.87327 11.9161 3.57206 11.764 3.29702L12.0886 2.70752C12.1 2.68692 12.097 2.66131 12.0812 2.64383L11.5397 2.0452C11.5238 2.0276 11.4987 2.02215 11.477 2.03139L10.858 2.29552C10.5995 2.11668 10.3108 1.97772 9.99988 1.8883L9.81269 1.24235C9.80612 1.21963 9.78597 1.20371 9.76236 1.20248L8.95617 1.16217C8.93256 1.16095 8.91085 1.17487 8.90205 1.19669L8.65129 1.82082C8.33315 1.87873 8.03183 1.98807 7.75679 2.14018L7.16729 1.81559C7.14669 1.80412 7.12108 1.80713 7.1036 1.82294L6.50497 2.36456C6.48748 2.38037 6.48192 2.40553 6.49116 2.42725L6.75529 3.04626C6.57645 3.30459 6.43751 3.59344 6.34808 3.90434L5.70209 4.09152C5.67945 4.09798 5.66344 4.11825 5.66227 4.14185L5.6219 4.94805C5.62072 4.97154 5.63461 4.99326 5.6565 5.00216L6.28055 5.25293C6.33847 5.57106 6.44784 5.87238 6.59995 6.14731L6.27534 6.73681C6.26395 6.75752 6.26694 6.78314 6.28276 6.80062L6.82432 7.39925Z" fill="#91B3FA"/>
<path id="path492" d="M9.15162 4.10038C9.12111 4.10183 9.0906 4.10561 9.06008 4.11174C8.72369 4.17899 8.50477 4.50737 8.57192 4.84377C8.63917 5.18016 8.96744 5.39931 9.30395 5.33194C9.64034 5.26468 9.85926 4.9363 9.79212 4.59991C9.75949 4.437 9.6654 4.29647 9.52721 4.20427C9.41485 4.12933 9.28413 4.09359 9.15162 4.10038ZM9.22277 5.53226C8.8278 5.55242 8.46613 5.28005 8.38629 4.88085C8.29866 4.44212 8.58428 4.01386 9.023 3.92611C9.23558 3.88358 9.45193 3.92645 9.63221 4.04671C9.81249 4.16697 9.9352 4.35025 9.97774 4.56282C10.0654 5.00155 9.77976 5.42982 9.34103 5.51756C9.3015 5.52536 9.26197 5.53026 9.22277 5.53226Z" fill="#BDD0FB"/>
<path id="path494" d="M9.29886 6.70162C9.23104 6.70507 9.16267 6.70507 9.09386 6.70173C9.07226 6.70062 9.05065 6.69917 9.02894 6.69739C8.92249 6.68859 8.81681 6.67133 8.71359 6.64594C8.71225 6.64561 8.71081 6.64528 8.70936 6.64494C8.70546 6.64394 8.70145 6.64294 8.69744 6.64182C8.68965 6.63993 8.68197 6.63782 8.67428 6.63581C8.65391 6.63035 8.64032 6.61254 8.63921 6.59261C8.63898 6.58771 8.63954 6.5827 8.64077 6.5778C8.64756 6.55252 8.67361 6.53771 8.69878 6.54439C8.82862 6.57924 8.96313 6.6004 9.09854 6.60708C9.77122 6.64093 10.3808 6.3189 10.7444 5.80668C10.9469 5.52184 11.073 5.17821 11.0917 4.80406C11.0951 4.73848 11.0951 4.67322 11.0917 4.60842C11.0695 4.17292 10.8996 3.7618 10.603 3.43409C10.2625 3.05761 9.79571 2.83624 9.28873 2.81085C8.24168 2.75852 7.34796 3.56738 7.29552 4.61398C7.29229 4.67846 7.2924 4.74293 7.29563 4.80707C7.30988 5.08478 7.38471 5.35648 7.51577 5.60213C7.51911 5.60847 7.52089 5.61515 7.52123 5.62195C7.52212 5.63965 7.51299 5.65724 7.49628 5.66604C7.47312 5.67829 7.44451 5.66972 7.43215 5.64655C7.29463 5.38866 7.21601 5.1036 7.20109 4.81186C7.19764 4.7446 7.19764 4.67701 7.20098 4.60919C7.25599 3.51037 8.19502 2.66131 9.29351 2.71631C9.82578 2.74293 10.3157 2.97532 10.6733 3.37051C10.9845 3.71459 11.1629 4.1463 11.1863 4.60341C11.1897 4.67144 11.1897 4.73992 11.1864 4.80874C11.1597 5.34112 10.9274 5.83107 10.5321 6.18862C10.188 6.49996 9.75618 6.67824 9.29886 6.70162Z" fill="#BDD0FB"/>
<path id="path496" d="M0.758159 8.91418C0.727971 8.91418 0.699744 8.89537 0.689221 8.86519C0.668743 8.80673 0.649735 8.74671 0.632799 8.68703C0.621786 8.64816 0.644312 8.60785 0.683141 8.59672C0.689855 8.59483 0.696614 8.59394 0.703262 8.59394C0.735064 8.59394 0.764272 8.61498 0.773392 8.64705C0.789538 8.70406 0.807633 8.76119 0.827164 8.81709C0.840493 8.85506 0.820405 8.89681 0.782322 8.91018C0.775552 8.91251 0.768682 8.91374 0.761867 8.91407C0.760631 8.91419 0.759395 8.91418 0.758159 8.91418Z" fill="#DEE8FD"/>
<path id="path498" d="M0.622078 8.36829C0.586612 8.36829 0.555478 8.34234 0.549943 8.30626C0.533708 8.2007 0.522706 8.09313 0.517284 7.98646C0.516137 7.96408 0.515246 7.94147 0.514556 7.91887C0.513387 7.87856 0.547327 7.84626 0.585409 7.84359C0.586155 7.84359 0.58689 7.84359 0.587625 7.84359C0.626988 7.84359 0.659447 7.87488 0.66065 7.91441C0.661296 7.93602 0.662131 7.95762 0.663222 7.979C0.668411 8.08077 0.678901 8.18333 0.694345 8.2841C0.700503 8.32397 0.673133 8.36127 0.633258 8.36739C0.63073 8.36773 0.628247 8.36806 0.625786 8.36818C0.62455 8.36818 0.623303 8.36829 0.622078 8.36829ZM0.599184 7.60986C0.597035 7.60986 0.594863 7.60975 0.592714 7.60964C0.552505 7.60585 0.522941 7.57033 0.526638 7.53013C0.538508 7.40119 0.558495 7.2718 0.586044 7.14575C0.593504 7.11145 0.623949 7.08829 0.657499 7.08829C0.662621 7.08829 0.66781 7.08885 0.67301 7.08996C0.712462 7.09853 0.737405 7.1374 0.72882 7.17693C0.702541 7.29719 0.6835 7.42056 0.672153 7.5435C0.668756 7.58013 0.638936 7.60797 0.603226 7.60975C0.601889 7.60986 0.600531 7.60986 0.599184 7.60986ZM0.761591 6.8687C0.753496 6.8687 0.745256 6.86737 0.737194 6.86447C0.699145 6.85111 0.679213 6.80935 0.692642 6.77127C0.735724 6.64934 0.786891 6.52885 0.844805 6.41305C0.857588 6.38744 0.88331 6.37263 0.910102 6.37263C0.921115 6.37263 0.932295 6.37508 0.94284 6.38042C0.978918 6.39846 0.993549 6.44233 0.975521 6.47841C0.920313 6.58876 0.871507 6.70368 0.830452 6.81993C0.820263 6.84866 0.793917 6.86714 0.765233 6.86859C0.764019 6.8687 0.762805 6.8687 0.761591 6.8687ZM1.10078 6.19001C1.08687 6.19001 1.07283 6.186 1.06038 6.17776C1.0268 6.15538 1.01766 6.10994 1.04003 6.07643C1.11181 5.96864 1.19088 5.8643 1.27513 5.76642C1.28958 5.74961 1.30999 5.74103 1.33051 5.74103C1.34741 5.74103 1.36438 5.74694 1.37817 5.75874C1.40876 5.78502 1.41221 5.83112 1.38589 5.86174C1.30557 5.95505 1.23011 6.0546 1.16169 6.15738C1.14835 6.17743 1.12685 6.18878 1.10451 6.1899C1.10327 6.1899 1.10202 6.19001 1.10078 6.19001ZM1.59551 5.61476C1.57564 5.61476 1.55584 5.60663 1.5414 5.59082C1.51428 5.56098 1.51649 5.51477 1.54633 5.4876C1.64208 5.40063 1.74407 5.31868 1.84953 5.24418C1.86234 5.23505 1.87708 5.23071 1.89166 5.23071C1.91458 5.23071 1.93713 5.2414 1.95137 5.26155C1.97467 5.29462 1.96685 5.34017 1.9339 5.36344C1.83329 5.43459 1.73599 5.51276 1.64466 5.59572C1.63164 5.60752 1.61554 5.61387 1.59925 5.61465C1.598 5.61476 1.59676 5.61476 1.59551 5.61476ZM2.21482 5.17703C2.18879 5.17703 2.16355 5.16312 2.15036 5.13851C2.1313 5.10299 2.1447 5.05867 2.18024 5.03962C2.29423 4.97849 2.41313 4.92393 2.53359 4.8775C2.54224 4.87416 2.55113 4.8726 2.55986 4.8726C2.58924 4.8726 2.61687 4.89041 2.62807 4.91936C2.6426 4.957 2.62382 4.99932 2.58619 5.01379C2.47131 5.05811 2.35799 5.11011 2.24932 5.16835C2.23948 5.17369 2.22897 5.17648 2.21853 5.17692C2.21729 5.17703 2.21606 5.17703 2.21482 5.17703ZM2.92213 4.90411C2.88936 4.90411 2.85955 4.88195 2.85129 4.84877C2.84153 4.80957 2.86539 4.76993 2.90454 4.76013C3.02964 4.72895 3.15832 4.70535 3.28707 4.68965C3.28975 4.68942 3.29242 4.6892 3.29506 4.6892C3.332 4.6892 3.36391 4.71615 3.36841 4.75345C3.37328 4.79354 3.34472 4.82995 3.30467 4.83485C3.18186 4.84966 3.05912 4.87226 2.93985 4.90199C2.93515 4.90322 2.93047 4.90378 2.92584 4.90411C2.92459 4.90411 2.92336 4.90411 2.92213 4.90411ZM4.05464 4.83719C4.05162 4.83719 4.04856 4.83696 4.04549 4.83652C3.93979 4.82327 3.83151 4.81558 3.72361 4.81369C3.7081 4.81336 3.69285 4.81313 3.67764 4.81313C3.67683 4.81313 3.67603 4.81313 3.67522 4.81313C3.63485 4.81302 3.60218 4.7804 3.60222 4.73998C3.60221 4.70022 3.63404 4.66693 3.67323 4.66693C3.67393 4.66693 3.67464 4.66693 3.67535 4.66693C3.69242 4.66704 3.70947 4.66715 3.72661 4.6676C3.83932 4.6696 3.95283 4.67773 4.06368 4.69165C4.10375 4.69666 4.13211 4.73318 4.12708 4.77316C4.12261 4.8089 4.09312 4.83529 4.05837 4.83707C4.05714 4.83707 4.0559 4.83719 4.05464 4.83719Z" fill="#DEE8FD"/>
<path id="path500" d="M3.45096 10.9718C3.33708 10.9639 3.2228 10.9499 3.11069 10.9299C3.07096 10.9228 3.04448 10.8849 3.05156 10.8452C3.05785 10.8097 3.08893 10.785 3.12363 10.785C3.12782 10.785 3.13205 10.7853 3.1363 10.7861C3.25574 10.8073 3.37775 10.8215 3.49894 10.8284C3.50409 10.8286 3.50907 10.8295 3.51386 10.8307C3.49259 10.8775 3.47159 10.9246 3.45096 10.9718Z" fill="#DEE8FD"/>
<path id="path502" d="M3.49497 10.9738C3.49356 10.9738 3.49214 10.9738 3.4907 10.9736C3.47745 10.9729 3.46419 10.9721 3.45093 10.9712C3.47156 10.924 3.49256 10.8769 3.51383 10.8301C3.54652 10.8389 3.56974 10.8696 3.56776 10.9047C3.56564 10.9425 3.53541 10.9717 3.49863 10.9736C3.49741 10.9738 3.49619 10.9738 3.49497 10.9738Z" fill="#DEE8FD"/>
<g id="g504">
<g id="Clip path group_29">
<mask id="mask28_1_2972" style="mask-type:luminance" maskUnits="userSpaceOnUse" x="4" y="10" width="1" height="1">
<g id="clipPath510">
<path id="path508" d="M4.03955 10.9572C4.06404 10.9046 4.08914 10.8519 4.11446 10.7998C4.15188 10.7942 4.18914 10.788 4.22612 10.7811C4.23049 10.7803 4.23485 10.78 4.23915 10.78C4.27373 10.78 4.3048 10.8042 4.31141 10.8395C4.31882 10.8792 4.29266 10.9173 4.25301 10.9248C4.18257 10.9379 4.11122 10.9487 4.03955 10.9572Z" fill="white"/>
</g>
</mask>
<g mask="url(#mask28_1_2972)">
<g id="g506">
<path id="path518" d="M4.03955 10.9572C4.06404 10.9046 4.08914 10.8519 4.11446 10.7998C4.15188 10.7942 4.18914 10.788 4.22612 10.7811C4.23049 10.7803 4.23485 10.78 4.23915 10.78C4.27373 10.78 4.3048 10.8042 4.31141 10.8395C4.31882 10.8792 4.29266 10.9173 4.25301 10.9248C4.18257 10.9379 4.11122 10.9487 4.03955 10.9572Z" fill="url(#paint28_linear_1_2972)"/>
</g>
</g>
</g>
</g>
<path id="path520" d="M3.86878 10.9726C3.83056 10.9726 3.79841 10.9429 3.79593 10.9042C3.79335 10.8639 3.8239 10.8292 3.86418 10.8266C3.94774 10.8213 4.03155 10.8124 4.11453 10.8001C4.08921 10.8522 4.06411 10.9049 4.03962 10.9575C3.98435 10.9639 3.92888 10.9689 3.87353 10.9725L3.87253 10.9726C3.87127 10.9726 3.87002 10.9726 3.86878 10.9726Z" fill="#DEE8FD"/>
<path id="path522" d="M2.76009 10.8428C2.75298 10.8428 2.74574 10.8417 2.73856 10.8395C2.6169 10.802 2.49633 10.7567 2.38026 10.7046C2.34341 10.6881 2.32695 10.6449 2.34343 10.608C2.35559 10.581 2.38229 10.5649 2.41023 10.5649C2.42019 10.5649 2.4303 10.567 2.43998 10.5713C2.55068 10.6208 2.6656 10.6641 2.78159 10.6998C2.82014 10.7117 2.8418 10.7526 2.82991 10.7912C2.82062 10.8213 2.79359 10.8411 2.7638 10.8427C2.76256 10.8427 2.76133 10.8428 2.76009 10.8428Z" fill="#DEE8FD"/>
<g id="g524">
<g id="Clip path group_30">
<mask id="mask29_1_2972" style="mask-type:luminance" maskUnits="userSpaceOnUse" x="4" y="8" width="3" height="3">
<g id="clipPath530">
<path id="path528" d="M4.60214 10.8352C4.57117 10.8352 4.5424 10.8154 4.5325 10.7843C4.52029 10.7459 4.54152 10.7048 4.57998 10.6926C4.69582 10.6557 4.81035 10.6115 4.92044 10.5611C4.93032 10.5566 4.94067 10.5545 4.95082 10.5545C4.97857 10.5545 5.00501 10.5702 5.01728 10.5971C5.03409 10.6338 5.01795 10.6772 4.98125 10.694C4.86583 10.7468 4.74572 10.7931 4.6243 10.8318C4.61816 10.8338 4.61195 10.8349 4.60583 10.8352C4.60459 10.8352 4.60337 10.8352 4.60214 10.8352ZM5.28043 10.5246C5.25586 10.5246 5.23185 10.5123 5.2181 10.4899C5.19694 10.4554 5.20772 10.4104 5.24209 10.3893C5.34542 10.3259 5.44595 10.2555 5.54087 10.1799C5.55432 10.1692 5.57038 10.164 5.58631 10.164C5.60784 10.164 5.62914 10.1734 5.64357 10.1916C5.66868 10.2232 5.66346 10.2692 5.63188 10.2943C5.53231 10.3734 5.42693 10.4474 5.3186 10.514C5.3078 10.5205 5.29594 10.524 5.28413 10.5245C5.2829 10.5246 5.28166 10.5246 5.28043 10.5246ZM5.8644 10.0604C5.84585 10.0604 5.82734 10.0534 5.81311 10.0394C5.78437 10.0111 5.78403 9.96476 5.81236 9.93603C5.89767 9.84951 5.97849 9.75698 6.05252 9.66122C6.06693 9.64251 6.08857 9.63271 6.11042 9.63271C6.12603 9.63271 6.14175 9.63772 6.15503 9.64797C6.18698 9.67269 6.19285 9.71856 6.16818 9.75041C6.09056 9.85096 6.00588 9.94795 5.91646 10.0387C5.90312 10.0522 5.88577 10.0594 5.86817 10.0603C5.86692 10.0604 5.86566 10.0604 5.8644 10.0604ZM6.32042 9.46958C6.30774 9.46958 6.2949 9.46635 6.28321 9.45933C6.2485 9.43873 6.23711 9.39386 6.25773 9.35912C6.3199 9.25467 6.37613 9.14554 6.42491 9.03464C6.43697 9.00735 6.46376 8.99099 6.4919 8.99099C6.5017 8.99099 6.51161 8.99299 6.52118 8.99722C6.55815 9.01348 6.57497 9.05657 6.55871 9.09354C6.50749 9.20979 6.44851 9.32437 6.38337 9.43394C6.37038 9.45566 6.34778 9.46824 6.32421 9.46947C6.32295 9.46958 6.32169 9.46958 6.32042 9.46958Z" fill="white"/>
</g>
</mask>
<g mask="url(#mask29_1_2972)">
<g id="g526">
<path id="path538" d="M4.60214 10.8352C4.57117 10.8352 4.5424 10.8154 4.5325 10.7843C4.52029 10.7459 4.54152 10.7048 4.57998 10.6926C4.69582 10.6557 4.81035 10.6115 4.92044 10.5611C4.93032 10.5566 4.94067 10.5545 4.95082 10.5545C4.97857 10.5545 5.00501 10.5702 5.01728 10.5971C5.03409 10.6338 5.01795 10.6772 4.98125 10.694C4.86583 10.7468 4.74572 10.7931 4.6243 10.8318C4.61816 10.8338 4.61195 10.8349 4.60583 10.8352C4.60459 10.8352 4.60337 10.8352 4.60214 10.8352ZM5.28043 10.5246C5.25586 10.5246 5.23185 10.5123 5.2181 10.4899C5.19694 10.4554 5.20772 10.4104 5.24209 10.3893C5.34542 10.3259 5.44595 10.2555 5.54087 10.1799C5.55432 10.1692 5.57038 10.164 5.58631 10.164C5.60784 10.164 5.62914 10.1734 5.64357 10.1916C5.66868 10.2232 5.66346 10.2692 5.63188 10.2943C5.53231 10.3734 5.42693 10.4474 5.3186 10.514C5.3078 10.5205 5.29594 10.524 5.28413 10.5245C5.2829 10.5246 5.28166 10.5246 5.28043 10.5246ZM5.8644 10.0604C5.84585 10.0604 5.82734 10.0534 5.81311 10.0394C5.78437 10.0111 5.78403 9.96476 5.81236 9.93603C5.89767 9.84951 5.97849 9.75698 6.05252 9.66122C6.06693 9.64251 6.08857 9.63271 6.11042 9.63271C6.12603 9.63271 6.14175 9.63772 6.15503 9.64797C6.18698 9.67269 6.19285 9.71856 6.16818 9.75041C6.09056 9.85096 6.00588 9.94795 5.91646 10.0387C5.90312 10.0522 5.88577 10.0594 5.86817 10.0603C5.86692 10.0604 5.86566 10.0604 5.8644 10.0604ZM6.32042 9.46958C6.30774 9.46958 6.2949 9.46635 6.28321 9.45933C6.2485 9.43873 6.23711 9.39386 6.25773 9.35912C6.3199 9.25467 6.37613 9.14554 6.42491 9.03464C6.43697 9.00735 6.46376 8.99099 6.4919 8.99099C6.5017 8.99099 6.51161 8.99299 6.52118 8.99722C6.55815 9.01348 6.57497 9.05657 6.55871 9.09354C6.50749 9.20979 6.44851 9.32437 6.38337 9.43394C6.37038 9.45566 6.34778 9.46824 6.32421 9.46947C6.32295 9.46958 6.32169 9.46958 6.32042 9.46958Z" fill="url(#paint29_linear_1_2972)"/>
</g>
</g>
</g>
</g>
<g id="g540">
<g id="Clip path group_31">
<mask id="mask30_1_2972" style="mask-type:luminance" maskUnits="userSpaceOnUse" x="1" y="10" width="2" height="1">
<g id="clipPath546">
<path id="path544" d="M2.07585 10.5363C2.06297 10.5363 2.04992 10.5328 2.03809 10.5257C1.98455 10.4934 1.93177 10.4592 1.88113 10.4243C1.84792 10.4015 1.83948 10.356 1.86236 10.3227C1.87658 10.3022 1.89944 10.2912 1.92271 10.2912C1.93697 10.2912 1.95137 10.2953 1.96402 10.304C2.01229 10.3373 2.06268 10.3698 2.11374 10.4006C2.14827 10.4216 2.15932 10.4665 2.13843 10.501C2.12537 10.5226 2.10297 10.5349 2.07956 10.5361C2.07832 10.5363 2.07709 10.5363 2.07585 10.5363Z" fill="white"/>
</g>
</mask>
<g mask="url(#mask30_1_2972)">
<g id="g542">
<path id="path554" d="M2.07585 10.5363C2.06297 10.5363 2.04992 10.5328 2.03809 10.5257C1.98455 10.4934 1.93177 10.4592 1.88113 10.4243C1.84792 10.4015 1.83948 10.356 1.86236 10.3227C1.87658 10.3022 1.89944 10.2912 1.92271 10.2912C1.93697 10.2912 1.95137 10.2953 1.96402 10.304C2.01229 10.3373 2.06268 10.3698 2.11374 10.4006C2.14827 10.4216 2.15932 10.4665 2.13843 10.501C2.12537 10.5226 2.10297 10.5349 2.07956 10.5361C2.07832 10.5363 2.07709 10.5363 2.07585 10.5363Z" fill="url(#paint30_linear_1_2972)"/>
</g>
</g>
</g>
</g>
<path id="path556" d="M2.09213 9.58979C2.10271 9.60149 2.11957 9.60527 2.13408 9.59903L2.54829 9.42232C2.72122 9.54191 2.91448 9.63489 3.12248 9.6948L3.24771 10.1271C3.2521 10.1422 3.26563 10.1529 3.2814 10.1537L3.82089 10.1807C3.83666 10.1815 3.85118 10.1722 3.85708 10.1576L4.02488 9.74001C4.23781 9.70115 4.43939 9.62799 4.62341 9.52621L5.01789 9.74346C5.0317 9.75103 5.04885 9.74903 5.06056 9.73845L5.46114 9.37611C5.47284 9.36553 5.47655 9.3486 5.47034 9.33413L5.29361 8.9199C5.41329 8.74697 5.50626 8.55377 5.56609 8.34576L5.99835 8.22049C6.01351 8.21615 6.02421 8.20256 6.02501 8.18686L6.05203 7.64736C6.05282 7.63155 6.04352 7.61707 6.02887 7.61117L5.61128 7.44336C5.57252 7.23046 5.49934 7.0288 5.39753 6.84484L5.61477 6.45032C5.62237 6.43651 5.62038 6.41936 5.6098 6.40767L5.24743 6.00714C5.23684 5.99534 5.21999 5.99166 5.20547 5.9979L4.79127 6.17461C4.61834 6.05491 4.42508 5.96193 4.21708 5.90213L4.09183 5.46986C4.08745 5.45472 4.07393 5.44403 4.05815 5.44325L3.51866 5.41619C3.50289 5.41541 3.48837 5.42465 3.48248 5.43935L3.31468 5.85692C3.10174 5.89567 2.90016 5.96883 2.71613 6.07072L2.32167 5.85347C2.30784 5.84579 2.2907 5.84779 2.27899 5.85837L1.87842 6.22082C1.86672 6.2314 1.86301 6.24822 1.86922 6.2628L2.04594 6.67692C1.92626 6.84985 1.8333 7.04316 1.77346 7.25117L1.34119 7.37644C1.32605 7.38078 1.31533 7.39437 1.31456 7.41007L1.28752 7.94957C1.28674 7.96538 1.29604 7.97986 1.31068 7.98576L1.72827 8.15357C1.76704 8.36647 1.84022 8.56802 1.94202 8.75209L1.72478 9.14661C1.71716 9.16042 1.71917 9.17757 1.72975 9.18926L2.09213 9.58979Z" fill="#91B3FA"/>
<path id="path558" d="M3.64937 7.39262C3.62973 7.39363 3.60996 7.39608 3.59012 7.39997C3.37029 7.44396 3.22721 7.65853 3.27115 7.87834C3.29243 7.9848 3.35388 8.07677 3.44422 8.1369C3.53461 8.19726 3.64298 8.21852 3.7495 8.19737C3.85598 8.1761 3.94785 8.11463 4.00808 8.02433C4.06835 7.93391 4.08981 7.82556 4.06852 7.719C4.02857 7.51901 3.84731 7.38249 3.64937 7.39262ZM3.69679 8.35081C3.57907 8.35683 3.46299 8.32509 3.36315 8.2585C3.24033 8.17666 3.15676 8.05172 3.12785 7.90696C3.06811 7.6082 3.26263 7.31646 3.56148 7.25666C3.86085 7.19742 4.15211 7.39162 4.21182 7.69038C4.24077 7.83525 4.21159 7.98257 4.12968 8.10539C4.04777 8.22821 3.92292 8.31184 3.7781 8.34068C3.75104 8.34614 3.72385 8.34948 3.69679 8.35081Z" fill="#BDD0FB"/>
<path id="path560" d="M3.74877 9.16535C3.70259 9.16768 3.65594 9.16769 3.6088 9.16546C3.51521 9.16078 3.422 9.14653 3.33153 9.12314C3.32748 9.12203 3.32342 9.12103 3.31936 9.11991C3.28799 9.11156 3.2669 9.08395 3.2653 9.0531C3.26492 9.04564 3.2657 9.03796 3.26774 9.03039C3.2782 8.99141 3.31833 8.96847 3.35726 8.97883C3.4415 9.00143 3.52858 9.01513 3.61605 9.01947H3.61608C3.62088 9.0197 3.6257 9.01981 3.63048 9.02003C3.83757 9.02838 4.03891 8.98484 4.22003 8.89565C4.31834 8.84721 4.41071 8.78519 4.49475 8.71047L4.4968 8.70869C4.49889 8.7068 4.50097 8.7049 4.50303 8.70301C4.74671 8.48253 4.89001 8.18043 4.90644 7.85217C4.9086 7.80974 4.90855 7.76743 4.90641 7.72556C4.89202 7.44361 4.78199 7.17748 4.59005 6.96524C4.36957 6.7216 4.06739 6.57829 3.73921 6.56192C3.41121 6.54556 3.09601 6.6578 2.85227 6.87828C2.60858 7.09876 2.46529 7.40097 2.44885 7.72912C2.44673 7.77088 2.44678 7.81264 2.4489 7.85406C2.45811 8.034 2.50653 8.20972 2.59137 8.36873C2.5966 8.37864 2.59938 8.389 2.59987 8.39946C2.60126 8.42675 2.58711 8.45391 2.5613 8.46761C2.52564 8.48654 2.48145 8.47318 2.46242 8.43755C2.3675 8.2596 2.31328 8.06285 2.30296 7.86163C2.30059 7.8152 2.30053 7.76854 2.30287 7.72188C2.32128 7.35453 2.48157 7.01658 2.75426 6.76982C3.02692 6.52329 3.3791 6.39723 3.7465 6.41594C4.11372 6.43431 4.45177 6.59455 4.69842 6.86725C4.91318 7.10466 5.03624 7.40241 5.05235 7.71788C5.05473 7.76464 5.05479 7.81197 5.05242 7.85952C5.01678 8.57039 4.44496 9.12982 3.74877 9.16535Z" fill="#BDD0FB"/>
</g>
</g>
</g>
<defs>
<linearGradient id="paint0_linear_1_2972" x1="35.1104" y1="40.4221" x2="7.36727" y2="5.96687" gradientUnits="userSpaceOnUse">
<stop stop-color="#DAE3FE"/>
<stop offset="1" stop-color="#E9EFFD"/>
</linearGradient>
<linearGradient id="paint1_linear_1_2972" x1="39.8523" y1="17.5811" x2="-19.6173" y2="12.8236" gradientUnits="userSpaceOnUse">
<stop stop-color="#4F52FF"/>
<stop offset="1" stop-color="#4042E2"/>
</linearGradient>
<linearGradient id="paint2_linear_1_2972" x1="38.4724" y1="3.04299" x2="-57.4315" y2="50.856" gradientUnits="userSpaceOnUse">
<stop stop-color="#4F52FF"/>
<stop offset="1" stop-color="#4042E2"/>
</linearGradient>
<linearGradient id="paint3_linear_1_2972" x1="48.3579" y1="-8.57963" x2="-34.0639" y2="48.4068" gradientUnits="userSpaceOnUse">
<stop stop-color="#4F52FF"/>
<stop offset="1" stop-color="#4042E2"/>
</linearGradient>
<linearGradient id="paint4_linear_1_2972" x1="30.8157" y1="-21.2181" x2="8.30025" y2="26.8359" gradientUnits="userSpaceOnUse">
<stop stop-color="#FF928E"/>
<stop offset="1" stop-color="#FE7062"/>
</linearGradient>
<linearGradient id="paint5_linear_1_2972" x1="28.9542" y1="19.0594" x2="40.1999" y2="22.7771" gradientUnits="userSpaceOnUse">
<stop stop-color="#4F52FF"/>
<stop offset="1" stop-color="#4042E2"/>
</linearGradient>
<linearGradient id="paint6_linear_1_2972" x1="29.1886" y1="18.0412" x2="40.9276" y2="19.6162" gradientUnits="userSpaceOnUse">
<stop stop-color="#4F52FF"/>
<stop offset="1" stop-color="#4042E2"/>
</linearGradient>
<linearGradient id="paint7_linear_1_2972" x1="12.8744" y1="11.8168" x2="24.687" y2="17.7828" gradientUnits="userSpaceOnUse">
<stop stop-color="#09005D"/>
<stop offset="1" stop-color="#1A0F91"/>
</linearGradient>
<linearGradient id="paint8_linear_1_2972" x1="14.9013" y1="15.0515" x2="24.7885" y2="18.3201" gradientUnits="userSpaceOnUse">
<stop stop-color="#09005D"/>
<stop offset="1" stop-color="#1A0F91"/>
</linearGradient>
<linearGradient id="paint9_linear_1_2972" x1="20.892" y1="30.6523" x2="19.2887" y2="30.7083" gradientUnits="userSpaceOnUse">
<stop stop-color="#09005D"/>
<stop offset="1" stop-color="#1A0F91"/>
</linearGradient>
<linearGradient id="paint10_linear_1_2972" x1="20.774" y1="30.0283" x2="20.3654" y2="30.0844" gradientUnits="userSpaceOnUse">
<stop stop-color="#FEBBBA"/>
<stop offset="1" stop-color="#FF928E"/>
</linearGradient>
<linearGradient id="paint11_linear_1_2972" x1="28.8075" y1="27.8505" x2="28.5584" y2="29.4353" gradientUnits="userSpaceOnUse">
<stop stop-color="#09005D"/>
<stop offset="1" stop-color="#1A0F91"/>
</linearGradient>
<linearGradient id="paint12_linear_1_2972" x1="28.1724" y1="27.8483" x2="28.1501" y2="28.2601" gradientUnits="userSpaceOnUse">
<stop stop-color="#FEBBBA"/>
<stop offset="1" stop-color="#FF928E"/>
</linearGradient>
<linearGradient id="paint13_linear_1_2972" x1="20.3118" y1="16.7815" x2="20.9694" y2="16.998" gradientUnits="userSpaceOnUse">
<stop stop-color="#FEBBBA"/>
<stop offset="1" stop-color="#FF928E"/>
</linearGradient>
<linearGradient id="paint14_linear_1_2972" x1="25.1369" y1="25.8178" x2="28.1903" y2="31.7126" gradientUnits="userSpaceOnUse">
<stop stop-color="#09005D"/>
<stop offset="1" stop-color="#1A0F91"/>
</linearGradient>
<linearGradient id="paint15_linear_1_2972" x1="16.9044" y1="28.0703" x2="21.9305" y2="21.8548" gradientUnits="userSpaceOnUse">
<stop stop-color="#FF928E"/>
<stop offset="1" stop-color="#FE7062"/>
</linearGradient>
<linearGradient id="paint16_linear_1_2972" x1="20.8612" y1="26.6399" x2="24.495" y2="27.3811" gradientUnits="userSpaceOnUse">
<stop stop-color="#09005D"/>
<stop offset="1" stop-color="#1A0F91"/>
</linearGradient>
<linearGradient id="paint17_linear_1_2972" x1="22.6744" y1="17.3859" x2="25.0322" y2="23.1848" gradientUnits="userSpaceOnUse">
<stop stop-color="#FEBBBA"/>
<stop offset="1" stop-color="#FF928E"/>
</linearGradient>
<linearGradient id="paint18_linear_1_2972" x1="23.4983" y1="18.4977" x2="23.3237" y2="20.684" gradientUnits="userSpaceOnUse">
<stop stop-color="#FEBBBA"/>
<stop offset="1" stop-color="#FF928E"/>
</linearGradient>
<linearGradient id="paint19_linear_1_2972" x1="23.9724" y1="19.4847" x2="22.792" y2="18.4347" gradientUnits="userSpaceOnUse">
<stop stop-color="#09005D"/>
<stop offset="1" stop-color="#1A0F91"/>
</linearGradient>
<linearGradient id="paint20_linear_1_2972" x1="24.0248" y1="20.82" x2="23.9554" y2="19.3017" gradientUnits="userSpaceOnUse">
<stop stop-color="#FEBBBA"/>
<stop offset="1" stop-color="#FF928E"/>
</linearGradient>
<linearGradient id="paint21_linear_1_2972" x1="26.2377" y1="17.9944" x2="26.6415" y2="18.0768" gradientUnits="userSpaceOnUse">
<stop stop-color="#FEBBBA"/>
<stop offset="1" stop-color="#FF928E"/>
</linearGradient>
<linearGradient id="paint22_linear_1_2972" x1="35.1104" y1="40.4221" x2="7.36727" y2="5.96691" gradientUnits="userSpaceOnUse">
<stop stop-color="#C4D5FD"/>
<stop offset="1" stop-color="#CEDDFC"/>
</linearGradient>
<linearGradient id="paint23_linear_1_2972" x1="35.1103" y1="40.4226" x2="7.36715" y2="5.96737" gradientUnits="userSpaceOnUse">
<stop stop-color="#C4D5FD"/>
<stop offset="1" stop-color="#CEDDFC"/>
</linearGradient>
<linearGradient id="paint24_linear_1_2972" x1="38.4725" y1="3.04226" x2="-57.4314" y2="50.8553" gradientUnits="userSpaceOnUse">
<stop stop-color="#636FFD"/>
<stop offset="1" stop-color="#5864E9"/>
</linearGradient>
<linearGradient id="paint25_linear_1_2972" x1="38.4725" y1="3.04233" x2="-57.4314" y2="50.8553" gradientUnits="userSpaceOnUse">
<stop stop-color="#636FFD"/>
<stop offset="1" stop-color="#5864E9"/>
</linearGradient>
<linearGradient id="paint26_linear_1_2972" x1="38.4724" y1="3.04264" x2="-57.4315" y2="50.8556" gradientUnits="userSpaceOnUse">
<stop stop-color="#636FFD"/>
<stop offset="1" stop-color="#5864E9"/>
</linearGradient>
<linearGradient id="paint27_linear_1_2972" x1="38.4725" y1="3.04265" x2="-57.4314" y2="50.8556" gradientUnits="userSpaceOnUse">
<stop stop-color="#636FFD"/>
<stop offset="1" stop-color="#5864E9"/>
</linearGradient>
<linearGradient id="paint28_linear_1_2972" x1="38.4724" y1="3.04235" x2="-57.4314" y2="50.8555" gradientUnits="userSpaceOnUse">
<stop stop-color="#636FFD"/>
<stop offset="1" stop-color="#5864E9"/>
</linearGradient>
<linearGradient id="paint29_linear_1_2972" x1="38.4724" y1="3.04265" x2="-57.4314" y2="50.8556" gradientUnits="userSpaceOnUse">
<stop stop-color="#636FFD"/>
<stop offset="1" stop-color="#5864E9"/>
</linearGradient>
<linearGradient id="paint30_linear_1_2972" x1="39.8522" y1="17.581" x2="-19.6173" y2="12.8234" gradientUnits="userSpaceOnUse">
<stop stop-color="#636FFD"/>
<stop offset="1" stop-color="#5864E9"/>
</linearGradient>
<clipPath id="clip0_1_2972">
<rect width="32" height="32" fill="white"/>
</clipPath>
</defs>
</svg>
