<svg width="43" height="30" viewBox="0 0 43 30" fill="none" xmlns="http://www.w3.org/2000/svg">
<g id="Group 917">
<g id="Group 916">
<path id="path240" d="M40.9837 17.3836C40.9625 17.439 40.184 17.1938 39.2445 16.8365C38.3046 16.4787 37.56 16.1443 37.5811 16.0889C37.6023 16.0335 38.3804 16.2787 39.3206 16.6365C40.2598 16.9942 41.0048 17.3286 40.9837 17.3836Z" fill="#33535F"/>
<path id="path244" d="M35.2508 13.5531C35.2508 13.5531 32.3368 13.1906 27.9554 9.70608C23.5747 6.22158 21.2038 1.2697 20.7142 1.3411C20.225 1.4125 17.9842 0.617975 14.7376 9.88532C11.4913 19.1527 13.2942 21.0637 14.1052 20.9705C14.9161 20.8772 20.2887 18.8197 23.7718 18.8867C27.2548 18.9537 31.8537 20.3326 31.8537 20.3326L35.2508 13.5531Z" fill="#0997C4"/>
<path id="path246" d="M41.7712 17.823L40.972 19.7661L40.6135 20.6368C40.1224 21.8306 38.7825 22.4313 37.5643 22.0036L31.2452 20.4485L34.0416 11.9778L40.4616 14.6594C41.694 15.1742 42.2791 16.5876 41.7712 17.823Z" fill="#CF4242"/>
<path id="path248" d="M39.2824 20.6952L37.1658 24.4489L36.1982 24.1363L29.5925 29.0685L27.952 25.4981C27.952 25.4981 31.7957 24.0285 32.5505 22.7108C33.3046 21.3935 32.5101 21.0544 32.5101 21.0544L34.3717 19.1087L39.2824 20.6952Z" fill="#17282F"/>
<path id="path250" d="M15.0828 10.0157C13.3629 15.0324 12.8624 19.4054 13.9648 19.7832C15.0668 20.161 17.3545 16.4007 19.0744 11.3844C20.7942 6.368 21.2948 1.99498 20.1924 1.6172C19.09 1.23906 16.8026 4.99933 15.0828 10.0157Z" fill="#17282F"/>
<path id="path252" d="M42.5483 20.4496L40.8408 20.0853L41.6834 18.0372L43 18.6933L42.5483 20.4496Z" fill="#33535F"/>
<path id="path254" d="M40.5828 18.594C40.5639 18.6501 39.7056 18.4064 38.667 18.0497C37.6273 17.6931 36.8007 17.359 36.8197 17.3029C36.839 17.2472 37.6969 17.4909 38.7362 17.8472C39.7756 18.2038 40.6021 18.5382 40.5828 18.594Z" fill="#33535F"/>
<path id="path256" d="M40.0549 19.8741C40.0487 19.9032 39.8477 19.8763 39.5238 19.8089C39.3624 19.775 39.1708 19.7313 38.9584 19.6792C38.7464 19.6246 38.5242 19.5371 38.2874 19.4555C37.3402 19.12 36.6087 18.7728 36.6265 18.7218C36.648 18.6617 37.4196 18.9215 38.3577 19.2537C38.593 19.3346 38.8127 19.4275 39.0178 19.4912C39.2229 19.5524 39.4076 19.6103 39.562 19.6621C39.871 19.7659 40.0608 19.845 40.0549 19.8741Z" fill="#33535F"/>
<path id="path258" d="M19.4125 8.52862C19.4125 8.52862 16.7863 7.22408 15.7448 10.7042C14.7033 14.184 17.3659 14.4892 17.3659 14.4892C18.2778 12.7319 18.9666 10.7519 19.4125 8.52862Z" fill="#FAFAF9"/>
<path id="path260" d="M21.675 4.28504C21.6899 4.2865 21.6761 4.51746 21.6382 4.93458C21.5981 5.35207 21.5435 5.9568 21.4531 6.70215C21.3821 7.07118 21.3045 7.47483 21.2211 7.90725C21.1788 8.124 21.1347 8.34804 21.0899 8.57901C21.0674 8.69413 21.044 8.81142 21.0207 8.92982C20.9945 9.04785 20.9566 9.1648 20.9245 9.28429C20.7894 9.76261 20.6473 10.2639 20.5005 10.7837C20.4633 10.9138 20.4258 11.0446 20.3883 11.1768C20.3522 11.3094 20.2954 11.4366 20.2495 11.5681C20.1515 11.8293 20.0524 12.0945 19.9522 12.363C19.8513 12.6314 19.7519 12.8966 19.6539 13.1582C19.6021 13.2875 19.5613 13.4209 19.502 13.5447C19.4433 13.669 19.3858 13.7925 19.3282 13.9149C19.0976 14.4034 18.8754 14.8748 18.6634 15.3243C18.6087 15.4358 18.5606 15.5487 18.5031 15.6551C18.4426 15.76 18.3828 15.8635 18.3238 15.9659C18.2062 16.1699 18.0921 16.3677 17.9814 16.5593C17.7599 16.9407 17.5533 17.2963 17.3639 17.6219C16.9435 18.2412 16.5887 18.7323 16.345 19.0729C16.0994 19.4121 15.9577 19.5957 15.9457 19.5877C15.9333 19.5793 16.0517 19.3797 16.2758 19.0263C16.5093 18.6657 16.8364 18.1593 17.2382 17.5374C17.4193 17.2103 17.6167 16.8529 17.8284 16.4697C17.9351 16.2781 18.0451 16.0799 18.1588 15.8762C18.2156 15.7746 18.2732 15.6711 18.3315 15.5666C18.3876 15.4602 18.4342 15.3473 18.487 15.2358C18.694 14.7877 18.9111 14.3178 19.1362 13.8307C19.1927 13.709 19.2495 13.5863 19.3071 13.4624C19.3657 13.3389 19.4058 13.2067 19.4568 13.0781C19.5537 12.8183 19.6521 12.5546 19.7519 12.2883C19.8517 12.0216 19.9504 11.7586 20.0477 11.4992C20.0939 11.3684 20.1511 11.2424 20.1876 11.1109C20.2255 10.9801 20.263 10.85 20.3005 10.7211C20.4506 10.2063 20.5956 9.70942 20.7337 9.23547C20.7668 9.11671 20.8058 9.00122 20.8335 8.88428C20.8579 8.76698 20.8823 8.65078 20.9067 8.53639C20.9551 8.30797 21.0021 8.08575 21.0477 7.87118C21.1395 7.44277 21.2251 7.0435 21.3038 6.67738C21.4091 5.94624 21.4943 5.35061 21.5555 4.9262C21.6185 4.51273 21.6604 4.28431 21.675 4.28504Z" fill="#17282F"/>
</g>
<path id="Vector 13" d="M2.6311 15.2039H9.56313" stroke="#272C3E"/>
<path id="Vector 14" d="M1 6.23308L11.1942 9.08744" stroke="#272C3E"/>
<path id="Vector 15" d="M8.74756 0.932144L13.233 3.78651" stroke="#272C3E"/>
</g>
</svg>
