<svg width="24" height="24" viewBox="0 0 24 24" fill="none" xmlns="http://www.w3.org/2000/svg">
<g id="Idea">
<rect width="24" height="24" fill="white" style="mix-blend-mode:multiply"/>
<g id="Vector">
<path d="M15.7501 18H8.25013V19.5H15.7501V18Z" fill="#161616"/>
<path d="M14.2501 21H9.75013V22.5H14.2501V21Z" fill="#161616"/>
<path d="M12.0001 1.5C10.011 1.5 8.10335 2.29018 6.69683 3.6967C5.2903 5.10322 4.50013 7.01088 4.50013 9C4.44941 10.09 4.65821 11.1765 5.10935 12.17C5.56049 13.1636 6.24108 14.0358 7.09513 14.715C7.84513 15.4125 8.25013 15.81 8.25013 16.5H9.75013C9.75013 15.12 8.91763 14.3475 8.10763 13.605C7.40665 13.0682 6.84798 12.3677 6.48056 11.5649C6.11314 10.7621 5.94818 9.88138 6.00013 9C6.00013 7.4087 6.63227 5.88258 7.75749 4.75736C8.8827 3.63214 10.4088 3 12.0001 3C13.5914 3 15.1175 3.63214 16.2428 4.75736C17.368 5.88258 18.0001 7.4087 18.0001 9C18.0512 9.88203 17.8851 10.7631 17.5163 11.566C17.1476 12.3689 16.5875 13.069 15.8851 13.605C15.0826 14.355 14.2501 15.105 14.2501 16.5H15.7501C15.7501 15.81 16.1476 15.4125 16.9051 14.7075C17.7586 14.0295 18.4389 13.1585 18.89 12.1663C19.3411 11.174 19.5503 10.0888 19.5001 9C19.5001 8.01509 19.3061 7.03982 18.9292 6.12987C18.5523 5.21993 17.9999 4.39314 17.3034 3.6967C16.607 3.00026 15.7802 2.44781 14.8703 2.0709C13.9603 1.69399 12.985 1.5 12.0001 1.5Z" fill="#161616"/>
</g>
</g>
</svg>
