<svg width="24" height="24" viewBox="0 0 24 24" fill="none" xmlns="http://www.w3.org/2000/svg">
<g id="Notification--new">
<rect width="24" height="24" fill="white" style="mix-blend-mode:multiply"/>
<g id="Vector">
<path d="M19.5 12.4394V10.5H18V12.75C18 12.9489 18.0791 13.1396 18.2197 13.2803L20.25 15.3106V16.5H3.75V15.3106L5.78025 13.2803C5.92091 13.1396 5.99996 12.9489 6 12.75V9.75C5.99807 8.69616 6.27424 7.66047 6.80063 6.74752C7.32702 5.83456 8.08498 5.07666 8.99799 4.55035C9.91099 4.02404 10.9467 3.74796 12.0005 3.74998C13.0544 3.75201 14.089 4.03206 15 4.56187V2.88503C14.2861 2.56894 13.5267 2.36749 12.75 2.2881V0.75H11.25V2.2881C9.40101 2.47622 7.68744 3.34326 6.44065 4.72154C5.19386 6.09983 4.50241 7.89146 4.5 9.75V12.4394L2.46975 14.4697C2.32909 14.6104 2.25004 14.8011 2.25 15V17.25C2.25 17.4489 2.32902 17.6397 2.46967 17.7803C2.61032 17.921 2.80109 18 3 18H8.25V18.75C8.25 19.7446 8.64509 20.6984 9.34835 21.4016C10.0516 22.1049 11.0054 22.5 12 22.5C12.9946 22.5 13.9484 22.1049 14.6517 21.4016C15.3549 20.6984 15.75 19.7446 15.75 18.75V18H21C21.1989 18 21.3897 17.921 21.5303 17.7803C21.671 17.6397 21.75 17.4489 21.75 17.25V15C21.75 14.8011 21.6709 14.6104 21.5303 14.4697L19.5 12.4394ZM14.25 18.75C14.25 19.3467 14.0129 19.919 13.591 20.341C13.169 20.7629 12.5967 21 12 21C11.4033 21 10.831 20.7629 10.409 20.341C9.98705 19.919 9.75 19.3467 9.75 18.75V18H14.25V18.75Z" fill="#161616"/>
<path d="M19.5 9C21.1569 9 22.5 7.65685 22.5 6C22.5 4.34315 21.1569 3 19.5 3C17.8431 3 16.5 4.34315 16.5 6C16.5 7.65685 17.8431 9 19.5 9Z" fill="#161616"/>
</g>
</g>
</svg>
