<svg width="24" height="24" viewBox="0 0 24 24" fill="none" xmlns="http://www.w3.org/2000/svg">
<g id="Store">
<rect width="24" height="24" fill="white" style="mix-blend-mode:multiply"/>
<path id="Vector" d="M22.5 8.0101L21 3.5101C20.9479 3.35487 20.8463 3.22098 20.7109 3.12889C20.5754 3.0368 20.4136 2.99157 20.25 3.0001H3.75005C3.5865 2.99157 3.42465 3.0368 3.28922 3.12889C3.15379 3.22098 3.05223 3.35487 3.00005 3.5101L1.50005 8.0101C1.48924 8.08974 1.48924 8.17047 1.50005 8.2501V12.7501C1.50005 12.949 1.57906 13.1398 1.71972 13.2804C1.86037 13.4211 2.05114 13.5001 2.25005 13.5001H3.00005V21.0001H4.50005V13.5001H9.00005V21.0001H21V13.5001H21.75C21.949 13.5001 22.1397 13.4211 22.2804 13.2804C22.421 13.1398 22.5 12.949 22.5 12.7501V8.2501C22.5109 8.17047 22.5109 8.08974 22.5 8.0101ZM19.5 19.5001H10.5V13.5001H19.5V19.5001ZM21 12.0001H18V9.0001H16.5V12.0001H12.75V9.0001H11.25V12.0001H7.50005V9.0001H6.00005V12.0001H3.00005V8.3701L4.29005 4.5001H19.71L21 8.3701V12.0001Z" fill="#161616"/>
</g>
</svg>
