<svg width="20" height="20" viewBox="0 0 20 20" fill="none" xmlns="http://www.w3.org/2000/svg">
<g id="clapping (2) (1) 1" clip-path="url(#clip0_1_1906)">
<g id="Group">
<path id="Vector" d="M11.7075 0.0422046C11.5981 0.108611 11.52 0.319548 11.559 0.452361C11.5786 0.514861 11.8247 1.1008 12.1059 1.75705C12.4497 2.55783 12.6489 2.9758 12.7153 3.03439C12.8325 3.13986 12.9653 3.14767 13.1215 3.06564C13.3872 2.93283 13.3559 2.79611 12.7583 1.40158C12.4692 0.725799 12.1958 0.135955 12.1489 0.0890796C12.0551 -0.00857663 11.8325 -0.0320141 11.7075 0.0422046Z" fill="#525252"/>
<path id="Vector_2" d="M14.0627 0.429687C14.0197 0.472656 13.9768 0.546875 13.9651 0.59375C13.9533 0.644531 13.9455 1.19141 13.9533 1.80859L13.9651 2.9375L14.0744 3.03125C14.1447 3.08984 14.2346 3.125 14.3166 3.125C14.3987 3.125 14.4885 3.08984 14.5588 3.03125L14.6682 2.9375L14.6799 1.80859C14.6877 1.19141 14.6799 0.644531 14.6682 0.597656C14.6096 0.363281 14.2346 0.257812 14.0627 0.429687Z" fill="#525252"/>
<path id="Vector_3" d="M9.94949 1.44531C9.83231 1.53906 9.78543 1.70312 9.84012 1.84766C9.88309 1.95703 11.219 3.64453 11.3479 3.75C11.3831 3.78125 11.4847 3.80859 11.5706 3.80859C11.8401 3.80859 12.0003 3.51562 11.8675 3.26953C11.7854 3.11328 10.43 1.44922 10.3557 1.40625C10.2347 1.34375 10.0589 1.35938 9.94949 1.44531Z" fill="#525252"/>
<path id="Vector_4" d="M19.7539 5.3941C19.5625 5.43707 19.3516 5.55035 19.1797 5.69488L19.043 5.81207L18.8789 5.69488C18.6211 5.5191 18.4141 5.4566 18.0664 5.4566C17.5586 5.4566 17.375 5.54645 16.8359 6.0777L16.3867 6.5152L16.2812 6.28863C15.9336 5.55426 15.0664 5.24567 14.3125 5.58942C14.1641 5.65582 13.8125 5.98004 12.7305 7.05817L11.3398 8.44488L11.293 8.26129C11.1797 7.81598 10.8398 7.36676 10.4883 7.2027C10.3477 7.13629 10.2227 7.10895 10.0391 7.10895C9.57031 7.10895 9.51562 7.15192 8.03516 8.62457C6.66016 9.99176 6.25 10.441 5.92578 10.9371C5.55469 11.5074 5.25391 12.2496 5.08984 13.0074C4.98828 13.4839 4.98828 14.8355 5.08984 15.3121C5.35156 16.5308 5.84766 17.4527 6.69531 18.3043C7.53125 19.1441 8.44141 19.6402 9.60937 19.9019C10.0156 19.9918 11.1289 20.023 11.582 19.9566C11.7773 19.9293 12.3125 19.9058 12.7734 19.9019C13.457 19.898 13.6875 19.8824 14.0078 19.816C14.793 19.6519 15.5 19.3589 16.1523 18.9254C16.6172 18.6168 17.1758 18.0894 19.6328 15.6207C21.3477 13.898 21.8906 13.3316 21.9648 13.1832C22.1758 12.7535 22.1953 12.3394 22.0273 11.8902C21.918 11.5972 21.5508 11.2183 21.2773 11.1129L21.0898 11.0425L21.4609 10.6636C21.7266 10.3941 21.8633 10.2183 21.9492 10.0425C22.2969 9.30035 21.9961 8.40973 21.2852 8.08551C21.168 8.03473 21.0664 7.98785 21.0586 7.98004C21.0508 7.97613 21.125 7.88238 21.2227 7.77301C21.6641 7.28082 21.6992 6.49957 21.3047 5.92926C21 5.49176 20.3281 5.25738 19.7539 5.3941ZM20.4687 6.17145C20.6641 6.27301 20.8125 6.49176 20.8437 6.73004C20.8867 7.03082 20.7539 7.23785 20.125 7.86285L19.5859 8.40192L19.3555 8.2652C19.2305 8.18707 19.0937 8.11676 19.0547 8.10113C18.9922 8.0816 18.9961 8.06207 19.1211 7.91754C19.1992 7.8277 19.3086 7.65973 19.3672 7.53863C19.4609 7.34723 19.4727 7.27692 19.4805 6.87848C19.4844 6.44879 19.4883 6.43317 19.5977 6.31988C19.8164 6.08551 20.1797 6.02301 20.4687 6.17145ZM15.3516 6.30426C15.6445 6.49957 15.7617 6.92145 15.6055 7.23004C15.5703 7.30426 14.625 8.27692 13.5117 9.3941C11.5547 11.3589 11.4844 11.4332 11.4844 11.5738C11.4844 11.816 11.6523 11.941 11.9336 11.9136C11.9805 11.9097 13.1875 10.7339 14.8437 9.0816C17.1328 6.79645 17.7031 6.24957 17.8281 6.21051C18.3867 6.03082 18.9023 6.53082 18.75 7.10113C18.7031 7.27301 18.5 7.48395 15.875 10.1168L13.0469 12.9527V13.1168C13.0469 13.3472 13.1758 13.4761 13.4062 13.4761H13.5703L15.8984 11.1558C18.1016 8.96051 18.2344 8.83551 18.4102 8.79254C18.8555 8.68317 19.2969 9.02692 19.2969 9.48004C19.293 9.81598 19.2461 9.87067 16.8789 12.2457C15.5508 13.5777 14.6094 14.5504 14.5977 14.605C14.5664 14.7261 14.6562 14.941 14.7578 14.9957C14.875 15.0582 15.0469 15.0464 15.1562 14.9761C15.2109 14.941 15.9297 14.2379 16.7578 13.4136C17.5859 12.5894 18.3125 11.898 18.3711 11.8746C18.7187 11.7457 19.168 11.941 19.293 12.2769C19.3555 12.4449 19.3437 12.6949 19.2617 12.8707C19.2109 12.9761 18.3711 13.8394 16.6172 15.5894C14.3945 17.8004 13.9922 18.1871 13.6758 18.3941C13.2539 18.6714 12.9883 18.8121 12.5977 18.9566C11.9336 19.2027 11.1719 19.3238 10.5469 19.2808C8.14453 19.1129 6.26172 17.4527 5.79687 15.0894C5.69531 14.5816 5.70312 13.6597 5.81641 13.1363C5.97266 12.398 6.29297 11.6714 6.73047 11.0777C7.05078 10.6402 9.77734 7.90582 9.94531 7.85113C10.1172 7.79254 10.2695 7.87457 10.4219 8.10504C10.6445 8.44488 10.6758 8.84332 10.5039 9.19098C10.4531 9.29645 9.95312 9.82379 9.13281 10.6519L7.83984 11.9488L7.86328 12.1089C7.875 12.1988 7.91406 12.3043 7.95312 12.3472C8.04687 12.4527 8.24609 12.48 8.38281 12.4097C8.44531 12.3746 9.85156 10.9918 11.5039 9.33551C13.5078 7.3277 14.5625 6.29645 14.668 6.24567C14.8789 6.1441 15.1445 6.16363 15.3516 6.30426ZM20.9258 8.73004C21.1211 8.81207 21.207 8.8941 21.293 9.0816C21.3867 9.28082 21.3867 9.50738 21.293 9.7066C21.2461 9.80426 20.9141 10.1636 20.418 10.6597L19.6172 11.4566L19.4336 11.3355C19.332 11.2691 19.1992 11.2027 19.1367 11.191L19.0234 11.1636L19.3828 10.7847C19.9062 10.2339 20.0703 9.85113 20.0195 9.29645L19.9961 9.04254L20.1445 8.89801C20.2266 8.81988 20.3359 8.73785 20.3906 8.71442C20.5391 8.65582 20.7656 8.66363 20.9258 8.73004ZM20.9023 11.7652C21.332 11.9136 21.5273 12.3824 21.3281 12.7886C21.2773 12.898 20.4219 13.7808 18.7031 15.4918C16.6055 17.5777 16.0898 18.0738 15.8008 18.2691C15.2812 18.6168 14.8398 18.8277 14.2578 18.9996C14.0234 19.0699 14.0195 19.0699 14.375 18.8082C14.6406 18.6129 19.4687 13.8316 19.7266 13.5074C19.9687 13.2066 20.0547 12.941 20.0547 12.4722C20.0586 12.0777 20.0625 12.0699 20.1797 11.9527C20.3008 11.8316 20.5352 11.7222 20.6875 11.7183C20.7344 11.7183 20.8281 11.7379 20.9023 11.7652Z" fill="#525252"/>
</g>
</g>
<defs>
<clipPath id="clip0_1_1906">
<rect width="20" height="20" fill="white"/>
</clipPath>
</defs>
</svg>
