<svg width="37" height="50" viewBox="0 0 37 50" fill="none" xmlns="http://www.w3.org/2000/svg">
<g id="Onboarding-pana (1) 1" clip-path="url(#clip0_1_2740)">
<g id="freepik--background-complete--inject-6">
<path id="Vector" d="M19.8691 17.9836L19.5749 17.5283L19.4045 17.6352L19.6681 18.0951L19.8691 17.9836Z" fill="#E0E0E0"/>
<path id="Vector_2" d="M19.8635 21.1219L22.3989 19.6412L21.6674 18.3583C21.5713 18.1899 21.4433 18.0422 21.2908 17.9239C21.1383 17.8055 20.9643 17.7187 20.7786 17.6684C20.5929 17.6181 20.3993 17.6054 20.2088 17.6308C20.0182 17.6563 19.8345 17.7195 19.6681 17.8168C19.5016 17.914 19.3556 18.0434 19.2385 18.1977C19.1214 18.352 19.0356 18.5281 18.9858 18.716C18.936 18.9039 18.9232 19.0999 18.9483 19.2928C18.9734 19.4857 19.0358 19.6716 19.132 19.8401L19.8635 21.1219Z" fill="#E0E0E0"/>
<path id="Vector_3" d="M24.9366 31.6569C24.9366 31.7181 24.9545 31.7778 24.9881 31.8287C25.0217 31.8795 25.0694 31.9192 25.1252 31.9426C25.1811 31.966 25.2425 31.9721 25.3018 31.9602C25.361 31.9483 25.4155 31.9188 25.4582 31.8756C25.501 31.8323 25.5301 31.7772 25.5419 31.7172C25.5536 31.6572 25.5476 31.5951 25.5245 31.5386C25.5013 31.482 25.4622 31.4338 25.4119 31.3998C25.3617 31.3658 25.3026 31.3477 25.2422 31.3477C25.1612 31.348 25.0837 31.3806 25.0264 31.4386C24.9692 31.4965 24.9369 31.575 24.9366 31.6569Z" fill="#E0E0E0"/>
</g>
<g id="freepik--character-2--inject-6">
<path id="Vector_4" d="M26.6897 37.5764C26.6226 37.8453 25.9774 49.359 25.9774 49.359L23.5913 49.1788L23.4352 37.5805L26.6897 37.5764Z" fill="#FFBE9D"/>
<path id="Vector_5" d="M23.5132 49.3143L23.5201 49.0606L26.0651 49.1133L26.05 49.952H25.8925C25.1925 49.9741 22.3311 50.0227 21.8682 49.8813C21.3476 49.7288 23.5132 49.3143 23.5132 49.3143Z" fill="#97C865"/>
<g id="Group" opacity="0.3">
<path id="Vector_6" d="M25.1309 49.9157C25.1765 49.7117 25.2963 49.5325 25.4665 49.4139C25.64 49.2904 25.8511 49.2329 26.0624 49.2517L26.0473 49.9171L25.1309 49.9157Z" fill="black"/>
</g>
<g id="Group_2" opacity="0.3">
<path id="Vector_7" d="M22.4558 49.5527C22.4558 49.5527 21.697 49.7426 21.7874 49.8618C21.8778 49.981 24.7721 50.0337 26.05 49.9519V49.8993L22.6764 49.8632C22.6764 49.8632 22.6024 49.561 22.4558 49.5527Z" fill="black"/>
</g>
<path id="Vector_8" d="M26.0857 49.8979C26.0716 49.9 26.0573 49.9 26.0432 49.8979H25.9172L25.457 49.9076C25.068 49.9146 24.5297 49.916 23.9366 49.9076C23.3435 49.8993 22.8051 49.8772 22.4161 49.8577L21.9559 49.83L21.8313 49.8217C21.8172 49.8234 21.8029 49.8234 21.7888 49.8217C21.8029 49.8199 21.8172 49.8199 21.8313 49.8217H21.9573L22.4175 49.8397C22.8065 49.8536 23.3435 49.8716 23.9366 49.8813C24.5297 49.891 25.068 49.8938 25.457 49.8938H26.0432L26.0857 49.8979Z" fill="#263238"/>
<path id="Vector_9" d="M22.6723 49.9011C22.6538 49.8287 22.6267 49.7589 22.5915 49.6931C22.5486 49.631 22.4989 49.5738 22.4436 49.5226C22.5196 49.5507 22.5832 49.6052 22.623 49.6765C22.6455 49.7088 22.6614 49.7453 22.6698 49.7838C22.6783 49.8223 22.6791 49.8622 22.6723 49.9011Z" fill="#263238"/>
<path id="Vector_10" d="M23.4284 49.5565C23.4202 49.5565 23.3859 49.5191 23.3503 49.4637C23.3147 49.4082 23.2914 49.3611 23.2982 49.3569C23.3051 49.3528 23.3407 49.3943 23.3763 49.4498C23.4119 49.5052 23.4352 49.5538 23.4284 49.5565Z" fill="#263238"/>
<path id="Vector_11" d="M23.6352 49.4594C23.6352 49.4594 23.59 49.4387 23.5476 49.4012C23.5051 49.3638 23.475 49.3278 23.4804 49.3222C23.4859 49.3167 23.5256 49.343 23.5681 49.3804C23.6106 49.4179 23.6407 49.4525 23.6352 49.4594Z" fill="#263238"/>
<path id="Vector_12" d="M23.7694 49.2367C23.7253 49.2515 23.6785 49.2562 23.6324 49.2506C23.5862 49.2543 23.5397 49.2492 23.4955 49.2353C23.5394 49.2198 23.5863 49.2151 23.6324 49.2215C23.6786 49.2158 23.7255 49.221 23.7694 49.2367Z" fill="#263238"/>
<path id="Vector_13" d="M23.8134 49.0786C23.7685 49.105 23.7172 49.118 23.6654 49.1161C23.6138 49.1239 23.5611 49.1167 23.5134 49.0953C23.5633 49.0883 23.6137 49.086 23.6641 49.0883C23.7134 49.0807 23.7634 49.0775 23.8134 49.0786Z" fill="#263238"/>
<path id="Vector_14" d="M23.3462 49.3472C23.2923 49.3568 23.2371 49.3568 23.1832 49.3472C23.1246 49.3388 23.0669 49.3253 23.0106 49.307C22.9767 49.2976 22.9441 49.2841 22.9134 49.2668C22.9038 49.2619 22.8953 49.2551 22.8885 49.2468C22.8817 49.2384 22.8766 49.2287 22.8736 49.2183C22.8712 49.2069 22.8724 49.1949 22.8771 49.1842C22.8817 49.1735 22.8897 49.1646 22.8997 49.1587C22.9615 49.1305 23.0308 49.1236 23.0969 49.1392C23.1629 49.1547 23.2221 49.1918 23.2654 49.2446C23.2901 49.2743 23.3075 49.3094 23.3161 49.3472C23.3197 49.3608 23.3197 49.3752 23.3161 49.3888C23.3009 49.3386 23.2767 49.2916 23.2448 49.2502C23.2082 49.2086 23.1607 49.1783 23.1079 49.1629C23.0443 49.1406 22.9748 49.1436 22.9134 49.1712C22.8873 49.1892 22.8955 49.2169 22.9243 49.2336C22.9529 49.2499 22.9832 49.2629 23.0147 49.2724C23.0695 49.2906 23.1253 49.3055 23.1818 49.3167C23.2846 49.3417 23.3462 49.3431 23.3462 49.3472Z" fill="#263238"/>
<path id="Vector_15" d="M23.3038 49.3542C23.2857 49.3218 23.2799 49.2839 23.2873 49.2475C23.294 49.207 23.3104 49.1689 23.3353 49.1366C23.3502 49.1136 23.3705 49.0947 23.3944 49.0817C23.4183 49.0686 23.4451 49.0618 23.4722 49.0617C23.48 49.063 23.4875 49.0659 23.4941 49.0702C23.5008 49.0745 23.5066 49.0802 23.511 49.0868C23.5155 49.0934 23.5186 49.1008 23.5202 49.1086C23.5218 49.1165 23.5218 49.1246 23.5202 49.1324C23.5168 49.1573 23.5069 49.1807 23.4914 49.2003C23.4695 49.2346 23.4427 49.2654 23.412 49.2918C23.3856 49.3193 23.3532 49.3402 23.3175 49.3528C23.3175 49.3528 23.3503 49.3251 23.3969 49.278C23.4238 49.2505 23.4473 49.2198 23.4668 49.1865C23.49 49.1546 23.5065 49.0977 23.4668 49.0894C23.4452 49.0915 23.4244 49.0983 23.4057 49.1093C23.387 49.1203 23.3709 49.1353 23.3585 49.1532C23.3353 49.1818 23.3189 49.2155 23.3106 49.2516C23.3052 49.2855 23.3029 49.3199 23.3038 49.3542Z" fill="#263238"/>
<path id="Vector_16" d="M26.0487 49.2446C26.0487 49.2446 25.9761 49.2363 25.8624 49.2446C25.7148 49.2578 25.5731 49.3099 25.4515 49.3957C25.3343 49.4796 25.2431 49.5955 25.1885 49.7298C25.1474 49.831 25.1433 49.9003 25.1365 49.8989C25.1343 49.8828 25.1343 49.8665 25.1365 49.8504C25.1424 49.807 25.1525 49.7643 25.1666 49.7229C25.2176 49.5816 25.3098 49.4593 25.4309 49.3722C25.5577 49.2839 25.706 49.2326 25.8597 49.2238C25.9053 49.2199 25.9511 49.2199 25.9967 49.2238C26.0151 49.2274 26.0328 49.2344 26.0487 49.2446Z" fill="#263238"/>
<path id="Vector_17" d="M24.8174 49.6778C24.6957 49.7022 24.5715 49.7115 24.4476 49.7055C24.3234 49.7089 24.1992 49.6973 24.0777 49.6709C24.0777 49.6626 24.2435 49.6709 24.4476 49.6709C24.6516 49.6709 24.8174 49.6695 24.8174 49.6778Z" fill="#263238"/>
<path id="Vector_18" d="M25.3201 49.6859C25.3201 49.6859 25.305 49.7191 25.2886 49.7538C25.2721 49.7884 25.2598 49.8217 25.2516 49.8203C25.2434 49.8189 25.2393 49.7829 25.2598 49.7413C25.2803 49.6997 25.3091 49.6803 25.3201 49.6859Z" fill="#263238"/>
<path id="Vector_19" d="M25.5063 49.4706C25.5063 49.4706 25.4954 49.4997 25.468 49.5247C25.4406 49.5496 25.4159 49.5649 25.4091 49.5593C25.4022 49.5538 25.4201 49.5288 25.4474 49.5039C25.4748 49.4789 25.5009 49.4637 25.5063 49.4706Z" fill="#263238"/>
<path id="Vector_20" d="M25.7762 49.3753C25.7762 49.3836 25.7406 49.3822 25.7036 49.3947C25.6666 49.4072 25.6379 49.4238 25.6324 49.4183C25.6269 49.4127 25.6475 49.3808 25.694 49.367C25.7406 49.3531 25.779 49.3684 25.7762 49.3753Z" fill="#263238"/>
<path id="Vector_21" d="M25.9678 49.331C25.9678 49.3393 25.9554 49.3504 25.9349 49.3587C25.9144 49.367 25.8938 49.3656 25.8911 49.3587C25.8883 49.3518 25.9034 49.3393 25.9239 49.3324C25.9445 49.3254 25.965 49.324 25.9678 49.331Z" fill="#263238"/>
<path id="Vector_22" d="M36.3355 15.9029C36.6823 15.4267 36.8464 14.8392 36.7972 14.2497C36.7481 13.6602 36.4891 13.1088 36.0684 12.698L31.8756 8.60461L31.0729 11.5974C31.1469 11.639 34.3206 14.568 34.3206 14.568L32.0633 17.9378C31.892 18.1933 31.7876 18.4885 31.7598 18.7959C31.732 19.1034 31.7818 19.4129 31.9044 19.6955L32.0537 20.1516C32.1051 20.308 32.1898 20.451 32.3018 20.5706C32.4139 20.6902 32.5506 20.7833 32.7022 20.8435C32.8538 20.9037 33.0166 20.9294 33.1791 20.9188C33.3416 20.9082 33.4999 20.8616 33.6426 20.7823L34.3275 20.4039C34.3464 20.3932 34.3628 20.3786 34.3757 20.361C34.3885 20.3434 34.3974 20.3231 34.4019 20.3017C34.4063 20.2802 34.4061 20.2581 34.4013 20.2367C34.3965 20.2154 34.3872 20.1953 34.374 20.1779C34.358 20.1572 34.337 20.1409 34.3131 20.1307C34.2891 20.1205 34.2629 20.1167 34.2371 20.1197L33.2782 20.1973C33.181 20.2055 33.0839 20.1805 33.0025 20.1262C32.921 20.0719 32.8599 19.9915 32.829 19.8979L36.3355 15.9029Z" fill="#FFBE9D"/>
<path id="Vector_23" d="M34.2685 14.6554C34.4356 14.4059 34.6507 14.1841 34.8164 13.9623L34.2685 14.6554Z" fill="#FFBE9D"/>
<path id="Vector_24" d="M22.5011 11.855L21.5628 13.5738L20.9875 8.90098C20.9627 8.56187 21.029 8.22228 21.1793 7.91817C21.2428 7.7828 21.3209 7.65495 21.4122 7.53697C21.5286 7.39193 21.6641 7.26368 21.8149 7.15577C21.9628 7.07121 21.9368 6.85081 21.7847 6.83417C21.6327 6.81754 21.2231 7.04071 20.9012 7.48845C20.5794 7.93619 20.5437 7.0726 20.5246 6.7607C20.5054 6.44881 20.4068 5.48263 20.3081 5.41333C20.1616 5.31352 20.026 5.4563 20.0506 5.76958C20.0753 6.08285 20.0862 7.02547 19.9232 7.03101C19.7602 7.03656 19.6918 5.44105 19.6918 5.44105C19.6918 5.44105 19.7315 5.09589 19.5425 5.09589C19.2014 5.09589 19.3986 6.78565 19.4219 6.94645C19.437 7.05735 19.2603 7.06982 19.2493 6.94645C19.2384 6.82308 19.2151 5.35095 18.8685 5.34956C18.6028 5.34956 19.0192 6.73575 18.8562 7.0518C18.6932 7.36785 18.6466 5.96087 18.3932 5.96919C18.2974 5.96919 18.2275 5.9886 18.3686 6.78704C18.4453 7.21676 18.7247 7.835 18.811 8.67365L18.8329 8.89128C18.8329 8.89128 19.3055 12.9847 20.0164 15.4798C20.441 16.9755 22.5395 17.1225 23.3901 15.825C23.9681 14.9448 24.8804 12.6437 24.8804 12.6437L22.5011 11.855Z" fill="#FFBE9D"/>
<path id="Vector_25" d="M19.1727 8.15929C19.1727 8.16761 19.2261 8.15929 19.3096 8.19533C19.4201 8.23472 19.513 8.31293 19.5713 8.41573L19.6041 8.47395L19.6219 8.4088C19.6494 8.31718 19.692 8.23093 19.748 8.15374C19.8575 8.00361 20.0093 7.89053 20.1835 7.82937C20.3205 7.78086 20.4096 7.78363 20.4082 7.77254C20.3292 7.75539 20.2471 7.76115 20.1712 7.78917C19.9821 7.84197 19.8161 7.95771 19.7 8.1177C19.6378 8.20073 19.5914 8.29474 19.5631 8.39494H19.6137C19.581 8.33917 19.5377 8.29057 19.4861 8.25201C19.4346 8.21344 19.376 8.18569 19.3138 8.17038C19.2689 8.15231 19.2197 8.14844 19.1727 8.15929Z" fill="#EB996E"/>
<path id="Vector_26" d="M32.903 37.9894C32.9907 38.2528 33.8783 49.079 33.8783 49.079L31.484 49.2453L30.032 39.0263L32.903 37.9894Z" fill="#FFBE9D"/>
<path id="Vector_27" d="M34.033 49.3037L34.0248 49.05L31.4839 49.1068L31.499 49.9385L31.6565 49.9455C32.3565 49.969 35.2179 50.0176 35.6809 49.8748C36.1959 49.7195 34.033 49.3037 34.033 49.3037Z" fill="#97C865"/>
<g id="Group_3" opacity="0.3">
<path id="Vector_28" d="M32.4141 49.9048C32.3703 49.7004 32.2507 49.5208 32.0798 49.403C31.9055 49.2816 31.6948 49.2257 31.484 49.245L31.4977 49.9117L32.4141 49.9048Z" fill="black"/>
</g>
<g id="Group_4" opacity="0.3">
<path id="Vector_29" d="M35.0905 49.5412C35.0905 49.5412 35.8493 49.7311 35.7576 49.8503C35.6658 49.9695 32.7742 50.0222 31.4963 49.9404V49.8877L34.87 49.8517C34.87 49.8517 34.9426 49.5495 35.0905 49.5412Z" fill="black"/>
</g>
<path id="Vector_30" d="M31.4593 49.8868H31.5031H31.6278L32.0894 49.8978C32.4784 49.8978 33.0153 49.9048 33.6098 49.8978C34.2043 49.8909 34.7412 49.866 35.1288 49.8466L35.5891 49.8202L35.7137 49.8105H35.5891L35.1288 49.8272C34.7398 49.8424 34.2029 49.859 33.6084 49.8701C33.014 49.8812 32.4784 49.8812 32.0894 49.8812H31.4593V49.8868Z" fill="#263238"/>
<path id="Vector_31" d="M34.8726 49.8899C34.903 49.7393 34.9868 49.6052 35.1082 49.5129C35.0317 49.5407 34.9676 49.5953 34.9274 49.6667C34.8813 49.7312 34.8616 49.8112 34.8726 49.8899Z" fill="#263238"/>
<path id="Vector_32" d="M34.1179 49.5472C34.1179 49.5472 34.1604 49.5098 34.196 49.4543C34.2316 49.3989 34.2549 49.3504 34.2481 49.3462C34.2412 49.342 34.2056 49.3836 34.17 49.4391C34.1344 49.4945 34.1111 49.543 34.1179 49.5472Z" fill="#263238"/>
<path id="Vector_33" d="M33.911 49.4488C33.911 49.4488 33.9562 49.428 33.9986 49.3906C34.0411 49.3532 34.0712 49.3185 34.0658 49.3116C34.0603 49.3047 34.0206 49.3324 33.9781 49.3698C33.9356 49.4072 33.9041 49.4433 33.911 49.4488Z" fill="#263238"/>
<path id="Vector_34" d="M33.7754 49.2256C33.8195 49.2401 33.8662 49.2448 33.9123 49.2395C33.9586 49.2448 34.0054 49.2396 34.0493 49.2242C34.0052 49.2097 33.9585 49.205 33.9123 49.2103C33.8661 49.2059 33.8195 49.2111 33.7754 49.2256Z" fill="#263238"/>
<path id="Vector_35" d="M33.7275 49.0675C33.7726 49.0947 33.8244 49.1081 33.8768 49.1063C33.9281 49.1135 33.9803 49.1058 34.0275 49.0842C33.9778 49.0795 33.9278 49.0795 33.8782 49.0842C33.8284 49.0751 33.778 49.0695 33.7275 49.0675Z" fill="#263238"/>
<path id="Vector_36" d="M34.1987 49.3379C34.2527 49.3459 34.3076 49.3459 34.3617 49.3379C34.4203 49.3297 34.478 49.3163 34.5343 49.2977C34.5685 49.288 34.6016 49.2745 34.6329 49.2575C34.6515 49.2473 34.6656 49.2305 34.6726 49.2103C34.6746 49.1987 34.6731 49.1868 34.6685 49.1759C34.6639 49.1651 34.6563 49.1559 34.6466 49.1493C34.584 49.1215 34.5141 49.115 34.4476 49.1311C34.3811 49.1471 34.3216 49.1846 34.2781 49.238C34.2547 49.2685 34.2374 49.3034 34.2274 49.3406C34.2241 49.3543 34.2241 49.3686 34.2274 49.3822C34.2433 49.3344 34.2674 49.2898 34.2987 49.2505C34.3354 49.2091 34.3828 49.1789 34.4356 49.1632C34.4992 49.141 34.5687 49.1439 34.6301 49.1715C34.6562 49.1895 34.6466 49.2186 34.6178 49.2353C34.589 49.2508 34.5587 49.2634 34.5274 49.2727C34.4736 49.2924 34.4181 49.3073 34.3617 49.3171C34.2617 49.3309 34.1987 49.3323 34.1987 49.3379Z" fill="#263238"/>
<path id="Vector_37" d="M34.2413 49.3434C34.2508 49.3279 34.2571 49.3105 34.2599 49.2924C34.2627 49.2744 34.262 49.2559 34.2577 49.2381C34.2525 49.1971 34.2364 49.1583 34.2112 49.1258C34.1962 49.1029 34.1759 49.084 34.152 49.0709C34.1281 49.0579 34.1013 49.051 34.0742 49.051C34.0582 49.054 34.0441 49.0633 34.0349 49.0768C34.0257 49.0903 34.0221 49.1069 34.0249 49.123C34.0301 49.1476 34.0404 49.1707 34.055 49.191C34.0768 49.2245 34.103 49.2549 34.1331 49.2811C34.1592 49.3088 34.1917 49.3298 34.2276 49.3421C34.2276 49.3421 34.1947 49.3143 34.1495 49.2672C34.1228 49.2397 34.0989 49.2095 34.0783 49.1771C34.0564 49.1452 34.0386 49.087 34.0783 49.0787C34.0999 49.0805 34.1208 49.0871 34.1395 49.0982C34.1583 49.1092 34.1743 49.1243 34.1865 49.1425C34.2106 49.1707 34.2276 49.2045 34.2358 49.2409C34.2412 49.2748 34.2431 49.3092 34.2413 49.3434Z" fill="#263238"/>
<path id="Vector_38" d="M31.4961 49.2336C31.4961 49.2336 31.5687 49.2253 31.6837 49.2336C31.8313 49.2474 31.9728 49.2995 32.0947 49.3847C32.2108 49.4693 32.3014 49.585 32.3563 49.7188C32.3974 49.82 32.4029 49.8893 32.4083 49.8879C32.4138 49.8865 32.4083 49.8712 32.4083 49.8407C32.4039 49.7966 32.3938 49.7533 32.3782 49.7118C32.3272 49.5705 32.235 49.4482 32.1138 49.3611C31.9872 49.2725 31.8388 49.2211 31.6851 49.2128C31.6396 49.208 31.5937 49.208 31.5481 49.2128C31.5297 49.2167 31.5121 49.2237 31.4961 49.2336Z" fill="#263238"/>
<path id="Vector_39" d="M32.7275 49.6612C32.8495 49.6863 32.9743 49.6956 33.0987 49.6889C33.2229 49.693 33.3471 49.6814 33.4685 49.6543C33.4685 49.646 33.3014 49.6543 33.0973 49.6543C32.8932 49.6543 32.7288 49.6612 32.7275 49.6612Z" fill="#263238"/>
<path id="Vector_40" d="M32.2317 49.6747C32.2317 49.6747 32.2454 49.7079 32.2632 49.744C32.281 49.78 32.2906 49.8105 32.3002 49.8091C32.3098 49.8077 32.3125 49.7717 32.2906 49.7315C32.2687 49.6913 32.2372 49.6691 32.2317 49.6747Z" fill="#263238"/>
<path id="Vector_41" d="M32.0399 49.4594C32.0331 49.4594 32.0509 49.4899 32.0769 49.5135C32.1029 49.537 32.1303 49.5537 32.1358 49.5481C32.1413 49.5426 32.1248 49.5176 32.0988 49.4927C32.0728 49.4677 32.0454 49.4539 32.0399 49.4594Z" fill="#263238"/>
<path id="Vector_42" d="M31.7702 49.3637C31.7702 49.3721 31.8058 49.3707 31.8428 49.3831C31.8798 49.3956 31.9072 49.4123 31.9141 49.4067C31.9209 49.4012 31.899 49.3693 31.8524 49.3554C31.8058 49.3416 31.7675 49.3568 31.7702 49.3637Z" fill="#263238"/>
<path id="Vector_43" d="M31.5785 49.3216C31.5785 49.3285 31.5894 49.341 31.6114 49.3479C31.6333 49.3549 31.6525 49.3549 31.6552 49.3479C31.6579 49.341 31.6429 49.3285 31.6223 49.3202C31.6018 49.3119 31.5812 49.3133 31.5785 49.3216Z" fill="#263238"/>
<path id="Vector_44" d="M30.7373 17.0618L32.4166 21.0318L34.437 48.4701H30.0976L27.6883 24.5805L26.6897 48.5699L22.6832 48.2261L23.2393 21.0568C23.258 20.4485 23.4031 19.851 23.6653 19.3032L24.7721 17.0049L30.7373 17.0618Z" fill="#263238"/>
<path id="Vector_45" d="M24.3284 17.9366C24.3284 17.9573 25.8474 17.9726 27.7212 17.9726C29.5951 17.9726 31.1155 17.9573 31.1155 17.9366C31.1155 17.9158 29.5964 17.9005 27.7212 17.9005C25.8461 17.9005 24.3284 17.9171 24.3284 17.9366Z" fill="#455A64"/>
<path id="Vector_46" d="M27.7637 24.8969C27.7829 24.8969 27.7993 23.3499 27.7993 21.4398C27.7993 19.5296 27.7829 17.9826 27.7637 17.9826C27.7445 17.9826 27.7281 19.531 27.7281 21.4398C27.7281 23.3486 27.7432 24.8969 27.7637 24.8969Z" fill="#455A64"/>
<path id="Vector_47" d="M27.1282 17.8478C27.1259 17.8718 27.1259 17.8959 27.1282 17.9199C27.1282 17.974 27.1282 18.0419 27.1282 18.1237C27.1282 18.3122 27.1282 18.5659 27.1282 18.875C27.1282 19.5085 27.1282 20.3845 27.1446 21.3507C27.1446 21.8345 27.1556 22.2947 27.1611 22.7147C27.1518 23.0856 27.1742 23.4567 27.2282 23.8237C27.2642 24.0768 27.3706 24.3142 27.535 24.5085C27.596 24.5782 27.6706 24.6343 27.7542 24.6734C27.6838 24.6172 27.6178 24.5556 27.5569 24.4891C27.4065 24.294 27.3118 24.061 27.283 23.8154C27.2373 23.4476 27.2204 23.0768 27.2323 22.7064C27.2323 22.2906 27.2254 21.8262 27.2213 21.3424C27.2104 20.3721 27.1967 19.4988 27.1843 18.8653C27.1761 18.5562 27.1693 18.3025 27.1652 18.1153C27.1652 18.0336 27.1583 17.9656 27.1556 17.9102C27.1494 17.8882 27.1401 17.8672 27.1282 17.8478Z" fill="#455A64"/>
<path id="Vector_48" d="M20.5821 16.542C20.6012 16.542 20.6177 14.9617 20.6177 13.0127C20.6177 11.0637 20.6012 9.48349 20.5821 9.48349C20.5629 9.48349 20.5464 11.0637 20.5464 13.0127C20.5464 14.9617 20.5615 16.542 20.5821 16.542Z" fill="#FAFAFA"/>
<path id="Vector_49" d="M24.7721 17.0052C24.7721 17.0052 24.7242 12.8217 24.731 12.7524L22.0587 12.4419C22.0587 12.4419 22.8805 9.31463 23.3243 8.72965C24.49 7.20484 26.3377 7.48208 26.3377 7.48208L29.095 7.44881C29.1727 7.43076 29.2514 7.41734 29.3306 7.40861C29.7357 7.36156 30.1461 7.40318 30.5339 7.53065C30.9217 7.65813 31.2779 7.86848 31.5784 8.14745L34.5768 11.2581L32.5797 13.013L31.073 12.3795L30.7305 17.062L24.7721 17.0052Z" fill="#F54D89"/>
<path id="Vector_50" d="M28.7689 15.6562C28.7285 15.9112 28.6713 16.1631 28.5977 16.4103C28.5015 16.6485 28.3898 16.8801 28.2634 17.1034C28.4506 16.9173 28.5886 16.6866 28.6648 16.4325C28.7622 16.1864 28.7979 15.9197 28.7689 15.6562Z" fill="#263238"/>
<path id="Vector_51" d="M27.8595 16.2246C27.8305 16.3771 27.8245 16.5332 27.8417 16.6876C27.8352 16.8428 27.8528 16.9981 27.8937 17.1478C27.9229 16.9953 27.9293 16.8392 27.9129 16.6848C27.9192 16.5295 27.9012 16.3742 27.8595 16.2246Z" fill="#263238"/>
<path id="Vector_52" opacity="0.3" d="M30.0976 7.87695L30.1387 17.0563L28.8689 17.0619L30.0976 7.87695Z" fill="black"/>
<path id="Vector_53" d="M25.3446 7.5202L24.9761 17.5216H24.131L24.3241 13.9674L23.6215 15.689C23.4609 16.0831 23.1875 16.4195 22.8365 16.6552C22.4855 16.8908 22.073 17.0149 21.6518 17.0115C21.1657 17.0074 20.6958 16.8338 20.3215 16.5199C19.9472 16.206 19.6914 15.771 19.5971 15.2884L18.9123 10.5573L21.2326 8.97847L21.7271 13.0109L22.8982 9.52325C23.0295 9.11934 23.2416 8.74716 23.5213 8.42994C23.8011 8.11273 24.1424 7.8573 24.5241 7.67961C24.7773 7.54927 25.0617 7.49401 25.3446 7.5202Z" fill="#727BCC"/>
<path id="Vector_54" d="M24.2762 16.6222C24.5126 16.6702 24.7561 16.6702 24.9926 16.6222C24.7561 16.5741 24.5126 16.5741 24.2762 16.6222Z" fill="#FAFAFA"/>
<path id="Vector_55" d="M24.2517 15.2228C24.5308 15.2727 24.8164 15.2727 25.0955 15.2228C24.8162 15.1747 24.5309 15.1747 24.2517 15.2228Z" fill="#FAFAFA"/>
<path id="Vector_56" d="M19.5149 15.1974C19.5149 15.2168 20.4738 15.2335 21.6531 15.2335C22.8325 15.2335 23.7899 15.2168 23.7899 15.1974C23.7899 15.178 22.8311 15.1614 21.6531 15.1614C20.4751 15.1614 19.5149 15.1766 19.5149 15.1974Z" fill="#FAFAFA"/>
<path id="Vector_57" d="M19.2341 13.0723C19.2341 13.0931 20.5573 13.1083 22.1901 13.1083C23.8228 13.1083 25.1473 13.0931 25.1473 13.0723C25.1473 13.0515 23.8228 13.0363 22.1901 13.0363C20.5573 13.0363 19.2341 13.0529 19.2341 13.0723Z" fill="#FAFAFA"/>
<path id="Vector_58" d="M22.5106 10.7671C22.9617 10.8036 23.4144 10.8156 23.8667 10.8031C24.3195 10.8156 24.7726 10.8036 25.2241 10.7671C24.7726 10.7314 24.3195 10.7193 23.8667 10.731C23.4144 10.7193 22.9617 10.7313 22.5106 10.7671Z" fill="#FAFAFA"/>
<path id="Vector_59" d="M23.4023 8.64346C24.0328 8.69151 24.6661 8.69151 25.2966 8.64346C24.6661 8.59541 24.0328 8.59541 23.4023 8.64346Z" fill="#FAFAFA"/>
<path id="Vector_60" d="M23.9722 15.023C23.9914 15.023 24.0078 13.5135 24.0078 11.6532C24.0078 9.79295 23.9914 8.28339 23.9722 8.28339C23.953 8.28339 23.9366 9.79156 23.9366 11.6532C23.9366 13.5149 23.9503 15.023 23.9722 15.023Z" fill="#FAFAFA"/>
<path id="Vector_61" d="M22.2531 16.6151C22.2723 16.6151 22.2887 15.5228 22.2887 14.1768C22.2887 12.8308 22.2723 11.7385 22.2531 11.7385C22.2339 11.7385 22.2175 12.8294 22.2175 14.1768C22.2175 15.5242 22.2325 16.6151 22.2531 16.6151Z" fill="#FAFAFA"/>
<path id="Vector_62" d="M24.3393 7.78125C24.3201 7.78125 24.3036 9.18269 24.3036 10.9099C24.3036 12.6371 24.3201 14.0357 24.3393 14.0357C24.3584 14.0357 24.3749 12.6357 24.3749 10.9085C24.3749 9.1813 24.3612 7.78125 24.3393 7.78125Z" fill="#263238"/>
<path id="Vector_63" d="M20.4148 16.4904C20.4316 16.5071 20.4499 16.5219 20.4696 16.5348C20.5243 16.5748 20.5826 16.6096 20.6436 16.6387C20.8692 16.7462 21.118 16.7939 21.3668 16.7773C21.5395 16.7697 21.7094 16.7302 21.8681 16.6609C22.0504 16.5799 22.2155 16.4641 22.3544 16.3199C22.6516 16.0177 22.8598 15.5991 23.0639 15.168C23.4749 14.303 23.8036 13.5046 24.0228 12.9099C24.1323 12.6146 24.2159 12.3748 24.2707 12.2085L24.3323 12.0144C24.3397 11.9923 24.3452 11.9695 24.3488 11.9465C24.3356 11.9661 24.3254 11.9876 24.3186 12.0102C24.2981 12.0601 24.2734 12.1225 24.2447 12.1988L23.9707 12.8919C23.7406 13.4754 23.4077 14.278 22.9954 15.1375C22.7913 15.5686 22.5845 15.9803 22.3037 16.2742C22.0569 16.5405 21.7199 16.7028 21.36 16.7288C21.1174 16.7469 20.8742 16.7061 20.6504 16.6096C20.497 16.5431 20.4189 16.4835 20.4148 16.4904Z" fill="#263238"/>
<path id="Vector_64" d="M21.738 14.6274C21.774 14.3485 21.7859 14.0669 21.7736 13.7859C21.786 13.5049 21.7741 13.2234 21.738 12.9445C21.7027 13.2235 21.6908 13.5049 21.7024 13.7859C21.6909 14.0669 21.7028 14.3484 21.738 14.6274Z" fill="#263238"/>
<path id="Vector_65" d="M31.4537 7.91289L36.3081 12.881C36.7125 13.2771 36.9572 13.811 36.9949 14.3792C37.0326 14.9475 36.8606 15.5097 36.5122 15.957L33.3015 19.5805L32.6742 16.7124L34.1384 14.6498L31.3674 13.0155L31.4441 17.5261L30.0977 17.7146V7.38198C30.0977 7.38198 30.899 7.37089 31.4537 7.91289Z" fill="#727BCC"/>
<path id="Vector_66" d="M30.0619 10.8476C30.0619 10.8684 31.0126 10.8836 32.1864 10.8836C33.3603 10.8836 34.3109 10.8684 34.3109 10.8476C34.3109 10.8268 33.3589 10.8115 32.1864 10.8115C31.0139 10.8115 30.0619 10.8254 30.0619 10.8476Z" fill="#FAFAFA"/>
<path id="Vector_67" d="M30.1387 8.76824C30.4913 8.80474 30.846 8.81679 31.2003 8.80428C31.555 8.81681 31.9101 8.80477 32.2632 8.76824C31.91 8.73254 31.555 8.7205 31.2003 8.7322C30.846 8.72052 30.4914 8.73256 30.1387 8.76824Z" fill="#FAFAFA"/>
<path id="Vector_68" d="M30.2154 12.9434C30.2154 12.9629 31.5673 12.9795 33.2357 12.9795C34.9041 12.9795 36.2491 12.9629 36.2491 12.9434C36.2491 12.924 34.8972 12.9074 33.2357 12.9074C31.5742 12.9074 30.2154 12.9268 30.2154 12.9434Z" fill="#FAFAFA"/>
<path id="Vector_69" d="M30.1633 15.4037C30.5729 15.452 30.9866 15.452 31.3961 15.4037C30.9866 15.3553 30.5729 15.3553 30.1633 15.4037Z" fill="#FAFAFA"/>
<path id="Vector_70" d="M33.6453 15.3019C33.6453 15.3213 34.3562 15.3379 35.2314 15.3379C36.1067 15.3379 36.819 15.3213 36.819 15.3019C36.819 15.2824 36.1081 15.2658 35.2314 15.2658C34.3548 15.2658 33.6453 15.2838 33.6453 15.3019Z" fill="#FAFAFA"/>
<path id="Vector_71" d="M32.8002 17.2697C33.2174 17.3054 33.6363 17.3174 34.0549 17.3058C34.4734 17.3174 34.8923 17.3054 35.3096 17.2697C34.8924 17.2332 34.4734 17.2211 34.0549 17.2337C33.6363 17.2211 33.2174 17.2332 32.8002 17.2697Z" fill="#FAFAFA"/>
<path id="Vector_72" d="M30.1142 17.2697C30.5567 17.3178 31.003 17.3178 31.4456 17.2697C31.003 17.2217 30.5567 17.2217 30.1142 17.2697Z" fill="#FAFAFA"/>
<path id="Vector_73" d="M32.8358 13.8209C32.855 13.8209 32.8715 12.8284 32.8715 11.603C32.8715 10.3776 32.855 9.3851 32.8358 9.3851C32.8167 9.3851 32.8002 10.379 32.8002 11.603C32.8002 12.827 32.8153 13.8209 32.8358 13.8209Z" fill="#FAFAFA"/>
<path id="Vector_74" d="M34.6521 14.0659C34.6713 14.0659 34.6877 13.4297 34.6877 12.6451C34.6877 11.8605 34.6713 11.2228 34.6521 11.2228C34.616 11.696 34.6041 12.1707 34.6165 12.6451C34.6041 13.119 34.616 13.5932 34.6521 14.0659Z" fill="#FAFAFA"/>
<path id="Vector_75" d="M35.8138 16.6403C35.8343 16.6403 35.8494 15.6963 35.8494 14.5319C35.8494 13.3675 35.8343 12.4249 35.8138 12.4249C35.7932 12.4249 35.7781 13.3675 35.7781 14.5319C35.7781 15.6963 35.7946 16.6403 35.8138 16.6403Z" fill="#FAFAFA"/>
<path id="Vector_76" d="M33.9015 18.7229C33.9207 18.7229 33.9371 17.9272 33.9371 16.9472C33.9371 15.9672 33.9207 15.1701 33.9015 15.1701C33.8823 15.1701 33.8645 15.9658 33.8645 16.9472C33.8645 17.9286 33.881 18.7229 33.9015 18.7229Z" fill="#FAFAFA"/>
<path id="Vector_77" d="M30.7525 7.59692C30.7333 7.59692 30.7169 9.83008 30.7169 12.5872C30.7169 15.3443 30.7333 17.5775 30.7525 17.5775C30.7716 17.5775 30.7881 15.3457 30.7881 12.5872C30.7881 9.82869 30.773 7.59692 30.7525 7.59692Z" fill="#FAFAFA"/>
<path id="Vector_78" d="M31.3854 7.89667C31.3649 7.89667 31.3498 9.06384 31.3498 10.5027C31.3498 11.9416 31.3649 13.1101 31.3854 13.1101C31.406 13.1101 31.421 11.943 31.421 10.5027C31.421 9.06245 31.4046 7.89667 31.3854 7.89667Z" fill="#263238"/>
<path id="Vector_79" d="M33.6756 15.2935C33.9008 15.0492 34.1078 14.7884 34.2947 14.513C34.5009 14.2523 34.6886 13.9772 34.8563 13.6896C34.6311 13.9339 34.4241 14.1947 34.2372 14.4701C34.0314 14.731 33.8437 15.0062 33.6756 15.2935Z" fill="#263238"/>
<path id="Vector_80" d="M27.1156 0.652028C26.9756 0.543216 26.814 0.466435 26.6418 0.426981C26.4696 0.387528 26.2911 0.386341 26.1184 0.423502C25.9457 0.460664 25.7831 0.535288 25.6417 0.64223C25.5003 0.749171 25.3835 0.885883 25.2993 1.04293C25.1398 1.38873 25.0845 1.77447 25.1405 2.15189C25.1761 2.52893 25.2596 2.90043 25.2678 3.27886C25.2788 3.76541 25.1678 4.26999 25.3281 4.72882C25.3906 4.90705 25.4916 5.06887 25.6239 5.20242C25.7562 5.33596 25.9164 5.43784 26.0927 5.50059C26.269 5.56333 26.4569 5.58534 26.6427 5.56501C26.8284 5.54468 27.0074 5.48253 27.1663 5.3831C27.5074 5.16963 27.7238 4.80783 27.9238 4.45712C28.1813 4.00245 28.4347 3.53392 28.5251 3.01826C28.6155 2.50259 28.5251 1.92594 28.1566 1.55444" fill="#263238"/>
<path id="Vector_81" d="M26.4157 7.34352C26.4759 6.57279 27.3553 7.04133 27.2567 6.27476C27.0363 4.54693 26.9538 2.80393 27.0101 1.06268" fill="#263238"/>
<path id="Vector_82" d="M28.8512 7.2046L29.4169 2.0951C28.8375 1.29111 28.1239 0.909904 27.2911 0.871091C26.9216 0.860173 26.5605 0.983264 26.2729 1.21814C25.9853 1.45302 25.7902 1.78421 25.7227 2.15193C25.5597 2.99335 25.3789 4.12864 25.42 4.8259C25.4953 6.10119 26.4308 6.35071 26.4308 6.35071C26.4308 6.35071 26.398 6.78043 26.3514 7.30579C26.1103 7.34599 25.7199 7.41114 25.4542 7.47768C25.4419 7.47768 25.4638 7.52897 25.5117 7.6163C25.722 7.96324 26.0089 8.25614 26.3499 8.47201C26.6908 8.68788 27.0766 8.82085 27.4768 8.86047C27.8771 8.90009 28.281 8.84529 28.6568 8.70037C29.0327 8.55545 29.3702 8.32436 29.6429 8.02523L30.0538 7.41391C30.0538 7.41391 29.4511 7.29886 28.8512 7.2046Z" fill="#FFBE9D"/>
<path id="Vector_83" d="M25.7954 3.05746C25.7907 3.09945 25.8024 3.14163 25.828 3.17503C25.8536 3.20843 25.891 3.2304 25.9324 3.23628C25.9525 3.23985 25.9732 3.23934 25.9931 3.23478C26.0131 3.23022 26.032 3.2217 26.0487 3.20971C26.0653 3.19772 26.0795 3.1825 26.0904 3.16493C26.1012 3.14736 26.1085 3.1278 26.1118 3.10736C26.1161 3.06544 26.1043 3.02343 26.0788 2.99012C26.0533 2.9568 26.016 2.93474 25.9748 2.92854C25.9546 2.92477 25.9339 2.92514 25.9139 2.92962C25.8939 2.9341 25.8749 2.9426 25.8582 2.95462C25.8414 2.96664 25.8273 2.98194 25.8165 2.9996C25.8057 3.01726 25.7985 3.03694 25.7954 3.05746Z" fill="#263238"/>
<path id="Vector_84" d="M25.7637 2.91829C25.7815 2.94185 25.9103 2.86284 26.0815 2.88086C26.2527 2.89888 26.3705 2.9973 26.3911 2.97789C26.4116 2.95849 26.3842 2.92938 26.3335 2.88363C26.2641 2.82459 26.1786 2.78833 26.0884 2.77967C25.9992 2.7706 25.9095 2.7905 25.8322 2.8365C25.7761 2.87254 25.7541 2.90858 25.7637 2.91829Z" fill="#263238"/>
<path id="Vector_85" d="M27.5458 3.27499C27.5411 3.31698 27.5528 3.35916 27.5784 3.39256C27.6039 3.42596 27.6414 3.44793 27.6827 3.45381C27.7028 3.45737 27.7234 3.45685 27.7433 3.45227C27.7632 3.4477 27.7819 3.43916 27.7985 3.42716C27.8151 3.41515 27.8291 3.39993 27.8398 3.38237C27.8505 3.36481 27.8577 3.34527 27.8608 3.32489C27.8652 3.28296 27.8533 3.24096 27.8278 3.20765C27.8023 3.17433 27.765 3.15227 27.7238 3.14607C27.7038 3.14251 27.6832 3.14303 27.6633 3.14761C27.6434 3.15218 27.6247 3.16072 27.6081 3.17272C27.5915 3.18472 27.5775 3.19995 27.5668 3.21751C27.5561 3.23507 27.5489 3.25461 27.5458 3.27499Z" fill="#263238"/>
<path id="Vector_86" d="M27.5115 3.12044C27.5293 3.144 27.6581 3.06638 27.8293 3.08301C28.0005 3.09964 28.1183 3.19945 28.1389 3.18004C28.1594 3.16064 28.132 3.13153 28.0814 3.08578C28.0116 3.02733 27.9263 2.99115 27.8362 2.98182C27.747 2.97274 27.6573 2.99265 27.58 3.03865C27.5293 3.07469 27.5115 3.11073 27.5115 3.12044Z" fill="#263238"/>
<path id="Vector_87" d="M26.7486 4.31755C26.6614 4.27846 26.5692 4.25187 26.4747 4.23853C26.4322 4.22883 26.3911 4.21635 26.387 4.18586C26.3876 4.13946 26.4024 4.0944 26.4295 4.05694L26.5911 3.73257C26.7386 3.45887 26.8646 3.17382 26.9678 2.88007C26.7978 3.1408 26.6494 3.41527 26.524 3.70069L26.3665 4.02783C26.3343 4.07836 26.3208 4.13871 26.3281 4.19833C26.3326 4.21455 26.3408 4.22949 26.352 4.242C26.3631 4.2545 26.377 4.26422 26.3925 4.27042C26.4164 4.27906 26.4412 4.2851 26.4664 4.28843C26.559 4.30963 26.6537 4.31941 26.7486 4.31755Z" fill="#263238"/>
<path id="Vector_88" d="M26.431 6.35628C27.0139 6.42504 27.6041 6.32908 28.1364 6.07904C28.1364 6.07904 27.6501 6.90105 26.4187 6.65985L26.431 6.35628Z" fill="#EB996E"/>
<path id="Vector_89" d="M26.7803 4.74821C26.8169 4.71001 26.8625 4.68183 26.9128 4.66632C26.9631 4.6508 27.0165 4.64845 27.0679 4.65949C27.1055 4.667 27.1412 4.68203 27.173 4.70369C27.2047 4.72535 27.2319 4.75321 27.2528 4.78563C27.2729 4.81683 27.283 4.8535 27.2818 4.89069C27.2805 4.92788 27.2681 4.96379 27.246 4.99356C27.2154 5.02186 27.1772 5.04028 27.1362 5.04645C27.0952 5.05263 27.0533 5.04628 27.0159 5.02822C26.938 4.99115 26.8682 4.93885 26.8104 4.87435C26.7921 4.85867 26.7772 4.83932 26.7666 4.81752C26.7605 4.80804 26.7572 4.79696 26.7572 4.78563C26.7572 4.77431 26.7605 4.76323 26.7666 4.75375" fill="#EB996E"/>
<path id="Vector_90" d="M27.2377 4.4863C27.2103 4.4863 27.1925 4.67066 27.0199 4.78849C26.8473 4.90631 26.6515 4.86611 26.6474 4.89107C26.6433 4.91602 26.6885 4.93265 26.772 4.94374C26.8809 4.95607 26.9905 4.92906 27.0816 4.8675C27.1692 4.80878 27.2306 4.71775 27.2528 4.61383C27.2706 4.5362 27.2542 4.4863 27.2377 4.4863Z" fill="#263238"/>
<path id="Vector_91" d="M26.3499 2.66868C26.3389 2.69502 26.2211 2.66868 26.0759 2.66868C25.9307 2.66868 25.8143 2.68947 25.802 2.66868C25.7897 2.64789 25.9102 2.57303 26.0759 2.57442C26.2417 2.57581 26.3608 2.64096 26.3499 2.66868Z" fill="#263238"/>
<path id="Vector_92" d="M28.0745 2.73932C28.0745 2.73932 28.0745 2.72546 28.0745 2.71021V2.73516C27.9861 2.70211 27.8942 2.67977 27.8006 2.66862C27.6376 2.6506 27.5088 2.70466 27.4951 2.67971C27.4814 2.65476 27.5157 2.63813 27.5705 2.6104C27.6448 2.57502 27.7271 2.56065 27.8088 2.56882C27.8612 2.57258 27.9124 2.58675 27.9594 2.61054C28.0064 2.63432 28.0483 2.66725 28.0828 2.70744L28.0951 2.72823H28.0869C28.0896 2.7407 28.08 2.74348 28.0745 2.73932Z" fill="#263238"/>
<path id="Vector_93" d="M28.1185 3.86948C28.1048 3.86948 28.0911 3.85284 28.0883 3.82789C28.0856 3.80294 28.0883 3.78076 28.1075 3.77937C28.1267 3.77799 28.1349 3.79601 28.1377 3.82096C28.1404 3.84591 28.1322 3.86809 28.1185 3.86948Z" fill="#EB996E"/>
<path id="Vector_94" d="M27.7253 3.85254C27.7116 3.85254 27.702 3.82897 27.713 3.80541C27.7239 3.78184 27.7445 3.77214 27.7554 3.78046C27.7593 3.787 27.7616 3.79438 27.7621 3.80198C27.7626 3.80959 27.7614 3.81721 27.7584 3.82423C27.7555 3.83125 27.751 3.83747 27.7452 3.84239C27.7394 3.84731 27.7326 3.85079 27.7253 3.85254Z" fill="#EB996E"/>
<path id="Vector_95" d="M27.9375 4.02324C27.9238 4.02324 27.9142 4.00799 27.9155 3.99136C27.9154 3.98772 27.9159 3.98407 27.9171 3.98064C27.9183 3.9772 27.9202 3.97404 27.9226 3.97134C27.925 3.96864 27.9279 3.96644 27.9312 3.96488C27.9344 3.96332 27.938 3.96243 27.9416 3.96225C27.9486 3.9636 27.9549 3.9677 27.959 3.97366C27.9631 3.97962 27.9647 3.98697 27.9635 3.99413C27.9639 3.99782 27.9635 4.00154 27.9623 4.00506C27.9612 4.00859 27.9594 4.01183 27.9569 4.01457C27.9544 4.01732 27.9514 4.01951 27.9481 4.02101C27.9447 4.0225 27.9411 4.02326 27.9375 4.02324Z" fill="#EB996E"/>
<path id="Vector_96" d="M25.6953 3.77796C25.683 3.77796 25.6734 3.75439 25.6775 3.72944C25.6816 3.70449 25.6939 3.68508 25.7063 3.68786C25.7186 3.69063 25.7295 3.71003 25.7254 3.73499C25.7213 3.75994 25.709 3.77796 25.6953 3.77796Z" fill="#EB996E"/>
<path id="Vector_97" d="M26.0911 3.77787C26.0774 3.77787 26.0679 3.76124 26.0692 3.74045C26.0706 3.71965 26.0816 3.70441 26.0953 3.70441C26.109 3.70441 26.1199 3.72243 26.1185 3.74322C26.1172 3.76401 26.1048 3.77787 26.0911 3.77787Z" fill="#EB996E"/>
<path id="Vector_98" d="M25.898 3.91658C25.8843 3.91658 25.8733 3.89578 25.8733 3.87222C25.8733 3.84865 25.8843 3.82648 25.898 3.82648C25.9117 3.82648 25.9226 3.84588 25.9226 3.87083C25.9226 3.89579 25.9117 3.91658 25.898 3.91658Z" fill="#EB996E"/>
<path id="Vector_99" d="M26.5802 0.385915C26.5213 0.603033 26.5093 0.830441 26.545 1.05267C26.5808 1.2749 26.6634 1.48674 26.7872 1.67377C26.9111 1.8608 27.0733 2.01864 27.2628 2.13655C27.4523 2.25446 27.6647 2.32968 27.8856 2.35708C27.9918 2.35614 28.096 2.38648 28.1856 2.44441C28.2626 2.53546 28.3104 2.64813 28.3225 2.76739C28.3623 2.9317 28.4353 3.08588 28.5369 3.22021C28.6385 3.35453 28.7665 3.46608 28.9129 3.54782C28.5362 4.26032 28.4677 5.48849 29.0047 5.86692C30.347 5.17382 29.7334 4.05378 29.9566 3.29969C30.2183 2.41391 29.8909 1.5115 29.2348 0.869695C28.5787 0.227889 27.4541 0.0906562 26.5857 0.385915" fill="#263238"/>
<path id="Vector_100" d="M29.8402 2.51509C29.6545 2.26899 29.5487 1.97066 29.5375 1.6612C29.5337 1.50712 29.5625 1.35399 29.6217 1.21202C29.681 1.07004 29.7695 0.942475 29.8813 0.8378C30.0488 0.69605 30.2544 0.608196 30.4717 0.585513C30.7088 0.557527 30.949 0.594172 31.1674 0.691657C31.3858 0.789142 31.5745 0.943926 31.714 1.13999C31.8487 1.33959 31.925 1.57359 31.9342 1.81511C31.9434 2.05663 31.8852 2.29588 31.7661 2.50539C31.6394 2.70932 31.4559 2.87078 31.2387 2.96944C31.0216 3.0681 30.7804 3.09956 30.5456 3.05987C30.3115 3.01178 30.0981 2.89098 29.9351 2.71431C29.772 2.53765 29.6675 2.31391 29.6361 2.07428" fill="#263238"/>
</g>
<g id="freepik--Plant--inject-6">
<path id="Vector_101" d="M12.464 36.5905C13.8549 37.0819 15.6702 36.6431 16.8596 35.7639C18.0489 34.8847 18.9039 33.6255 19.6627 32.3477C19.9864 31.8022 20.3025 31.2336 20.4048 30.6063C20.5071 29.979 20.3574 29.2729 19.8765 28.8635C19.1284 28.2269 17.9833 28.5544 17.1283 29.038C15.8035 29.8199 14.6863 30.9158 13.8727 32.2314C13.0591 33.547 12.5736 35.0429 12.4579 36.5905" fill="#97C865"/>
<path id="Vector_102" d="M13.9573 39.9589C14.7924 41.0744 16.2276 41.5704 17.6093 41.6353C18.9911 41.7002 20.3575 41.3139 21.6446 40.8118C22.1133 40.631 22.6263 40.3807 22.7866 39.9001C22.8388 39.7136 22.8438 39.5168 22.8011 39.3278C22.7584 39.1387 22.6694 38.9636 22.5423 38.8186C22.2868 38.5317 21.9669 38.3113 21.6095 38.1758C20.3392 37.6273 18.8842 37.6026 17.5467 37.9533C16.2093 38.304 15.0428 39.0874 13.9573 39.9527" fill="#97C865"/>
<path id="Vector_103" d="M12.4443 30.5616C13.5955 30.5847 14.4673 29.565 14.9879 28.5251C15.7121 27.0728 15.9525 25.4223 15.6734 23.8203C15.5681 23.2239 15.3467 22.5842 14.82 22.2968C14.2932 22.0094 13.5879 22.1964 13.1405 22.6058C12.6932 23.0153 12.4458 23.6101 12.2672 24.1973C11.6489 26.2214 11.7817 28.5468 12.4443 30.5554" fill="#97C865"/>
<path id="Vector_104" d="M8.66385 37.0065C10.6258 33.6258 10.954 29.4895 9.79366 25.7473C9.60587 25.1416 9.25013 24.4463 8.62415 24.4061C7.92947 24.3613 7.49281 25.1462 7.30196 25.823C6.62865 28.1978 6.77217 30.721 6.92027 33.1885C7.01187 34.7073 7.53098 36.0068 8.66385 37.0065Z" fill="#97C865"/>
<path id="Vector_105" d="M6.6226 38.3953C6.25699 37.237 5.63922 36.1765 4.81479 35.2919C3.99037 34.4073 2.98031 33.7212 1.85905 33.2841C1.33842 33.0863 0.675799 32.9751 0.286471 33.3768C-0.102857 33.7785 0.0223389 34.4337 0.26815 34.9219C0.662058 35.7207 1.30483 36.362 1.9476 36.9769C2.52931 37.5378 3.13391 38.1002 3.86829 38.4247C4.60267 38.7491 5.95387 38.8326 6.62718 38.3891" fill="#97C865"/>
<path id="Vector_106" d="M18.791 29.7121L18.7559 29.743L18.6506 29.8249L18.2399 30.1339C18.1483 30.2004 18.049 30.2745 17.9345 30.3564C17.82 30.4383 17.7162 30.5372 17.5925 30.6376C17.3497 30.8431 17.0627 31.0656 16.7742 31.3437C16.6215 31.4782 16.4688 31.6203 16.3161 31.7686C16.1634 31.917 16.0016 32.0854 15.8352 32.2523C15.4962 32.5814 15.1695 32.9646 14.8184 33.3601C13.3225 35.1125 12.1115 37.0944 11.2304 39.2315C11.0381 39.7275 10.8442 40.1956 10.7052 40.6484C10.6319 40.874 10.5525 41.0887 10.493 41.3004C10.4334 41.5121 10.377 41.7145 10.3235 41.9092C10.2075 42.2954 10.1403 42.6539 10.067 42.966C10.0334 43.1205 9.99679 43.2658 9.97084 43.4017C9.94488 43.5377 9.92656 43.6598 9.90671 43.771C9.86854 43.9873 9.83801 44.1588 9.81663 44.2825C9.80594 44.3365 9.79678 44.3798 9.79068 44.4153C9.78776 44.4306 9.78367 44.4455 9.77846 44.4601C9.77616 44.4448 9.77616 44.4291 9.77846 44.4138C9.77846 44.3782 9.78915 44.3334 9.79526 44.2794C9.81358 44.1542 9.83801 43.9827 9.87007 43.7648C9.88686 43.6521 9.90518 43.5284 9.92656 43.3925C9.94793 43.2565 9.98305 43.1113 10.0151 42.9552C10.0838 42.6462 10.1464 42.28 10.2594 41.8922L10.4228 41.2741C10.4808 41.0625 10.5602 40.8461 10.6304 40.619C10.7678 40.1632 10.9587 39.6919 11.1495 39.1944C11.5948 38.1243 12.1173 37.0889 12.7129 36.0965C13.3227 35.1138 14.004 34.1785 14.7512 33.2983C15.1069 32.9012 15.4367 32.518 15.7787 32.1905C15.9466 32.0251 16.1024 31.8583 16.2657 31.7099L16.7329 31.2866C17.0261 31.0115 17.3162 30.7937 17.5635 30.5913C17.6887 30.4924 17.8017 30.3966 17.9116 30.3147L18.217 30.0984L18.6384 29.8002L18.7498 29.7245C18.7758 29.7183 18.7895 29.7106 18.791 29.7121Z" fill="#263238"/>
<path id="Vector_107" d="M21.3897 39.0813C21.3443 39.078 21.2994 39.0708 21.2553 39.0597C21.1667 39.0427 21.04 39.0087 20.8736 38.9809C18.8465 38.5889 16.7502 38.8076 14.8447 39.6099C12.9393 40.4122 11.3083 41.7627 10.1541 43.4941C10.0564 43.6332 9.99074 43.7491 9.94035 43.8232C9.91768 43.8634 9.89109 43.9012 9.86096 43.936C9.87859 43.8937 9.89952 43.8529 9.92356 43.814C9.96936 43.7367 10.0304 43.6177 10.1251 43.474C10.382 43.0636 10.6688 42.6732 10.9831 42.3059C12.0226 41.0834 13.3303 40.1241 14.8016 39.5046C16.273 38.8851 17.8672 38.6227 19.4568 38.7383C19.9355 38.771 20.4112 38.8402 20.8797 38.9453C21.0461 38.9793 21.1729 39.0195 21.2599 39.0411C21.3043 39.0504 21.3477 39.0638 21.3897 39.0813Z" fill="#263238"/>
<path id="Vector_108" d="M14.1403 23.6456C14.1403 23.6456 14.1403 23.6642 14.1403 23.6982C14.1403 23.7322 14.1205 23.7878 14.1083 23.8527C14.0777 23.9933 14.0335 24.188 13.98 24.4352C13.867 24.9404 13.6945 25.6713 13.4777 26.569C13.0441 28.369 12.4166 30.8458 11.7616 33.5915C11.4364 34.9666 11.1417 36.2784 10.8883 37.4759C10.6349 38.6733 10.4303 39.7533 10.2684 40.665C10.1845 41.1208 10.1158 41.5333 10.0608 41.901C10.0058 42.2688 9.95086 42.5763 9.90811 42.8281C9.86536 43.08 9.83941 43.2762 9.81651 43.4168C9.80582 43.4801 9.79819 43.5296 9.79055 43.5713C9.78887 43.5886 9.78528 43.6057 9.77986 43.6223C9.77748 43.6049 9.77748 43.5872 9.77986 43.5698C9.77986 43.5296 9.79055 43.4786 9.79666 43.4152C9.81498 43.2746 9.83941 43.0753 9.86994 42.8235C9.90048 42.5716 9.94476 42.2533 10.0012 41.8964C10.0577 41.5395 10.1158 41.1239 10.1967 40.6603C10.3494 39.7456 10.5524 38.6625 10.7967 37.4635C11.041 36.2645 11.3387 34.9512 11.6639 33.576C12.3189 30.8288 12.9571 28.3536 13.406 26.5581C13.6289 25.6666 13.809 24.942 13.9373 24.4321C13.9983 24.1864 14.0472 23.9933 14.09 23.8558C14.1068 23.794 14.1205 23.7445 14.1297 23.7013C14.1318 23.6825 14.1354 23.6639 14.1403 23.6456Z" fill="#263238"/>
<path id="Vector_109" d="M9.63498 43.3458C9.63498 43.3458 9.63498 43.3334 9.62124 43.3056C9.60749 43.2778 9.60597 43.233 9.59375 43.1835C9.57085 43.0677 9.53879 42.9116 9.49757 42.7123C9.41512 42.3044 9.30367 41.7111 9.17847 40.9756C8.92655 39.5046 8.62883 37.462 8.44562 35.1907C8.35554 34.0535 8.30668 32.9689 8.28531 31.9815C8.26393 30.9942 8.28531 30.1042 8.30821 29.3549C8.31737 28.9809 8.3418 28.6441 8.35706 28.3474C8.37233 28.0508 8.39218 27.7974 8.41203 27.5888C8.43188 27.3802 8.44409 27.2272 8.45478 27.1114C8.45478 27.0604 8.46547 27.0202 8.46852 26.9862C8.46724 26.9723 8.46724 26.9584 8.46852 26.9445C8.47091 26.9588 8.47091 26.9734 8.46852 26.9878V27.1129C8.46852 27.2303 8.45325 27.3895 8.44104 27.5919C8.42882 27.7943 8.41355 28.0554 8.40287 28.3505C8.39218 28.6456 8.37233 28.984 8.36775 29.3564C8.34485 30.1011 8.34332 30.9896 8.36775 31.9753C8.39218 32.9611 8.44562 34.0442 8.53417 35.1784C8.71738 37.4466 9.00594 39.4877 9.23954 40.9601C9.3571 41.6956 9.45787 42.2905 9.52963 42.7015C9.56322 42.9008 9.5907 43.0599 9.60902 43.1758C9.60902 43.2253 9.62276 43.2654 9.62734 43.2994C9.63238 43.3143 9.63496 43.33 9.63498 43.3458Z" fill="#263238"/>
<path id="Vector_110" d="M9.77992 43.7754C9.7584 43.7388 9.74099 43.6999 9.72802 43.6595C9.69595 43.573 9.6532 43.4602 9.59977 43.3196L9.50663 43.0739C9.46846 42.9843 9.42571 42.89 9.38144 42.788C9.33716 42.6861 9.2883 42.5748 9.22876 42.4589C9.16921 42.343 9.11272 42.2256 9.05013 42.0989L8.85775 41.7049L8.61957 41.2893C8.4669 40.9988 8.25773 40.7083 8.06077 40.3931C7.60484 39.7278 7.11138 39.0897 6.58285 38.4818C6.04684 37.8796 5.48068 37.3057 4.8866 36.7621C4.60415 36.5211 4.34613 36.2816 4.08505 36.0792L3.71404 35.7794L3.36135 35.5168C3.13844 35.3453 2.92928 35.2078 2.75064 35.078C2.57201 34.9482 2.40865 34.8431 2.27429 34.7612L1.96893 34.5665C1.93187 34.5455 1.89708 34.5207 1.86511 34.4924C1.9043 34.5082 1.94209 34.5273 1.97809 34.5495L2.29108 34.7303C2.42849 34.8076 2.59644 34.9096 2.7766 35.0393C2.95676 35.1691 3.17814 35.3005 3.4041 35.4689L3.76137 35.7285L4.13238 36.0189C4.39651 36.2183 4.65759 36.4577 4.94309 36.6988C5.54351 37.2397 6.11387 37.8138 6.65156 38.4185C7.18307 39.0296 7.67714 39.6731 8.13101 40.3452C8.32796 40.6635 8.53713 40.9633 8.68981 41.2507L8.92493 41.6709L9.12188 42.0696C9.18143 42.1978 9.24555 42.3168 9.29441 42.4342C9.34327 42.5516 9.38907 42.6629 9.43335 42.7664L9.55244 43.0569L9.63793 43.3072C9.68374 43.4493 9.72191 43.5652 9.75092 43.6533C9.76409 43.6931 9.77379 43.7339 9.77992 43.7754Z" fill="#263238"/>
<path id="Vector_111" d="M18.0628 33.6317C17.8569 33.6546 17.65 33.667 17.4429 33.6688C16.9459 33.696 16.4511 33.7564 15.962 33.8496C15.4729 33.945 14.9904 34.0725 14.5176 34.2312C14.1542 34.3517 13.9329 34.4398 13.9268 34.4274C13.9731 34.3922 14.0246 34.3645 14.0794 34.3456C14.1756 34.2992 14.3191 34.2374 14.4993 34.1679C15.4423 33.8118 16.4382 33.6206 17.4445 33.6024C17.6368 33.6024 17.7941 33.6024 17.9025 33.6116C17.9566 33.6107 18.0106 33.6174 18.0628 33.6317Z" fill="#263238"/>
<path id="Vector_112" d="M19.5437 40.9509C19.5162 40.9648 19.2933 40.3174 18.7361 39.7148C18.1788 39.1122 17.5635 38.8341 17.5803 38.8078C17.7216 38.8452 17.8561 38.9052 17.9788 38.9855C18.2845 39.1645 18.5624 39.3884 18.8032 39.6499C19.0439 39.9121 19.2441 40.2095 19.3972 40.5321C19.4672 40.6632 19.5166 40.8044 19.5437 40.9509Z" fill="#263238"/>
<path id="Vector_113" d="M14.4916 26.3898C14.5099 26.4099 14.148 26.773 13.7541 27.2643C13.3602 27.7556 13.0793 28.1914 13.0564 28.1697C13.218 27.8195 13.4289 27.4947 13.6824 27.2056C13.9126 26.8962 14.185 26.6216 14.4916 26.3898Z" fill="#263238"/>
<path id="Vector_114" d="M13.3084 24.3174C13.3343 24.3174 13.4137 24.6635 13.487 25.1008C13.546 25.3633 13.5757 25.6318 13.5756 25.9011C13.5496 25.9011 13.4702 25.555 13.3954 25.1162C13.3364 24.8542 13.3072 24.5861 13.3084 24.3174Z" fill="#263238"/>
<path id="Vector_115" d="M9.63654 30.8215C9.65945 30.8339 9.40295 31.3808 9.06248 32.0452C8.72201 32.7096 8.42886 33.238 8.40596 33.2257C8.38306 33.2133 8.63956 32.6664 8.98003 32.002C9.3205 31.3376 9.61364 30.8091 9.63654 30.8215Z" fill="#263238"/>
<path id="Vector_116" d="M7.45155 28.6132C7.64041 28.8925 7.80344 29.1889 7.93859 29.4985C8.1844 29.9991 8.36456 30.4132 8.34166 30.4256C8.15347 30.1458 7.99047 29.8495 7.85462 29.5403C7.60881 29.0396 7.42865 28.6256 7.45155 28.6132Z" fill="#263238"/>
<path id="Vector_117" d="M4.23914 36.1637C4.23914 36.1915 3.8437 36.1142 3.35819 36.0802C2.87267 36.0462 2.47571 36.0648 2.47266 36.037C2.76472 35.9678 3.06651 35.9511 3.36429 35.9875C3.66389 35.9936 3.96007 36.0532 4.23914 36.1637Z" fill="#263238"/>
<path id="Vector_118" d="M6.43335 42.8408L7.525 48.6566C7.56046 48.843 7.65894 49.0111 7.80353 49.1321C7.94812 49.253 8.1298 49.3193 8.31739 49.3194H11.545C11.7359 49.3194 11.9205 49.2507 12.066 49.1256C12.2114 49.0005 12.3081 48.8271 12.3389 48.6365L13.2901 42.8408H6.43335Z" fill="#C9642C"/>
<path id="Vector_119" d="M6.78756 44.7305H12.9618L13.2901 42.8408H6.43335L6.78756 44.7305Z" fill="#D9893F"/>
<path id="Vector_120" d="M6.78748 44.7305L6.91725 45.4196H12.8671L12.9618 44.7305H6.78748Z" fill="#FAFAFA"/>
</g>
</g>
<defs>
<clipPath id="clip0_1_2740">
<rect width="37" height="50" fill="white"/>
</clipPath>
</defs>
</svg>
