<svg width="24" height="24" viewBox="0 0 24 24" fill="none" xmlns="http://www.w3.org/2000/svg">
<g id="edit_square_FILL0_wght400_GRAD0_opsz48 1">
<path id="Vector" d="M4.5 23.6996C4.1 23.6996 3.75 23.5496 3.45 23.2496C3.15 22.9496 3 22.5996 3 22.1996V7.19961C3 6.79961 3.15 6.44961 3.45 6.14961C3.75 5.84961 4.1 5.69961 4.5 5.69961H14.625L13.125 7.19961H4.5V22.1996H19.5V13.4996L21 11.9996V22.1996C21 22.5996 20.85 22.9496 20.55 23.2496C20.25 23.5496 19.9 23.6996 19.5 23.6996H4.5ZM16.55 5.89961L17.625 6.94961L10.5 14.0496V16.1996H12.625L19.775 9.04961L20.825 10.0996L13.25 17.6996H9V13.4496L16.55 5.89961ZM20.825 10.0996L16.55 5.89961L19.05 3.39961C19.3333 3.11628 19.6875 2.97461 20.1125 2.97461C20.5375 2.97461 20.8917 3.12461 21.175 3.42461L23.275 5.54961C23.5583 5.84961 23.7 6.20378 23.7 6.61211C23.7 7.02044 23.55 7.36628 23.25 7.64961L20.825 10.0996Z" fill="#1E4AE6"/>
</g>
</svg>
